Varta-Light.ufo
<glyph name="exclam" format="1">
  <advance width="567"/>
  <unicode hex="0021"/>
  <outline>
    <contour>
      <point x="235" y="390" type="line" name="hr01"/>
      <point x="331" y="390" type="line"/>
      <point x="350" y="1199" type="line"/>
      <point x="353" y="1372" type="line"/>
      <point x="214" y="1372" type="line"/>
      <point x="217" y="1199" type="line"/>
    </contour>
    <contour>
      <point x="176" y="88" type="curve" smooth="yes" name="hr02"/>
      <point x="176" y="21"/>
      <point x="226" y="-25"/>
      <point x="284" y="-25" type="curve" smooth="yes"/>
      <point x="341" y="-25"/>
      <point x="391" y="21"/>
      <point x="391" y="88" type="curve" smooth="yes"/>
      <point x="391" y="158"/>
      <point x="341" y="204"/>
      <point x="284" y="204" type="curve" smooth="yes"/>
      <point x="226" y="204"/>
      <point x="176" y="158"/>
    </contour>
  </outline>
</glyph>
<glyph name="dollar" format="1">
  <advance width="1003"/>
  <unicode hex="0024"/>
  <outline>
    <contour>
      <point x="850" y="1192" type="line" name="hr01"/>
      <point x="778" y="1267"/>
      <point x="695" y="1318"/>
      <point x="564" y="1330" type="curve"/>
      <point x="564" y="1533" type="line"/>
      <point x="458" y="1533" type="line"/>
      <point x="458" y="1329" type="line" name="hr02"/>
      <point x="284" y="1304"/>
      <point x="165" y="1175"/>
      <point x="165" y="997" type="curve" smooth="yes"/>
      <point x="165" y="591"/>
      <point x="744" y="679"/>
      <point x="744" y="318" type="curve" smooth="yes"/>
      <point x="744" y="182"/>
      <point x="661" y="90"/>
      <point x="501" y="90" type="curve" smooth="yes"/>
      <point x="369" y="90"/>
      <point x="262" y="145"/>
      <point x="178" y="218" type="curve"/>
      <point x="112" y="123" type="line"/>
      <point x="196" y="45"/>
      <point x="323" y="-11"/>
      <point x="458" y="-23" type="curve"/>
      <point x="458" y="-225" type="line"/>
      <point x="564" y="-225" type="line"/>
      <point x="564" y="-20" type="line" name="hr03"/>
      <point x="753" y="2"/>
      <point x="880" y="133"/>
      <point x="880" y="328" type="curve" smooth="yes"/>
      <point x="880" y="779"/>
      <point x="300" y="681"/>
      <point x="300" y="1003" type="curve" smooth="yes"/>
      <point x="300" y="1129"/>
      <point x="386" y="1216"/>
      <point x="518" y="1216" type="curve" smooth="yes"/>
      <point x="636" y="1216"/>
      <point x="698" y="1183"/>
      <point x="775" y="1108" type="curve"/>
    </contour>
  </outline>
</glyph>
<glyph name="percent" format="1">
  <advance width="1672"/>
  <unicode hex="0025"/>
  <outline>
    <contour>
      <point x="375" y="522" type="curve" smooth="yes"/>
      <point x="555" y="522"/>
      <point x="673" y="677"/>
      <point x="673" y="948" type="curve" smooth="yes"/>
      <point x="673" y="1219"/>
      <point x="555" y="1370"/>
      <point x="375" y="1370" type="curve" smooth="yes"/>
      <point x="193" y="1370"/>
      <point x="76" y="1219"/>
      <point x="76" y="948" type="curve" smooth="yes"/>
      <point x="76" y="677"/>
      <point x="193" y="522"/>
    </contour>
    <contour>
      <point x="375" y="612" type="curve" smooth="yes"/>
      <point x="259" y="612"/>
      <point x="184" y="730"/>
      <point x="184" y="948" type="curve" smooth="yes"/>
      <point x="184" y="1169"/>
      <point x="259" y="1282"/>
      <point x="375" y="1282" type="curve" smooth="yes"/>
      <point x="488" y="1282"/>
      <point x="564" y="1169"/>
      <point x="564" y="948" type="curve" smooth="yes"/>
      <point x="564" y="730"/>
      <point x="488" y="612"/>
    </contour>
    <contour>
      <point x="510" y="-25" type="line"/>
      <point x="1256" y="1370" type="line"/>
      <point x="1158" y="1370" type="line"/>
      <point x="412" y="-25" type="line"/>
    </contour>
    <contour>
      <point x="1299" y="-25" type="curve" smooth="yes"/>
      <point x="1479" y="-25"/>
      <point x="1597" y="128"/>
      <point x="1597" y="401" type="curve" smooth="yes"/>
      <point x="1597" y="671"/>
      <point x="1479" y="823"/>
      <point x="1299" y="823" type="curve" smooth="yes"/>
      <point x="1117" y="823"/>
      <point x="1000" y="671"/>
      <point x="1000" y="401" type="curve" smooth="yes"/>
      <point x="1000" y="128"/>
      <point x="1117" y="-25"/>
    </contour>
    <contour>
      <point x="1299" y="65" type="curve" smooth="yes"/>
      <point x="1185" y="65"/>
      <point x="1108" y="182"/>
      <point x="1108" y="401" type="curve" smooth="yes"/>
      <point x="1108" y="620"/>
      <point x="1185" y="734"/>
      <point x="1299" y="734" type="curve" smooth="yes"/>
      <point x="1412" y="734"/>
      <point x="1488" y="620"/>
      <point x="1488" y="401" type="curve" smooth="yes"/>
      <point x="1488" y="182"/>
      <point x="1412" y="65"/>
    </contour>
  </outline>
</glyph>
<glyph name="quotesingle" format="1">
  <advance width="485"/>
  <unicode hex="0027"/>
  <outline>
    <contour>
      <point x="197" y="910" type="line"/>
      <point x="285" y="910" type="line"/>
      <point x="312" y="1247" type="line"/>
      <point x="315" y="1415" type="line"/>
      <point x="166" y="1415" type="line"/>
      <point x="171" y="1247" type="line"/>
    </contour>
  </outline>
</glyph>
<glyph name="parenleft" format="1">
  <advance width="600"/>
  <unicode hex="0028"/>
  <outline>
    <contour>
      <point x="443" y="-359" type="curve" name="hr00"/>
      <point x="528" y="-317" type="line"/>
      <point x="368" y="-58"/>
      <point x="290" y="242"/>
      <point x="290" y="567" type="curve" smooth="yes"/>
      <point x="290" y="894"/>
      <point x="368" y="1197"/>
      <point x="528" y="1456" type="curve"/>
      <point x="443" y="1498" type="line"/>
      <point x="274" y="1225"/>
      <point x="173" y="939"/>
      <point x="173" y="567" type="curve" smooth="yes"/>
      <point x="173" y="196"/>
      <point x="274" y="-86"/>
    </contour>
  </outline>
</glyph>
<glyph name="plus" format="1">
  <advance width="1003"/>
  <unicode hex="002B"/>
  <outline>
    <contour>
      <point x="445" y="218" type="line"/>
      <point x="557" y="218" type="line"/>
      <point x="557" y="622" type="line"/>
      <point x="933" y="622" type="line"/>
      <point x="933" y="729" type="line"/>
      <point x="557" y="729" type="line"/>
      <point x="557" y="1134" type="line"/>
      <point x="445" y="1134" type="line"/>
      <point x="445" y="729" type="line"/>
      <point x="70" y="729" type="line"/>
      <point x="70" y="622" type="line"/>
      <point x="445" y="622" type="line"/>
    </contour>
  </outline>
</glyph>
<glyph name="hyphen" format="1">
  <advance width="627"/>
  <unicode hex="002D"/>
  <outline>
    <contour>
      <point x="83" y="458" type="line"/>
      <point x="546" y="458" type="line"/>
      <point x="546" y="567" type="line"/>
      <point x="83" y="567" type="line"/>
    </contour>
  </outline>
</glyph>
<glyph name="period" format="1">
  <advance width="485"/>
  <unicode hex="002E"/>
  <outline>
    <contour>
      <point x="135" y="88" type="curve" smooth="yes"/>
      <point x="135" y="21"/>
      <point x="185" y="-25"/>
      <point x="243" y="-25" type="curve" smooth="yes"/>
      <point x="301" y="-25"/>
      <point x="350" y="21"/>
      <point x="350" y="88" type="curve" smooth="yes"/>
      <point x="350" y="158"/>
      <point x="301" y="204"/>
      <point x="243" y="204" type="curve" smooth="yes"/>
      <point x="185" y="204"/>
      <point x="135" y="158"/>
    </contour>
  </outline>
</glyph>
<glyph name="one" format="1">
  <advance width="1003"/>
  <unicode hex="0031"/>
  <outline>
    <contour>
      <point x="166" y="0" type="line"/>
      <point x="881" y="0" type="line"/>
      <point x="881" y="115" type="line"/>
      <point x="605" y="115" type="line"/>
      <point x="605" y="1349" type="line"/>
      <point x="499" y="1349" type="line"/>
      <point x="431" y="1309"/>
      <point x="346" y="1278"/>
      <point x="232" y="1258" type="curve"/>
      <point x="232" y="1165" type="line"/>
      <point x="468" y="1179" type="line"/>
      <point x="468" y="115" type="line"/>
      <point x="166" y="115" type="line"/>
    </contour>
  </outline>
</glyph>
<glyph name="six" format="1">
  <advance width="1003"/>
  <unicode hex="0036"/>
  <outline>
    <contour>
      <point x="544" y="86" type="curve" smooth="yes"/>
      <point x="359" y="86"/>
      <point x="256" y="273"/>
      <point x="237" y="542" type="curve"/>
      <point x="332" y="673"/>
      <point x="442" y="721"/>
      <point x="528" y="721" type="curve" smooth="yes"/>
      <point x="705" y="721"/>
      <point x="786" y="595"/>
      <point x="786" y="397" type="curve" smooth="yes"/>
      <point x="786" y="219"/>
      <point x="682" y="86"/>
    </contour>
    <contour>
      <point x="892" y="1244" type="line"/>
      <point x="821" y="1322"/>
      <point x="726" y="1370"/>
      <point x="593" y="1370" type="curve" smooth="yes"/>
      <point x="336" y="1370"/>
      <point x="101" y="1170"/>
      <point x="101" y="629" type="curve" smooth="yes"/>
      <point x="101" y="213"/>
      <point x="284" y="-25"/>
      <point x="543" y="-25" type="curve" smooth="yes"/>
      <point x="747" y="-25"/>
      <point x="918" y="152"/>
      <point x="918" y="397" type="curve" smooth="yes"/>
      <point x="918" y="684"/>
      <point x="776" y="828"/>
      <point x="549" y="828" type="curve" smooth="yes"/>
      <point x="437" y="828"/>
      <point x="319" y="764"/>
      <point x="234" y="659" type="curve"/>
      <point x="240" y="1107"/>
      <point x="404" y="1254"/>
      <point x="596" y="1254" type="curve" smooth="yes"/>
      <point x="679" y="1254"/>
      <point x="759" y="1224"/>
      <point x="814" y="1157" type="curve"/>
    </contour>
  </outline>
</glyph>
<glyph name="seven" format="1">
  <advance width="1003"/>
  <unicode hex="0037"/>
  <outline>
    <contour>
      <point x="371" y="0" type="curve"/>
      <point x="515" y="0" type="line"/>
      <point x="533" y="511"/>
      <point x="606" y="862"/>
      <point x="917" y="1266" type="curve"/>
      <point x="917" y="1350" type="line"/>
      <point x="90" y="1350" type="line"/>
      <point x="90" y="1231" type="line"/>
      <point x="757" y="1231" type="line"/>
      <point x="497" y="868"/>
      <point x="389" y="507"/>
    </contour>
  </outline>
</glyph>
<glyph name="less" format="1">
  <advance width="1003"/>
  <unicode hex="003C"/>
  <outline>
    <contour>
      <point x="70" y="621" type="line"/>
      <point x="933" y="281" type="line"/>
      <point x="933" y="403" type="line"/>
      <point x="483" y="572" type="line"/>
      <point x="210" y="676" type="line"/>
      <point x="210" y="684" type="line"/>
      <point x="483" y="787" type="line"/>
      <point x="933" y="957" type="line"/>
      <point x="933" y="1079" type="line"/>
      <point x="70" y="739" type="line"/>
    </contour>
  </outline>
</glyph>
<glyph name="at" format="1">
  <advance width="1707"/>
  <unicode hex="0040"/>
  <outline>
    <contour>
      <point x="105" y="474" type="curve" smooth="yes" name="hr01"/>
      <point x="105" y="7"/>
      <point x="414" y="-251"/>
      <point x="813" y="-251" type="curve" smooth="yes"/>
      <point x="953" y="-251"/>
      <point x="1082" y="-217"/>
      <point x="1199" y="-144" type="curve"/>
      <point x="1159" y="-60" type="line"/>
      <point x="1065" y="-116"/>
      <point x="952" y="-155"/>
      <point x="823" y="-155" type="curve" smooth="yes"/>
      <point x="466" y="-155"/>
      <point x="209" y="80"/>
      <point x="209" y="480" type="curve" smooth="yes"/>
      <point x="209" y="962"/>
      <point x="563" y="1275"/>
      <point x="931" y="1275" type="curve" smooth="yes"/>
      <point x="1297" y="1275"/>
      <point x="1500" y="1037"/>
      <point x="1500" y="698" type="curve" smooth="yes"/>
      <point x="1500" y="423"/>
      <point x="1354" y="262"/>
      <point x="1224" y="262" type="curve" smooth="yes"/>
      <point x="1106" y="262"/>
      <point x="1064" y="345"/>
      <point x="1108" y="517" type="curve"/>
      <point x="1185" y="917" type="line"/>
      <point x="1091" y="917" type="line"/>
      <point x="1070" y="835" type="line"/>
      <point x="1066" y="835" type="line"/>
      <point x="1027" y="902"/>
      <point x="971" y="933"/>
      <point x="899" y="933" type="curve" smooth="yes"/>
      <point x="659" y="933"/>
      <point x="511" y="675"/>
      <point x="511" y="465" type="curve" smooth="yes"/>
      <point x="511" y="278"/>
      <point x="617" y="180"/>
      <point x="752" y="180" type="curve" smooth="yes" name="hr02"/>
      <point x="844" y="180"/>
      <point x="932" y="240"/>
      <point x="1002" y="320" type="curve"/>
      <point x="1006" y="320" type="line"/>
      <point x="1018" y="217"/>
      <point x="1102" y="165"/>
      <point x="1212" y="165" type="curve" smooth="yes" name="hr03"/>
      <point x="1391" y="165"/>
      <point x="1603" y="350"/>
      <point x="1603" y="704" type="curve" smooth="yes"/>
      <point x="1603" y="1102"/>
      <point x="1349" y="1370"/>
      <point x="942" y="1370" type="curve" smooth="yes"/>
      <point x="495" y="1370"/>
      <point x="105" y="1017"/>
    </contour>
    <contour>
      <point x="624" y="473" type="curve" smooth="yes" name="hr04"/>
      <point x="624" y="634"/>
      <point x="728" y="834"/>
      <point x="900" y="834" type="curve" smooth="yes"/>
      <point x="958" y="834"/>
      <point x="996" y="811"/>
      <point x="1039" y="742" type="curve"/>
      <point x="978" y="405" type="line"/>
      <point x="903" y="317"/>
      <point x="837" y="277"/>
      <point x="776" y="277" type="curve" smooth="yes"/>
      <point x="690" y="277"/>
      <point x="624" y="332"/>
    </contour>
  </outline>
</glyph>
<glyph name="A" format="1">
  <advance width="1086"/>
  <unicode hex="0041"/>
  <outline>
    <contour>
      <point x="323" y="545" type="line" name="hr00"/>
      <point x="398" y="770" type="line"/>
      <point x="448" y="923"/>
      <point x="493" y="1068"/>
      <point x="537" y="1228" type="curve"/>
      <point x="546" y="1228" type="line"/>
      <point x="590" y="1068"/>
      <point x="636" y="923"/>
      <point x="685" y="770" type="curve" smooth="yes"/>
      <point x="758" y="545" type="line"/>
    </contour>
    <contour>
      <point x="935" y="0" type="line"/>
      <point x="1083" y="0" type="line"/>
      <point x="620" y="1346" type="line"/>
      <point x="467" y="1346" type="line"/>
      <point x="3" y="0" type="line"/>
      <point x="145" y="0" type="line"/>
      <point x="286" y="432" type="line"/>
      <point x="795" y="432" type="line"/>
    </contour>
    <contour>
      <point x="543" y="1050" type="move" name="top"/>
    </contour>
  </outline>
</glyph>
<glyph name="B" format="1">
  <advance width="1184"/>
  <unicode hex="0042"/>
  <outline>
    <contour>
      <point x="184" y="0" type="line"/>
      <point x="602" y="0" type="line"/>
      <point x="903" y="0"/>
      <point x="1103" y="131"/>
      <point x="1103" y="395" type="curve" smooth="yes"/>
      <point x="1103" y="583"/>
      <point x="985" y="696"/>
      <point x="787" y="717" type="curve"/>
      <point x="787" y="725" type="line"/>
      <point x="956" y="762"/>
      <point x="1024" y="883"/>
      <point x="1024" y="1021" type="curve" smooth="yes"/>
      <point x="1024" y="1255"/>
      <point x="846" y="1346"/>
      <point x="575" y="1346" type="curve" smooth="yes"/>
      <point x="184" y="1346" type="line"/>
    </contour>
    <contour>
      <point x="324" y="764" type="line"/>
      <point x="324" y="1234" type="line"/>
      <point x="551" y="1234" type="line"/>
      <point x="775" y="1234"/>
      <point x="886" y="1172"/>
      <point x="886" y="1013" type="curve" smooth="yes"/>
      <point x="886" y="850"/>
      <point x="788" y="764"/>
      <point x="540" y="764" type="curve" smooth="yes"/>
    </contour>
    <contour>
      <point x="324" y="112" type="line"/>
      <point x="324" y="658" type="line"/>
      <point x="577" y="658" type="line"/>
      <point x="829" y="658"/>
      <point x="966" y="579"/>
      <point x="966" y="400" type="curve" smooth="yes"/>
      <point x="966" y="202"/>
      <point x="822" y="112"/>
      <point x="577" y="112" type="curve" smooth="yes"/>
    </contour>
    <contour>
      <point x="567" y="1050" type="move" name="top"/>
    </contour>
  </outline>
</glyph>
<glyph name="C" format="1">
  <advance width="1152"/>
  <unicode hex="0043"/>
  <outline>
    <contour>
      <point x="102" y="674" type="curve" smooth="yes"/>
      <point x="102" y="231"/>
      <point x="343" y="-25"/>
      <point x="679" y="-25" type="curve" smooth="yes"/>
      <point x="851" y="-25"/>
      <point x="981" y="46"/>
      <point x="1085" y="167" type="curve"/>
      <point x="1005" y="253" type="line"/>
      <point x="914" y="151"/>
      <point x="815" y="99"/>
      <point x="683" y="99" type="curve" smooth="yes"/>
      <point x="413" y="99"/>
      <point x="246" y="318"/>
      <point x="246" y="678" type="curve" smooth="yes"/>
      <point x="246" y="1035"/>
      <point x="419" y="1247"/>
      <point x="691" y="1247" type="curve" smooth="yes"/>
      <point x="807" y="1247"/>
      <point x="901" y="1197"/>
      <point x="973" y="1119" type="curve"/>
      <point x="1053" y="1208" type="line"/>
      <point x="976" y="1294"/>
      <point x="849" y="1370"/>
      <point x="690" y="1370" type="curve" smooth="yes"/>
      <point x="346" y="1370"/>
      <point x="102" y="1114"/>
    </contour>
    <contour>
      <point x="679" y="1050" type="move" name="top"/>
    </contour>
  </outline>
</glyph>
<glyph name="G" format="1">
  <advance width="1241"/>
  <unicode hex="0047"/>
  <outline>
    <contour>
      <point x="102" y="673" type="curve" smooth="yes"/>
      <point x="102" y="227"/>
      <point x="346" y="-25"/>
      <point x="696" y="-25" type="curve" smooth="yes"/>
      <point x="875" y="-25"/>
      <point x="1020" y="43"/>
      <point x="1106" y="130" type="curve"/>
      <point x="1106" y="683" type="line"/>
      <point x="683" y="683" type="line"/>
      <point x="683" y="567" type="line"/>
      <point x="978" y="567" type="line"/>
      <point x="978" y="188" type="line"/>
      <point x="919" y="132"/>
      <point x="817" y="99"/>
      <point x="710" y="99" type="curve" smooth="yes"/>
      <point x="415" y="99"/>
      <point x="247" y="315"/>
      <point x="247" y="675" type="curve" smooth="yes"/>
      <point x="247" y="1041"/>
      <point x="427" y="1247"/>
      <point x="714" y="1247" type="curve" smooth="yes"/>
      <point x="854" y="1247"/>
      <point x="942" y="1196"/>
      <point x="1010" y="1123" type="curve"/>
      <point x="1091" y="1212" type="line"/>
      <point x="1014" y="1292"/>
      <point x="896" y="1370"/>
      <point x="713" y="1370" type="curve" smooth="yes"/>
      <point x="354" y="1370"/>
      <point x="102" y="1124"/>
    </contour>
    <contour>
      <point x="702" y="1050" type="move" name="top"/>
    </contour>
  </outline>
</glyph>
<glyph name="I" format="1">
  <advance width="507"/>
  <unicode hex="0049"/>
  <outline>
    <contour>
      <point x="184" y="0" type="line"/>
      <point x="324" y="0" type="line"/>
      <point x="324" y="1346" type="line"/>
      <point x="184" y="1346" type="line"/>
    </contour>
    <contour>
      <point x="254" y="1050" type="move" name="top"/>
    </contour>
  </outline>
</glyph>
<glyph name="M" format="1">
  <advance width="1460"/>
  <unicode hex="004D"/>
  <outline>
    <contour>
      <point x="178" y="0" type="line"/>
      <point x="307" y="0" type="line"/>
      <point x="307" y="800" type="line"/>
      <point x="307" y="915"/>
      <point x="303" y="1068"/>
      <point x="296" y="1184" type="curve"/>
      <point x="304" y="1184" type="line"/>
      <point x="411" y="886" type="line"/>
      <point x="682" y="140" type="line"/>
      <point x="774" y="140" type="line"/>
      <point x="1044" y="886" type="line"/>
      <point x="1150" y="1184" type="line"/>
      <point x="1158" y="1184" type="line"/>
      <point x="1151" y="1068"/>
      <point x="1146" y="915"/>
      <point x="1146" y="800" type="curve" smooth="yes"/>
      <point x="1148" y="0" type="line"/>
      <point x="1280" y="0" type="line"/>
      <point x="1267" y="1346" type="line"/>
      <point x="1100" y="1346" type="line"/>
      <point x="834" y="596" type="line"/>
      <point x="735" y="311" type="line"/>
      <point x="727" y="311" type="line"/>
      <point x="627" y="596" type="line"/>
      <point x="358" y="1346" type="line"/>
      <point x="190" y="1346" type="line"/>
    </contour>
    <contour>
      <point x="729" y="1050" type="move" name="top"/>
    </contour>
  </outline>
</glyph>
<glyph name="N" format="1">
  <advance width="1304"/>
  <unicode hex="004E"/>
  <outline>
    <contour>
      <point x="184" y="0" type="line"/>
      <point x="316" y="0" type="line"/>
      <point x="316" y="758" type="line"/>
      <point x="316" y="895"/>
      <point x="306" y="1030"/>
      <point x="298" y="1163" type="curve"/>
      <point x="307" y="1163" type="line"/>
      <point x="455" y="889" type="line"/>
      <point x="974" y="0" type="line"/>
      <point x="1119" y="0" type="line"/>
      <point x="1119" y="1346" type="line"/>
      <point x="987" y="1346" type="line"/>
      <point x="987" y="597" type="line"/>
      <point x="987" y="460"/>
      <point x="998" y="317"/>
      <point x="1005" y="183" type="curve"/>
      <point x="997" y="183" type="line"/>
      <point x="849" y="458" type="line"/>
      <point x="328" y="1346" type="line"/>
      <point x="184" y="1346" type="line"/>
    </contour>
    <contour>
      <point x="651" y="1050" type="move" name="top"/>
    </contour>
  </outline>
</glyph>
<glyph name="P" format="1">
  <advance width="1152"/>
  <unicode hex="0050"/>
  <outline>
    <contour>
      <point x="184" y="0" type="line"/>
      <point x="324" y="0" type="line"/>
      <point x="324" y="540" type="line"/>
      <point x="587" y="540" type="line"/>
      <point x="888" y="540"/>
      <point x="1068" y="679"/>
      <point x="1068" y="954" type="curve" smooth="yes"/>
      <point x="1068" y="1242"/>
      <point x="890" y="1346"/>
      <point x="585" y="1346" type="curve" smooth="yes"/>
      <point x="184" y="1346" type="line"/>
    </contour>
    <contour>
      <point x="324" y="655" type="line"/>
      <point x="324" y="1232" type="line"/>
      <point x="562" y="1232" type="line"/>
      <point x="817" y="1232"/>
      <point x="929" y="1162"/>
      <point x="929" y="954" type="curve" smooth="yes"/>
      <point x="929" y="751"/>
      <point x="822" y="655"/>
      <point x="564" y="655" type="curve" smooth="yes"/>
    </contour>
    <contour>
      <point x="550" y="1050" type="move" name="top"/>
    </contour>
  </outline>
</glyph>
<glyph name="U" format="1">
  <advance width="1300"/>
  <unicode hex="0055"/>
  <outline>
    <contour>
      <point x="178" y="534" type="line"/>
      <point x="178" y="110"/>
      <point x="392" y="-25"/>
      <point x="649" y="-25" type="curve" smooth="yes"/>
      <point x="906" y="-25"/>
      <point x="1122" y="108"/>
      <point x="1122" y="534" type="curve" smooth="yes"/>
      <point x="1122" y="1346" type="line"/>
      <point x="989" y="1346" type="line"/>
      <point x="989" y="536" type="line"/>
      <point x="989" y="199"/>
      <point x="835" y="99"/>
      <point x="649" y="99" type="curve" smooth="yes"/>
      <point x="469" y="99"/>
      <point x="318" y="200"/>
      <point x="318" y="536" type="curve" smooth="yes"/>
      <point x="318" y="1346" type="line"/>
      <point x="178" y="1346" type="line"/>
    </contour>
    <contour>
      <point x="650" y="1050" type="move" name="top"/>
    </contour>
  </outline>
</glyph>
<glyph name="asciicircum" format="1">
  <advance width="1003"/>
  <unicode hex="005E"/>
  <outline>
    <contour>
      <point x="128" y="587" type="line" name="hr00"/>
      <point x="251" y="587" type="line"/>
      <point x="394" y="970" type="line"/>
      <point x="497" y="1242" type="line"/>
      <point x="506" y="1242" type="line"/>
      <point x="608" y="970" type="line"/>
      <point x="752" y="587" type="line"/>
      <point x="875" y="587" type="line"/>
      <point x="565" y="1372" type="line"/>
      <point x="437" y="1372" type="line"/>
    </contour>
  </outline>
</glyph>
<glyph name="a" format="1">
  <advance width="1038"/>
  <unicode hex="0061"/>
  <outline>
    <contour>
      <point x="125" y="254" type="curve" smooth="yes" name="hr01"/>
      <point x="125" y="73"/>
      <point x="252" y="-25"/>
      <point x="421" y="-25" type="curve" smooth="yes"/>
      <point x="558" y="-25"/>
      <point x="654" y="43"/>
      <point x="752" y="122" type="curve"/>
      <point x="756" y="122" type="line"/>
      <point x="769" y="0" type="line" name="hr02"/>
      <point x="882" y="0" type="line"/>
      <point x="882" y="618" type="line"/>
      <point x="882" y="859"/>
      <point x="788" y="1015"/>
      <point x="549" y="1015" type="curve" smooth="yes"/>
      <point x="389" y="1015"/>
      <point x="247" y="952"/>
      <point x="164" y="898" type="curve"/>
      <point x="221" y="801" type="line"/>
      <point x="294" y="853"/>
      <point x="405" y="900"/>
      <point x="529" y="900" type="curve" smooth="yes"/>
      <point x="703" y="900"/>
      <point x="748" y="775"/>
      <point x="746" y="625" type="curve"/>
      <point x="314" y="593"/>
      <point x="125" y="471"/>
    </contour>
    <contour>
      <point x="261" y="262" type="curve" smooth="yes"/>
      <point x="261" y="401"/>
      <point x="382" y="504"/>
      <point x="746" y="531" type="curve"/>
      <point x="746" y="231" type="line"/>
      <point x="640" y="138"/>
      <point x="558" y="87"/>
      <point x="455" y="87" type="curve" smooth="yes"/>
      <point x="344" y="87"/>
      <point x="261" y="138"/>
    </contour>
    <contour>
      <point x="516" y="0" type="move" name="_bottom"/>
    </contour>
    <contour>
      <point x="503" y="1050" type="move" name="top"/>
    </contour>
  </outline>
</glyph>
<glyph name="b" format="1">
  <advance width="1128"/>
  <unicode hex="0062"/>
  <outline>
    <contour>
      <point x="176" y="0" type="line"/>
      <point x="287" y="0" type="line"/>
      <point x="299" y="96" type="line"/>
      <point x="306" y="96" type="line"/>
      <point x="395" y="20"/>
      <point x="501" y="-25"/>
      <point x="596" y="-25" type="curve" smooth="yes"/>
      <point x="831" y="-25"/>
      <point x="1026" y="166"/>
      <point x="1026" y="509" type="curve" smooth="yes"/>
      <point x="1026" y="820"/>
      <point x="901" y="1015"/>
      <point x="634" y="1015" type="curve" smooth="yes"/>
      <point x="517" y="1015"/>
      <point x="403" y="952"/>
      <point x="308" y="870" type="curve"/>
      <point x="313" y="1055" type="line"/>
      <point x="313" y="1464" type="line"/>
      <point x="176" y="1464" type="line"/>
    </contour>
    <contour>
      <point x="313" y="205" type="curve"/>
      <point x="313" y="752" type="line"/>
      <point x="416" y="847"/>
      <point x="511" y="899"/>
      <point x="604" y="899" type="curve" smooth="yes"/>
      <point x="811" y="899"/>
      <point x="883" y="740"/>
      <point x="883" y="508" type="curve" smooth="yes"/>
      <point x="883" y="250"/>
      <point x="759" y="92"/>
      <point x="577" y="92" type="curve" smooth="yes"/>
      <point x="506" y="92"/>
      <point x="409" y="122"/>
    </contour>
    <contour>
      <point x="718" y="1050" type="move" name="top"/>
    </contour>
  </outline>
</glyph>
<glyph name="c" format="1">
  <advance width="928"/>
  <unicode hex="0063"/>
  <outline>
    <contour>
      <point x="99" y="495" type="curve" smooth="yes"/>
      <point x="99" y="159"/>
      <point x="296" y="-25"/>
      <point x="556" y="-25" type="curve" smooth="yes"/>
      <point x="677" y="-25"/>
      <point x="784" y="22"/>
      <point x="871" y="99" type="curve"/>
      <point x="807" y="190" type="line"/>
      <point x="745" y="133"/>
      <point x="665" y="90"/>
      <point x="566" y="90" type="curve" smooth="yes"/>
      <point x="370" y="90"/>
      <point x="240" y="249"/>
      <point x="240" y="495" type="curve" smooth="yes"/>
      <point x="240" y="744"/>
      <point x="380" y="900"/>
      <point x="569" y="900" type="curve" smooth="yes"/>
      <point x="655" y="900"/>
      <point x="723" y="862"/>
      <point x="785" y="807" type="curve"/>
      <point x="856" y="897" type="line"/>
      <point x="789" y="960"/>
      <point x="697" y="1015"/>
      <point x="564" y="1015" type="curve" smooth="yes"/>
      <point x="314" y="1015"/>
      <point x="99" y="836"/>
    </contour>
    <contour>
      <point x="564" y="1050" type="move" name="top"/>
    </contour>
  </outline>
</glyph>
<glyph name="h" format="1">
  <advance width="1100"/>
  <unicode hex="0068"/>
  <outline>
    <contour>
      <point x="176" y="0" type="line"/>
      <point x="313" y="0" type="line"/>
      <point x="313" y="729" type="line"/>
      <point x="421" y="839"/>
      <point x="497" y="895"/>
      <point x="605" y="895" type="curve" smooth="yes"/>
      <point x="751" y="895"/>
      <point x="808" y="810"/>
      <point x="808" y="614" type="curve" smooth="yes"/>
      <point x="808" y="0" type="line"/>
      <point x="944" y="0" type="line"/>
      <point x="944" y="633" type="line"/>
      <point x="944" y="887"/>
      <point x="854" y="1015"/>
      <point x="644" y="1015" type="curve" smooth="yes"/>
      <point x="507" y="1015"/>
      <point x="406" y="940"/>
      <point x="309" y="845" type="curve"/>
      <point x="313" y="1055" type="line"/>
      <point x="313" y="1464" type="line"/>
      <point x="176" y="1464" type="line"/>
    </contour>
    <contour>
      <point x="560" y="1050" type="move" name="top"/>
    </contour>
  </outline>
</glyph>
<glyph name="i" format="1">
  <advance width="490"/>
  <unicode hex="0069"/>
  <outline>
    <contour>
      <point x="247" y="1209" type="curve" smooth="yes"/>
      <point x="303" y="1209"/>
      <point x="349" y="1248"/>
      <point x="349" y="1305" type="curve" smooth="yes"/>
      <point x="349" y="1365"/>
      <point x="303" y="1403"/>
      <point x="247" y="1403" type="curve" smooth="yes"/>
      <point x="189" y="1403"/>
      <point x="144" y="1365"/>
      <point x="144" y="1305" type="curve" smooth="yes"/>
      <point x="144" y="1248"/>
      <point x="189" y="1209"/>
    </contour>
    <contour>
      <point x="176" y="0" type="line"/>
      <point x="313" y="0" type="line"/>
      <point x="313" y="990" type="line"/>
      <point x="176" y="990" type="line"/>
    </contour>
    <contour>
      <point x="246" y="1050" type="move" name="top"/>
    </contour>
  </outline>
</glyph>
<glyph name="j" format="1">
  <advance width="491"/>
  <unicode hex="006A"/>
  <outline>
    <contour>
      <point x="177" y="-142" type="line" name="hr01"/>
      <point x="177" y="-264"/>
      <point x="154" y="-341"/>
      <point x="51" y="-341" type="curve" smooth="yes"/>
      <point x="14" y="-341"/>
      <point x="-22" y="-332"/>
      <point x="-46" y="-324" type="curve"/>
      <point x="-76" y="-429" type="line" name="hr02"/>
      <point x="-43" y="-442"/>
      <point x="7" y="-454"/>
      <point x="63" y="-454" type="curve" smooth="yes" name="hr03"/>
      <point x="242" y="-454"/>
      <point x="315" y="-343"/>
      <point x="315" y="-145" type="curve" smooth="yes"/>
      <point x="315" y="990" type="line"/>
      <point x="177" y="990" type="line"/>
    </contour>
    <contour>
      <point x="248" y="1209" type="curve" smooth="yes" name="hr04"/>
      <point x="303" y="1209"/>
      <point x="350" y="1248"/>
      <point x="350" y="1305" type="curve" smooth="yes"/>
      <point x="350" y="1365"/>
      <point x="303" y="1403"/>
      <point x="248" y="1403" type="curve" smooth="yes"/>
      <point x="191" y="1403"/>
      <point x="145" y="1365"/>
      <point x="145" y="1305" type="curve" smooth="yes"/>
      <point x="145" y="1248"/>
      <point x="191" y="1209"/>
    </contour>
    <contour>
      <point x="137" y="1050" type="move" name="top"/>
    </contour>
  </outline>
</glyph>
<glyph name="l" format="1">
  <advance width="507"/>
  <unicode hex="006C"/>
  <outline>
    <contour>
      <point x="176" y="172" type="line"/>
      <point x="176" y="43"/>
      <point x="223" y="-25"/>
      <point x="331" y="-25" type="curve" smooth="yes"/>
      <point x="369" y="-25"/>
      <point x="394" y="-19"/>
      <point x="415" y="-10" type="curve"/>
      <point x="395" y="94" type="line"/>
      <point x="375" y="90"/>
      <point x="367" y="90"/>
      <point x="358" y="90" type="curve" smooth="yes"/>
      <point x="333" y="90"/>
      <point x="313" y="111"/>
      <point x="313" y="160" type="curve" smooth="yes"/>
      <point x="313" y="1464" type="line"/>
      <point x="176" y="1464" type="line"/>
    </contour>
    <contour>
      <point x="295" y="1050" type="move" name="top"/>
    </contour>
    <contour>
      <point x="254" y="0" type="move" name="bottom"/>
    </contour>
    <contour>
      <point x="487" y="1140" type="move" name="topright"/>
    </contour>
  </outline>
</glyph>
<glyph name="q" format="1">
  <advance width="1115"/>
  <unicode hex="0071"/>
  <outline>
    <contour>
      <point x="100" y="492" type="curve" smooth="yes"/>
      <point x="100" y="154"/>
      <point x="257" y="-25"/>
      <point x="511" y="-25" type="curve" smooth="yes"/>
      <point x="635" y="-25"/>
      <point x="737" y="40"/>
      <point x="821" y="117" type="curve"/>
      <point x="814" y="-66" type="line"/>
      <point x="814" y="-430" type="line"/>
      <point x="951" y="-430" type="line"/>
      <point x="951" y="990" type="line"/>
      <point x="841" y="990" type="line"/>
      <point x="826" y="898" type="line"/>
      <point x="822" y="898" type="line"/>
      <point x="731" y="973"/>
      <point x="654" y="1015"/>
      <point x="535" y="1015" type="curve" smooth="yes"/>
      <point x="301" y="1015"/>
      <point x="100" y="819"/>
    </contour>
    <contour>
      <point x="243" y="493" type="curve" smooth="yes"/>
      <point x="243" y="733"/>
      <point x="377" y="899"/>
      <point x="555" y="899" type="curve" smooth="yes"/>
      <point x="645" y="899"/>
      <point x="722" y="868"/>
      <point x="814" y="785" type="curve"/>
      <point x="814" y="239" type="line"/>
      <point x="723" y="142"/>
      <point x="640" y="92"/>
      <point x="539" y="92" type="curve" smooth="yes"/>
      <point x="346" y="92"/>
      <point x="243" y="241"/>
    </contour>
    <contour>
      <point x="525" y="1050" type="move" name="top"/>
    </contour>
  </outline>
</glyph>
<glyph name="s" format="1">
  <advance width="846"/>
  <unicode hex="0073"/>
  <outline>
    <contour>
      <point x="64" y="112" type="line"/>
      <point x="156" y="36"/>
      <point x="285" y="-25"/>
      <point x="427" y="-25" type="curve" smooth="yes"/>
      <point x="654" y="-25"/>
      <point x="779" y="106"/>
      <point x="779" y="261" type="curve" smooth="yes"/>
      <point x="779" y="452"/>
      <point x="615" y="510"/>
      <point x="467" y="565" type="curve" smooth="yes"/>
      <point x="353" y="608"/>
      <point x="242" y="654"/>
      <point x="242" y="753" type="curve" smooth="yes"/>
      <point x="242" y="835"/>
      <point x="305" y="906"/>
      <point x="441" y="906" type="curve" smooth="yes"/>
      <point x="534" y="906"/>
      <point x="604" y="870"/>
      <point x="671" y="820" type="curve"/>
      <point x="739" y="909" type="line"/>
      <point x="664" y="970"/>
      <point x="557" y="1015"/>
      <point x="441" y="1015" type="curve" smooth="yes"/>
      <point x="230" y="1015"/>
      <point x="109" y="895"/>
      <point x="109" y="742" type="curve" smooth="yes"/>
      <point x="109" y="574"/>
      <point x="268" y="507"/>
      <point x="412" y="455" type="curve" smooth="yes"/>
      <point x="523" y="414"/>
      <point x="645" y="365"/>
      <point x="645" y="254" type="curve" smooth="yes"/>
      <point x="645" y="160"/>
      <point x="574" y="84"/>
      <point x="433" y="84" type="curve" smooth="yes"/>
      <point x="305" y="84"/>
      <point x="220" y="137"/>
      <point x="135" y="206" type="curve"/>
    </contour>
    <contour>
      <point x="421" y="1050" type="move" name="top"/>
    </contour>
  </outline>
</glyph>
<glyph name="x" format="1">
  <advance width="881"/>
  <unicode hex="0078"/>
  <outline>
    <contour>
      <point x="29" y="0" type="line"/>
      <point x="172" y="0" type="line"/>
      <point x="321" y="246" type="line"/>
      <point x="356" y="308"/>
      <point x="390" y="368"/>
      <point x="426" y="426" type="curve"/>
      <point x="435" y="426" type="line"/>
      <point x="473" y="368"/>
      <point x="511" y="307"/>
      <point x="546" y="246" type="curve"/>
      <point x="703" y="0" type="line"/>
      <point x="852" y="0" type="line"/>
      <point x="524" y="504" type="line"/>
      <point x="827" y="990" type="line"/>
      <point x="684" y="990" type="line"/>
      <point x="550" y="758" type="line"/>
      <point x="518" y="705"/>
      <point x="487" y="649"/>
      <point x="456" y="594" type="curve"/>
      <point x="448" y="594" type="line"/>
      <point x="412" y="649"/>
      <point x="378" y="705"/>
      <point x="347" y="758" type="curve" smooth="yes"/>
      <point x="203" y="990" type="line"/>
      <point x="54" y="990" type="line"/>
      <point x="357" y="518" type="line"/>
    </contour>
    <contour>
      <point x="440" y="1050" type="move" name="top"/>
    </contour>
  </outline>
</glyph>
<glyph name="y" format="1">
  <advance width="930"/>
  <unicode hex="0079"/>
  <outline>
    <contour>
      <point x="88" y="-304" type="curve"/>
      <point x="60" y="-416" type="line"/>
      <point x="90" y="-428"/>
      <point x="128" y="-437"/>
      <point x="170" y="-437" type="curve" smooth="yes"/>
      <point x="361" y="-437"/>
      <point x="461" y="-282"/>
      <point x="525" y="-99" type="curve" smooth="yes"/>
      <point x="906" y="990" type="line"/>
      <point x="769" y="990" type="line"/>
      <point x="579" y="412" type="line"/>
      <point x="552" y="326"/>
      <point x="523" y="222"/>
      <point x="493" y="134" type="curve"/>
      <point x="485" y="134" type="line"/>
      <point x="452" y="223"/>
      <point x="415" y="327"/>
      <point x="384" y="412" type="curve" smooth="yes"/>
      <point x="168" y="990" type="line"/>
      <point x="25" y="990" type="line"/>
      <point x="426" y="-9" type="line"/>
      <point x="401" y="-87" type="line"/>
      <point x="357" y="-222"/>
      <point x="281" y="-320"/>
      <point x="165" y="-320" type="curve" smooth="yes"/>
      <point x="139" y="-320"/>
      <point x="108" y="-312"/>
    </contour>
    <contour>
      <point x="465" y="1050" type="move" name="top"/>
    </contour>
  </outline>
</glyph>
<glyph name="z" format="1">
  <advance width="852"/>
  <unicode hex="007A"/>
  <outline>
    <contour>
      <point x="60" y="0" type="line" name="hr00"/>
      <point x="799" y="0" type="line"/>
      <point x="799" y="114" type="line"/>
      <point x="234" y="114" type="line"/>
      <point x="782" y="918" type="line"/>
      <point x="782" y="990" type="line"/>
      <point x="120" y="990" type="line"/>
      <point x="120" y="877" type="line"/>
      <point x="608" y="877" type="line"/>
      <point x="60" y="73" type="line"/>
    </contour>
    <contour>
      <point x="429" y="1050" type="move" name="top"/>
    </contour>
  </outline>
</glyph>
<glyph name="sterling" format="1">
  <advance width="1003"/>
  <unicode hex="00A3"/>
  <outline>
    <contour>
      <point x="319" y="119" type="line" name="hr01"/>
      <point x="319" y="128" type="line"/>
      <point x="407" y="214"/>
      <point x="455" y="308"/>
      <point x="455" y="462" type="curve" smooth="yes" name="hr02"/>
      <point x="455" y="508"/>
      <point x="450" y="549"/>
      <point x="442" y="591" type="curve"/>
      <point x="733" y="591" type="line"/>
      <point x="733" y="688" type="line"/>
      <point x="419" y="688" type="line" name="hr03"/>
      <point x="393" y="782"/>
      <point x="364" y="869"/>
      <point x="364" y="964" type="curve" smooth="yes"/>
      <point x="364" y="1110"/>
      <point x="447" y="1216"/>
      <point x="603" y="1216" type="curve" smooth="yes"/>
      <point x="702" y="1216"/>
      <point x="768" y="1173"/>
      <point x="821" y="1108" type="curve"/>
      <point x="904" y="1188" type="line" name="hr04"/>
      <point x="836" y="1272"/>
      <point x="740" y="1332"/>
      <point x="596" y="1332" type="curve" smooth="yes" name="hr05"/>
      <point x="373" y="1332"/>
      <point x="228" y="1192"/>
      <point x="228" y="967" type="curve" smooth="yes"/>
      <point x="228" y="873"/>
      <point x="260" y="781"/>
      <point x="288" y="688" type="curve"/>
      <point x="246" y="688" type="line"/>
      <point x="110" y="681" type="line"/>
      <point x="110" y="591" type="line"/>
      <point x="314" y="591" type="line" name="hr06"/>
      <point x="324" y="549"/>
      <point x="330" y="508"/>
      <point x="330" y="464" type="curve" smooth="yes"/>
      <point x="330" y="308"/>
      <point x="257" y="163"/>
      <point x="113" y="83" type="curve"/>
      <point x="113" y="0" type="line"/>
      <point x="925" y="0" type="line"/>
      <point x="925" y="119" type="line"/>
    </contour>
  </outline>
</glyph>
<glyph name="brokenbar" format="1">
  <advance width="481"/>
  <unicode hex="00A6"/>
  <outline>
    <contour>
      <point x="191" y="586" type="line" name="hr00"/>
      <point x="291" y="586" type="line"/>
      <point x="291" y="1536" type="line"/>
      <point x="191" y="1536" type="line"/>
    </contour>
    <contour>
      <point x="191" y="443" type="line"/>
      <point x="191" y="-512" type="line"/>
      <point x="291" y="-512" type="line"/>
      <point x="291" y="443" type="line"/>
    </contour>
  </outline>
</glyph>
<glyph name="dieresis" format="1">
  <advance width="1104"/>
  <unicode hex="00A8"/>
  <outline>
    <contour>
      <point x="382" y="1213" type="curve" smooth="yes" name="hr00"/>
      <point x="433" y="1213"/>
      <point x="472" y="1251"/>
      <point x="472" y="1303" type="curve" smooth="yes"/>
      <point x="472" y="1353"/>
      <point x="433" y="1392"/>
      <point x="382" y="1392" type="curve" smooth="yes"/>
      <point x="331" y="1392"/>
      <point x="292" y="1353"/>
      <point x="292" y="1303" type="curve" smooth="yes"/>
      <point x="292" y="1251"/>
      <point x="331" y="1213"/>
    </contour>
    <contour>
      <point x="722" y="1213" type="curve" smooth="yes"/>
      <point x="775" y="1213"/>
      <point x="812" y="1251"/>
      <point x="812" y="1303" type="curve" smooth="yes"/>
      <point x="812" y="1353"/>
      <point x="775" y="1392"/>
      <point x="722" y="1392" type="curve" smooth="yes"/>
      <point x="671" y="1392"/>
      <point x="634" y="1353"/>
      <point x="634" y="1303" type="curve" smooth="yes"/>
      <point x="634" y="1251"/>
      <point x="671" y="1213"/>
    </contour>
    <contour>
      <point x="552" y="1050" type="move" name="_top"/>
    </contour>
  </outline>
</glyph>
<glyph name="paragraph" format="1">
  <advance width="1109"/>
  <unicode hex="00B6"/>
  <outline>
    <contour>
      <point x="772" y="-164" type="line" name="hr00"/>
      <point x="912" y="-164" type="line"/>
      <point x="912" y="1346" type="line"/>
      <point x="772" y="1346" type="line"/>
    </contour>
    <contour>
      <point x="598" y="478" type="curve"/>
      <point x="645" y="478" type="line"/>
      <point x="645" y="1346" type="line"/>
      <point x="572" y="1346" type="line"/>
      <point x="290" y="1346"/>
      <point x="85" y="1230"/>
      <point x="85" y="914" type="curve" smooth="yes"/>
      <point x="85" y="606"/>
      <point x="300" y="478"/>
    </contour>
  </outline>
</glyph>
<glyph name="Thorn" format="1">
  <advance width="1176"/>
  <unicode hex="00DE"/>
  <outline>
    <contour>
      <point x="187" y="0" type="line"/>
      <point x="325" y="0" type="line"/>
      <point x="325" y="321" type="line"/>
      <point x="580" y="321" type="line"/>
      <point x="878" y="321"/>
      <point x="1070" y="451"/>
      <point x="1070" y="727" type="curve" smooth="yes"/>
      <point x="1070" y="1014"/>
      <point x="879" y="1115"/>
      <point x="580" y="1115" type="curve" smooth="yes"/>
      <point x="325" y="1115" type="line"/>
      <point x="325" y="1346" type="line"/>
      <point x="187" y="1346" type="line"/>
    </contour>
    <contour>
      <point x="325" y="435" type="line"/>
      <point x="325" y="1000" type="line"/>
      <point x="558" y="1000" type="line"/>
      <point x="808" y="1000"/>
      <point x="930" y="933"/>
      <point x="930" y="727" type="curve" smooth="yes"/>
      <point x="930" y="523"/>
      <point x="809" y="435"/>
      <point x="558" y="435" type="curve" smooth="yes"/>
    </contour>
    <contour>
      <point x="628" y="1050" type="move" name="top"/>
    </contour>
  </outline>
</glyph>
<glyph name="ae" format="1">
  <advance width="1607"/>
  <unicode hex="00E6"/>
  <outline>
    <contour>
      <point x="261" y="262" type="curve" smooth="yes" name="hr01"/>
      <point x="261" y="401"/>
      <point x="392" y="489"/>
      <point x="735" y="527" type="curve"/>
      <point x="736" y="478" type="line"/>
      <point x="736" y="395"/>
      <point x="751" y="310"/>
      <point x="777" y="256" type="curve"/>
      <point x="677" y="148"/>
      <point x="547" y="87"/>
      <point x="449" y="87" type="curve" smooth="yes"/>
      <point x="344" y="87"/>
      <point x="261" y="138"/>
    </contour>
    <contour>
      <point x="227" y="800" type="line" name="hr02"/>
      <point x="300" y="851"/>
      <point x="407" y="900"/>
      <point x="521" y="900" type="curve" smooth="yes"/>
      <point x="697" y="900"/>
      <point x="737" y="757"/>
      <point x="736" y="621" type="curve"/>
      <point x="318" y="585"/>
      <point x="125" y="470"/>
      <point x="125" y="252" type="curve" smooth="yes"/>
      <point x="125" y="71"/>
      <point x="252" y="-25"/>
      <point x="415" y="-25" type="curve" smooth="yes"/>
      <point x="541" y="-25"/>
      <point x="691" y="46"/>
      <point x="824" y="169" type="curve"/>
      <point x="898" y="68"/>
      <point x="1005" y="-25"/>
      <point x="1175" y="-25" type="curve" smooth="yes"/>
      <point x="1314" y="-25"/>
      <point x="1407" y="24"/>
      <point x="1490" y="76" type="curve"/>
      <point x="1438" y="174" type="line"/>
      <point x="1364" y="124"/>
      <point x="1291" y="89"/>
      <point x="1190" y="89" type="curve" smooth="yes"/>
      <point x="1009" y="89"/>
      <point x="869" y="242"/>
      <point x="865" y="466" type="curve"/>
      <point x="1524" y="466" type="line"/>
      <point x="1528" y="490"/>
      <point x="1529" y="520"/>
      <point x="1529" y="552" type="curve" smooth="yes"/>
      <point x="1529" y="838"/>
      <point x="1406" y="1015"/>
      <point x="1168" y="1015" type="curve" smooth="yes" name="hr03"/>
      <point x="1017" y="1015"/>
      <point x="898" y="927"/>
      <point x="822" y="790" type="curve"/>
      <point x="784" y="927"/>
      <point x="700" y="1015"/>
      <point x="537" y="1015" type="curve" smooth="yes"/>
      <point x="389" y="1015"/>
      <point x="253" y="952"/>
      <point x="170" y="897" type="curve"/>
    </contour>
    <contour>
      <point x="865" y="561" type="line"/>
      <point x="883" y="768"/>
      <point x="1005" y="905"/>
      <point x="1165" y="905" type="curve" smooth="yes"/>
      <point x="1326" y="905"/>
      <point x="1407" y="785"/>
      <point x="1407" y="561" type="curve"/>
    </contour>
    <contour>
      <point x="827" y="1050" type="move" name="top"/>
    </contour>
  </outline>
</glyph>
<glyph name="ccedilla" format="1">
  <advance width="928"/>
  <unicode hex="00E7"/>
  <outline>
    <contour>
      <point x="602" y="-21" type="line" name="hr01"/>
      <point x="705" y="-12"/>
      <point x="800" y="37"/>
      <point x="877" y="105" type="curve"/>
      <point x="813" y="196" type="line"/>
      <point x="751" y="139"/>
      <point x="667" y="90"/>
      <point x="568" y="90" type="curve" smooth="yes" name="hr02"/>
      <point x="372" y="90"/>
      <point x="241" y="253"/>
      <point x="241" y="493" type="curve" smooth="yes"/>
      <point x="241" y="735"/>
      <point x="381" y="900"/>
      <point x="571" y="900" type="curve" smooth="yes"/>
      <point x="657" y="900"/>
      <point x="723" y="860"/>
      <point x="785" y="805" type="curve"/>
      <point x="856" y="895" type="line"/>
      <point x="789" y="958"/>
      <point x="699" y="1015"/>
      <point x="566" y="1015" type="curve" smooth="yes"/>
      <point x="316" y="1015"/>
      <point x="99" y="825"/>
      <point x="99" y="493" type="curve" smooth="yes"/>
      <point x="99" y="187"/>
      <point x="273" y="2"/>
      <point x="506" y="-21" type="curve"/>
      <point x="438" y="-153" type="line"/>
      <point x="520" y="-173"/>
      <point x="572" y="-200"/>
      <point x="572" y="-256" type="curve" smooth="yes"/>
      <point x="572" y="-312"/>
      <point x="495" y="-342"/>
      <point x="386" y="-357" type="curve"/>
      <point x="402" y="-432" type="line"/>
      <point x="548" y="-417"/>
      <point x="682" y="-363"/>
      <point x="682" y="-250" type="curve" smooth="yes"/>
      <point x="682" y="-166"/>
      <point x="627" y="-128"/>
      <point x="560" y="-106" type="curve"/>
    </contour>
  </outline>
</glyph>
<glyph name="divide" format="1">
  <advance width="1003"/>
  <unicode hex="00F7"/>
  <outline>
    <contour>
      <point x="501" y="945" type="curve" smooth="yes"/>
      <point x="556" y="945"/>
      <point x="599" y="985"/>
      <point x="599" y="1044" type="curve" smooth="yes"/>
      <point x="599" y="1101"/>
      <point x="556" y="1141"/>
      <point x="501" y="1141" type="curve" smooth="yes"/>
      <point x="446" y="1141"/>
      <point x="403" y="1101"/>
      <point x="403" y="1044" type="curve" smooth="yes"/>
      <point x="403" y="985"/>
      <point x="446" y="945"/>
    </contour>
    <contour>
      <point x="403" y="307" type="curve" smooth="yes"/>
      <point x="403" y="248"/>
      <point x="446" y="208"/>
      <point x="501" y="208" type="curve" smooth="yes"/>
      <point x="556" y="208"/>
      <point x="599" y="248"/>
      <point x="599" y="307" type="curve" smooth="yes"/>
      <point x="599" y="364"/>
      <point x="556" y="404"/>
      <point x="501" y="404" type="curve" smooth="yes"/>
      <point x="446" y="404"/>
      <point x="403" y="364"/>
    </contour>
    <contour>
      <point x="70" y="622" type="line"/>
      <point x="933" y="622" type="line"/>
      <point x="933" y="729" type="line"/>
      <point x="70" y="729" type="line"/>
    </contour>
  </outline>
</glyph>
<glyph name="oslash" format="1">
  <advance width="1104"/>
  <unicode hex="00F8"/>
  <outline>
    <contour>
      <point x="810" y="742" type="line" name="hr00"/>
      <point x="849" y="674"/>
      <point x="869" y="589"/>
      <point x="869" y="488" type="curve" smooth="yes"/>
      <point x="869" y="250"/>
      <point x="734" y="87"/>
      <point x="552" y="87" type="curve" smooth="yes"/>
      <point x="471" y="87"/>
      <point x="399" y="119"/>
      <point x="344" y="176" type="curve"/>
    </contour>
    <contour>
      <point x="293" y="247" type="line"/>
      <point x="255" y="314"/>
      <point x="235" y="399"/>
      <point x="235" y="499" type="curve" smooth="yes"/>
      <point x="235" y="738"/>
      <point x="370" y="903"/>
      <point x="552" y="903" type="curve" smooth="yes"/>
      <point x="634" y="903"/>
      <point x="706" y="871"/>
      <point x="760" y="812" type="curve"/>
    </contour>
    <contour>
      <point x="1010" y="983" type="line"/>
      <point x="944" y="1035" type="line"/>
      <point x="839" y="908" type="line"/>
      <point x="759" y="978"/>
      <point x="657" y="1015"/>
      <point x="552" y="1015" type="curve" smooth="yes"/>
      <point x="311" y="1015"/>
      <point x="99" y="825"/>
      <point x="99" y="493" type="curve" smooth="yes"/>
      <point x="99" y="348"/>
      <point x="141" y="231"/>
      <point x="208" y="143" type="curve"/>
      <point x="94" y="6" type="line"/>
      <point x="161" y="-46" type="line"/>
      <point x="265" y="82" type="line"/>
      <point x="345" y="12"/>
      <point x="446" y="-25"/>
      <point x="552" y="-25" type="curve" smooth="yes"/>
      <point x="793" y="-25"/>
      <point x="1005" y="165"/>
      <point x="1005" y="493" type="curve" smooth="yes"/>
      <point x="1005" y="640"/>
      <point x="963" y="759"/>
      <point x="896" y="847" type="curve"/>
    </contour>
  </outline>
</glyph>
<glyph name="Eogonek" format="1">
  <advance width="1056"/>
  <unicode hex="0118"/>
  <outline>
    <contour>
      <point x="184" y="0" type="line"/>
      <point x="808" y="0" type="line"/>
      <point x="730" y="-50"/>
      <point x="657" y="-144"/>
      <point x="657" y="-254" type="curve" smooth="yes"/>
      <point x="657" y="-370"/>
      <point x="739" y="-428"/>
      <point x="843" y="-428" type="curve" smooth="yes"/>
      <point x="894" y="-428"/>
      <point x="958" y="-403"/>
      <point x="994" y="-375" type="curve"/>
      <point x="952" y="-297" type="line"/>
      <point x="926" y="-317"/>
      <point x="902" y="-326"/>
      <point x="868" y="-326" type="curve" smooth="yes"/>
      <point x="817" y="-326"/>
      <point x="767" y="-294"/>
      <point x="767" y="-227" type="curve" smooth="yes"/>
      <point x="767" y="-114"/>
      <point x="866" y="-14"/>
      <point x="958" y="0" type="curve" smooth="yes"/>
      <point x="964" y="0" type="line"/>
      <point x="964" y="119" type="line"/>
      <point x="324" y="119" type="line"/>
      <point x="324" y="651" type="line"/>
      <point x="845" y="651" type="line"/>
      <point x="845" y="770" type="line"/>
      <point x="324" y="770" type="line"/>
      <point x="324" y="1228" type="line"/>
      <point x="943" y="1228" type="line"/>
      <point x="943" y="1346" type="line"/>
      <point x="184" y="1346" type="line"/>
    </contour>
  </outline>
</glyph>
<glyph name="hcircumflex" format="1">
  <advance width="1100"/>
  <unicode hex="0125"/>
  <outline>
    <contour>
      <point x="176" y="0" type="line"/>
      <point x="313" y="0" type="line"/>
      <point x="313" y="729" type="line"/>
      <point x="421" y="839"/>
      <point x="497" y="895"/>
      <point x="605" y="895" type="curve" smooth="yes"/>
      <point x="748" y="895"/>
      <point x="808" y="808"/>
      <point x="808" y="612" type="curve" smooth="yes"/>
      <point x="808" y="0" type="line"/>
      <point x="944" y="0" type="line"/>
      <point x="944" y="631" type="line"/>
      <point x="944" y="885"/>
      <point x="850" y="1015"/>
      <point x="644" y="1015" type="curve" smooth="yes"/>
      <point x="507" y="1015"/>
      <point x="406" y="940"/>
      <point x="309" y="845" type="curve"/>
      <point x="313" y="1055" type="line"/>
      <point x="313" y="1464" type="line"/>
      <point x="176" y="1464" type="line"/>
    </contour>
    <contour>
      <point x="99" y="1533" type="line"/>
      <point x="243" y="1676" type="line"/>
      <point x="251" y="1676" type="line"/>
      <point x="395" y="1533" type="line"/>
      <point x="508" y="1533" type="line"/>
      <point x="312" y="1756" type="line"/>
      <point x="181" y="1756" type="line"/>
      <point x="-16" y="1533" type="line"/>
    </contour>
  </outline>
</glyph>
<glyph name="Hbar" format="1">
  <advance width="1382"/>
  <unicode hex="0126"/>
  <outline>
    <contour>
      <point x="1022" y="771" type="line" name="hr00"/>
      <point x="358" y="771" type="line"/>
      <point x="358" y="1010" type="line"/>
      <point x="1022" y="1010" type="line"/>
    </contour>
    <contour>
      <point x="1318" y="1095" type="line"/>
      <point x="1163" y="1095" type="line"/>
      <point x="1163" y="1346" type="line"/>
      <point x="1022" y="1346" type="line"/>
      <point x="1022" y="1095" type="line"/>
      <point x="358" y="1095" type="line"/>
      <point x="358" y="1346" type="line"/>
      <point x="219" y="1346" type="line"/>
      <point x="219" y="1095" type="line"/>
      <point x="64" y="1085" type="line"/>
      <point x="64" y="1010" type="line"/>
      <point x="219" y="1010" type="line"/>
      <point x="219" y="0" type="line"/>
      <point x="358" y="0" type="line"/>
      <point x="358" y="651" type="line"/>
      <point x="1022" y="651" type="line"/>
      <point x="1022" y="0" type="line"/>
      <point x="1163" y="0" type="line"/>
      <point x="1163" y="1010" type="line"/>
      <point x="1318" y="1010" type="line"/>
    </contour>
  </outline>
</glyph>
<glyph name="Iogonek" format="1">
  <advance width="507"/>
  <unicode hex="012E"/>
  <outline>
    <contour>
      <point x="184" y="0" type="line"/>
      <point x="215" y="0" type="line"/>
      <point x="149" y="-64"/>
      <point x="83" y="-140"/>
      <point x="83" y="-254" type="curve" smooth="yes"/>
      <point x="83" y="-370"/>
      <point x="166" y="-428"/>
      <point x="269" y="-428" type="curve" smooth="yes"/>
      <point x="320" y="-428"/>
      <point x="384" y="-403"/>
      <point x="420" y="-375" type="curve"/>
      <point x="378" y="-297" type="line"/>
      <point x="353" y="-317"/>
      <point x="328" y="-326"/>
      <point x="294" y="-326" type="curve" smooth="yes"/>
      <point x="244" y="-326"/>
      <point x="194" y="-294"/>
      <point x="194" y="-227" type="curve" smooth="yes"/>
      <point x="194" y="-140"/>
      <point x="244" y="-71"/>
      <point x="324" y="0" type="curve"/>
      <point x="324" y="1346" type="line"/>
      <point x="184" y="1346" type="line"/>
    </contour>
  </outline>
</glyph>
<glyph name="kgreenlandic" format="1">
  <advance width="988"/>
  <unicode hex="0138"/>
  <outline>
    <contour>
      <point x="176" y="0" type="line" name="hr00"/>
      <point x="313" y="0" type="line"/>
      <point x="313" y="260" type="line"/>
      <point x="512" y="495" type="line"/>
      <point x="817" y="0" type="line"/>
      <point x="967" y="0" type="line"/>
      <point x="593" y="595" type="line"/>
      <point x="918" y="990" type="line"/>
      <point x="766" y="990" type="line"/>
      <point x="319" y="434" type="line"/>
      <point x="313" y="434" type="line"/>
      <point x="313" y="990" type="line"/>
      <point x="176" y="990" type="line"/>
    </contour>
  </outline>
</glyph>
<glyph name="lcaron" format="1">
  <advance width="563"/>
  <unicode hex="013E"/>
  <outline>
    <contour>
      <point x="176" y="172" type="line" smooth="yes" name="hr01"/>
      <point x="176" y="43"/>
      <point x="223" y="-25"/>
      <point x="331" y="-25" type="curve" smooth="yes" name="hr02"/>
      <point x="369" y="-25"/>
      <point x="394" y="-19"/>
      <point x="415" y="-10" type="curve"/>
      <point x="395" y="94" type="line"/>
      <point x="375" y="90"/>
      <point x="367" y="90"/>
      <point x="358" y="90" type="curve" smooth="yes"/>
      <point x="333" y="90"/>
      <point x="313" y="111"/>
      <point x="313" y="160" type="curve" smooth="yes"/>
      <point x="313" y="1464" type="line"/>
      <point x="176" y="1464" type="line"/>
    </contour>
    <component base="uni030C.a" xOffset="530"/>
  </outline>
</glyph>
<glyph name="lslash" format="1">
  <advance width="517"/>
  <unicode hex="0142"/>
  <outline>
    <contour>
      <point x="466" y="873" type="line" name="hr01"/>
      <point x="466" y="994" type="line"/>
      <point x="320" y="899" type="line"/>
      <point x="320" y="1464" type="line"/>
      <point x="182" y="1464" type="line"/>
      <point x="182" y="825" type="line"/>
      <point x="51" y="741" type="line"/>
      <point x="51" y="621" type="line"/>
      <point x="182" y="705" type="line"/>
      <point x="182" y="172" type="line"/>
      <point x="182" y="43"/>
      <point x="230" y="-25"/>
      <point x="336" y="-25" type="curve" smooth="yes" name="hr02"/>
      <point x="376" y="-25"/>
      <point x="399" y="-19"/>
      <point x="422" y="-10" type="curve"/>
      <point x="401" y="94" type="line"/>
      <point x="382" y="90"/>
      <point x="374" y="90"/>
      <point x="365" y="90" type="curve" smooth="yes"/>
      <point x="340" y="90"/>
      <point x="320" y="111"/>
      <point x="320" y="160" type="curve" smooth="yes"/>
      <point x="320" y="779" type="line"/>
    </contour>
  </outline>
</glyph>
<glyph name="OE" format="1">
  <advance width="1711"/>
  <unicode hex="0152"/>
  <outline>
    <contour>
      <point x="102" y="679" type="curve" smooth="yes"/>
      <point x="102" y="258"/>
      <point x="333" y="0"/>
      <point x="747" y="0" type="curve" smooth="yes"/>
      <point x="1619" y="0" type="line"/>
      <point x="1619" y="119" type="line"/>
      <point x="1014" y="119" type="line"/>
      <point x="1014" y="651" type="line"/>
      <point x="1501" y="651" type="line"/>
      <point x="1501" y="770" type="line"/>
      <point x="1014" y="770" type="line"/>
      <point x="1014" y="1228" type="line"/>
      <point x="1599" y="1228" type="line"/>
      <point x="1599" y="1346" type="line"/>
      <point x="753" y="1346" type="line"/>
      <point x="333" y="1346"/>
      <point x="102" y="1097"/>
    </contour>
    <contour>
      <point x="246" y="679" type="curve" smooth="yes"/>
      <point x="246" y="1024"/>
      <point x="419" y="1231"/>
      <point x="764" y="1231" type="curve" smooth="yes"/>
      <point x="874" y="1231" type="line"/>
      <point x="874" y="115" type="line"/>
      <point x="764" y="115" type="line"/>
      <point x="419" y="115"/>
      <point x="246" y="333"/>
    </contour>
    <contour>
      <point x="860" y="1050" type="move" name="top"/>
    </contour>
  </outline>
</glyph>
<glyph name="Uogonek" format="1">
  <advance width="1300"/>
  <unicode hex="0172"/>
  <outline>
    <contour>
      <point x="178" y="540" type="line"/>
      <point x="178" y="127"/>
      <point x="377" y="-20"/>
      <point x="652" y="-24" type="curve"/>
      <point x="597" y="-79"/>
      <point x="521" y="-144"/>
      <point x="521" y="-254" type="curve" smooth="yes"/>
      <point x="521" y="-370"/>
      <point x="605" y="-428"/>
      <point x="706" y="-428" type="curve" smooth="yes"/>
      <point x="757" y="-428"/>
      <point x="822" y="-403"/>
      <point x="858" y="-375" type="curve"/>
      <point x="816" y="-297" type="line"/>
      <point x="791" y="-317"/>
      <point x="766" y="-326"/>
      <point x="732" y="-326" type="curve" smooth="yes"/>
      <point x="682" y="-326"/>
      <point x="631" y="-294"/>
      <point x="631" y="-227" type="curve" smooth="yes"/>
      <point x="631" y="-158"/>
      <point x="691" y="-68"/>
      <point x="798" y="-15" type="curve" smooth="yes"/>
      <point x="982" y="73"/>
      <point x="1122" y="182"/>
      <point x="1122" y="540" type="curve" smooth="yes"/>
      <point x="1122" y="1346" type="line"/>
      <point x="989" y="1346" type="line"/>
      <point x="989" y="542" type="line"/>
      <point x="989" y="204"/>
      <point x="835" y="99"/>
      <point x="649" y="99" type="curve" smooth="yes"/>
      <point x="469" y="99"/>
      <point x="318" y="204"/>
      <point x="318" y="542" type="curve" smooth="yes"/>
      <point x="318" y="1346" type="line"/>
      <point x="178" y="1346" type="line"/>
    </contour>
  </outline>
</glyph>
<glyph name="uogonek" format="1">
  <advance width="1101"/>
  <unicode hex="0173"/>
  <outline>
    <contour>
      <point x="162" y="360" type="line"/>
      <point x="162" y="106"/>
      <point x="256" y="-25"/>
      <point x="464" y="-25" type="curve" smooth="yes"/>
      <point x="600" y="-25"/>
      <point x="700" y="49"/>
      <point x="794" y="159" type="curve"/>
      <point x="800" y="159" type="line"/>
      <point x="813" y="10" type="line"/>
      <point x="718" y="-58"/>
      <point x="642" y="-140"/>
      <point x="642" y="-249" type="curve" smooth="yes"/>
      <point x="642" y="-361"/>
      <point x="720" y="-420"/>
      <point x="820" y="-420" type="curve" smooth="yes"/>
      <point x="868" y="-420"/>
      <point x="933" y="-396"/>
      <point x="969" y="-368" type="curve"/>
      <point x="930" y="-296" type="line"/>
      <point x="905" y="-314"/>
      <point x="878" y="-323"/>
      <point x="844" y="-323" type="curve" smooth="yes"/>
      <point x="796" y="-323"/>
      <point x="748" y="-290"/>
      <point x="748" y="-224" type="curve" smooth="yes"/>
      <point x="748" y="-141"/>
      <point x="807" y="-64"/>
      <point x="925" y="0" type="curve"/>
      <point x="925" y="990" type="line"/>
      <point x="789" y="990" type="line"/>
      <point x="789" y="276" type="line"/>
      <point x="686" y="150"/>
      <point x="609" y="95"/>
      <point x="501" y="95" type="curve" smooth="yes"/>
      <point x="357" y="95"/>
      <point x="299" y="183"/>
      <point x="299" y="378" type="curve" smooth="yes"/>
      <point x="299" y="990" type="line"/>
      <point x="162" y="990" type="line"/>
    </contour>
  </outline>
</glyph>
<glyph name="uhorn" format="1">
  <advance width="1101"/>
  <unicode hex="01B0"/>
  <outline>
    <contour>
      <point x="966" y="1212" type="line"/>
      <point x="983" y="1185"/>
      <point x="994" y="1157"/>
      <point x="994" y="1128" type="curve" smooth="yes"/>
      <point x="994" y="1039"/>
      <point x="921" y="1002"/>
      <point x="820" y="990" type="curve"/>
      <point x="789" y="990" type="line"/>
      <point x="789" y="276" type="line"/>
      <point x="686" y="150"/>
      <point x="609" y="95"/>
      <point x="501" y="95" type="curve" smooth="yes"/>
      <point x="359" y="95"/>
      <point x="299" y="183"/>
      <point x="299" y="378" type="curve" smooth="yes"/>
      <point x="299" y="990" type="line"/>
      <point x="162" y="990" type="line"/>
      <point x="162" y="360" type="line"/>
      <point x="162" y="106"/>
      <point x="256" y="-25"/>
      <point x="464" y="-25" type="curve" smooth="yes"/>
      <point x="600" y="-25"/>
      <point x="700" y="49"/>
      <point x="794" y="159" type="curve"/>
      <point x="800" y="159" type="line"/>
      <point x="812" y="0" type="line"/>
      <point x="925" y="0" type="line"/>
      <point x="925" y="934" type="line"/>
      <point x="1013" y="958"/>
      <point x="1110" y="1014"/>
      <point x="1110" y="1138" type="curve" smooth="yes"/>
      <point x="1110" y="1185"/>
      <point x="1092" y="1226"/>
      <point x="1066" y="1263" type="curve"/>
    </contour>
  </outline>
</glyph>
<glyph name="uni01EB" format="1">
  <advance width="1104"/>
  <unicode hex="01EB"/>
  <outline>
    <contour>
      <point x="427" y="-249" type="curve" smooth="yes"/>
      <point x="427" y="-361"/>
      <point x="505" y="-420"/>
      <point x="603" y="-420" type="curve" smooth="yes"/>
      <point x="653" y="-420"/>
      <point x="718" y="-396"/>
      <point x="753" y="-368" type="curve"/>
      <point x="714" y="-296" type="line"/>
      <point x="688" y="-314"/>
      <point x="663" y="-323"/>
      <point x="629" y="-323" type="curve" smooth="yes"/>
      <point x="579" y="-323"/>
      <point x="532" y="-291"/>
      <point x="532" y="-224" type="curve" smooth="yes"/>
      <point x="532" y="-143"/>
      <point x="590" y="-53"/>
      <point x="681" y="-10" type="curve" smooth="yes"/>
      <point x="874" y="77"/>
      <point x="1005" y="215"/>
      <point x="1005" y="493" type="curve" smooth="yes"/>
      <point x="1005" y="825"/>
      <point x="793" y="1015"/>
      <point x="552" y="1015" type="curve" smooth="yes"/>
      <point x="311" y="1015"/>
      <point x="99" y="825"/>
      <point x="99" y="493" type="curve" smooth="yes"/>
      <point x="99" y="175"/>
      <point x="300" y="-14"/>
      <point x="542" y="-24" type="curve"/>
      <point x="495" y="-61"/>
      <point x="427" y="-146"/>
    </contour>
    <contour>
      <point x="241" y="493" type="curve" smooth="yes"/>
      <point x="241" y="735"/>
      <point x="370" y="900"/>
      <point x="552" y="900" type="curve" smooth="yes"/>
      <point x="734" y="900"/>
      <point x="864" y="735"/>
      <point x="864" y="493" type="curve" smooth="yes"/>
      <point x="864" y="253"/>
      <point x="734" y="90"/>
      <point x="552" y="90" type="curve" smooth="yes"/>
      <point x="370" y="90"/>
      <point x="241" y="253"/>
    </contour>
  </outline>
</glyph>
<glyph name="r.sups" format="1">
  <advance width="476"/>
  <unicode hex="02B3"/>
  <outline>
    <contour>
      <point x="111" y="532" type="line"/>
      <point x="221" y="532" type="line"/>
      <point x="221" y="957" type="line"/>
      <point x="268" y="1066"/>
      <point x="333" y="1104"/>
      <point x="393" y="1104" type="curve" smooth="yes"/>
      <point x="415" y="1104"/>
      <point x="441" y="1099"/>
      <point x="456" y="1095" type="curve"/>
      <point x="479" y="1191" type="line"/>
      <point x="462" y="1199"/>
      <point x="434" y="1205"/>
      <point x="403" y="1205" type="curve" smooth="yes"/>
      <point x="329" y="1205"/>
      <point x="268" y="1157"/>
      <point x="217" y="1072" type="curve"/>
      <point x="211" y="1072" type="line"/>
      <point x="196" y="1189" type="line"/>
      <point x="111" y="1189" type="line"/>
    </contour>
  </outline>
</glyph>
<glyph name="uni02BE" format="1">
  <advance width="300"/>
  <unicode hex="02BE"/>
  <outline>
    <contour>
      <point x="64" y="1108" type="line"/>
      <point x="203" y="1104"/>
      <point x="282" y="1176"/>
      <point x="282" y="1292" type="curve" smooth="yes"/>
      <point x="282" y="1407"/>
      <point x="203" y="1480"/>
      <point x="64" y="1476" type="curve"/>
      <point x="64" y="1412" type="line"/>
      <point x="159" y="1412"/>
      <point x="199" y="1363"/>
      <point x="199" y="1292" type="curve" smooth="yes"/>
      <point x="199" y="1221"/>
      <point x="159" y="1171"/>
      <point x="64" y="1171" type="curve"/>
    </contour>
  </outline>
</glyph>
<glyph name="circumflex" format="1">
  <advance width="1104"/>
  <unicode hex="02C6"/>
  <outline>
    <contour>
      <point x="302" y="1173" type="line"/>
      <point x="404" y="1173" type="line"/>
      <point x="548" y="1366" type="line"/>
      <point x="556" y="1366" type="line"/>
      <point x="700" y="1173" type="line"/>
      <point x="803" y="1173" type="line"/>
      <point x="610" y="1457" type="line"/>
      <point x="494" y="1457" type="line"/>
    </contour>
    <contour>
      <point x="552" y="1050" type="move" name="_top"/>
    </contour>
  </outline>
</glyph>
<glyph name="uni02C9" format="1">
  <advance width="552"/>
  <unicode hex="02C9"/>
  <outline>
    <contour>
      <point x="33" y="1235" type="line"/>
      <point x="520" y="1235" type="line"/>
      <point x="520" y="1334" type="line"/>
      <point x="33" y="1334" type="line"/>
    </contour>
  </outline>
</glyph>
<glyph name="uni02CA" format="1">
  <advance width="455"/>
  <unicode hex="02CA"/>
  <outline>
    <contour>
      <point x="433" y="1457" type="line" name="hr00"/>
      <point x="285" y="1457" type="line"/>
      <point x="99" y="1173" type="line"/>
      <point x="206" y="1173" type="line"/>
    </contour>
  </outline>
</glyph>
<glyph name="uni02CB" format="1">
  <advance width="455"/>
  <unicode hex="02CB"/>
  <outline>
    <contour>
      <point x="241" y="1173" type="line"/>
      <point x="349" y="1173" type="line"/>
      <point x="163" y="1457" type="line"/>
      <point x="16" y="1457" type="line"/>
    </contour>
  </outline>
</glyph>
<glyph name="uni02CC" format="1">
  <advance width="217"/>
  <unicode hex="02CC"/>
  <outline>
    <contour>
      <point x="61" y="-149" type="line"/>
      <point x="48" y="-514" type="line"/>
      <point x="169" y="-514" type="line"/>
      <point x="157" y="-149" type="line"/>
    </contour>
  </outline>
</glyph>
<glyph name="breve" format="1">
  <advance width="1104"/>
  <unicode hex="02D8"/>
  <outline>
    <contour>
      <point x="552" y="1179" type="curve" smooth="yes"/>
      <point x="724" y="1179"/>
      <point x="795" y="1318"/>
      <point x="804" y="1432" type="curve"/>
      <point x="715" y="1432" type="line"/>
      <point x="704" y="1349"/>
      <point x="653" y="1267"/>
      <point x="552" y="1267" type="curve" smooth="yes"/>
      <point x="450" y="1267"/>
      <point x="400" y="1349"/>
      <point x="389" y="1432" type="curve"/>
      <point x="300" y="1432" type="line"/>
      <point x="309" y="1318"/>
      <point x="380" y="1179"/>
    </contour>
    <contour>
      <point x="552" y="1050" type="move" name="_top"/>
    </contour>
  </outline>
</glyph>
<glyph name="dotaccent" format="1">
  <advance width="1104"/>
  <unicode hex="02D9"/>
  <outline>
    <contour>
      <point x="552" y="1209" type="curve" smooth="yes" name="hr00"/>
      <point x="607" y="1209"/>
      <point x="649" y="1248"/>
      <point x="649" y="1309" type="curve" smooth="yes"/>
      <point x="649" y="1365"/>
      <point x="607" y="1406"/>
      <point x="552" y="1406" type="curve" smooth="yes"/>
      <point x="497" y="1406"/>
      <point x="454" y="1365"/>
      <point x="454" y="1309" type="curve" smooth="yes"/>
      <point x="454" y="1248"/>
      <point x="497" y="1209"/>
    </contour>
    <contour>
      <point x="552" y="1571" type="move" name="_bottom"/>
    </contour>
    <contour>
      <point x="551" y="1050" type="move" name="_top"/>
    </contour>
  </outline>
</glyph>
<glyph name="hungarumlaut" format="1">
  <advance width="1104"/>
  <unicode hex="02DD"/>
  <outline>
    <contour>
      <point x="364" y="1168" type="line" name="hr00"/>
      <point x="460" y="1168" type="line"/>
      <point x="636" y="1457" type="line"/>
      <point x="511" y="1457" type="line"/>
    </contour>
    <contour>
      <point x="654" y="1168" type="line"/>
      <point x="749" y="1168" type="line"/>
      <point x="925" y="1457" type="line"/>
      <point x="800" y="1457" type="line"/>
    </contour>
    <contour>
      <point x="644" y="1050" type="move" name="_top"/>
    </contour>
  </outline>
</glyph>
<glyph name="l.sups" format="1">
  <advance width="346"/>
  <unicode hex="02E1"/>
  <outline>
    <contour>
      <point x="111" y="665" type="line"/>
      <point x="111" y="571"/>
      <point x="143" y="516"/>
      <point x="231" y="516" type="curve" smooth="yes"/>
      <point x="261" y="516"/>
      <point x="279" y="521"/>
      <point x="295" y="527" type="curve"/>
      <point x="279" y="610" type="line"/>
      <point x="267" y="606"/>
      <point x="258" y="606"/>
      <point x="250" y="606" type="curve" smooth="yes"/>
      <point x="230" y="606"/>
      <point x="217" y="619"/>
      <point x="217" y="655" type="curve" smooth="yes"/>
      <point x="217" y="1496" type="line"/>
      <point x="111" y="1496" type="line"/>
    </contour>
  </outline>
</glyph>
<glyph name="s.sups" format="1">
  <advance width="573"/>
  <unicode hex="02E2"/>
  <outline>
    <contour>
      <point x="41" y="606" type="line"/>
      <point x="105" y="556"/>
      <point x="196" y="516"/>
      <point x="295" y="516" type="curve" smooth="yes"/>
      <point x="436" y="516"/>
      <point x="530" y="600"/>
      <point x="530" y="715" type="curve" smooth="yes"/>
      <point x="530" y="837"/>
      <point x="423" y="872"/>
      <point x="326" y="909" type="curve" smooth="yes"/>
      <point x="249" y="940"/>
      <point x="177" y="961"/>
      <point x="177" y="1028" type="curve" smooth="yes"/>
      <point x="177" y="1074"/>
      <point x="216" y="1120"/>
      <point x="296" y="1120" type="curve" smooth="yes"/>
      <point x="361" y="1120"/>
      <point x="401" y="1097"/>
      <point x="450" y="1063" type="curve"/>
      <point x="505" y="1132" type="line"/>
      <point x="452" y="1172"/>
      <point x="383" y="1205"/>
      <point x="293" y="1205" type="curve" smooth="yes"/>
      <point x="154" y="1205"/>
      <point x="74" y="1117"/>
      <point x="74" y="1022" type="curve" smooth="yes"/>
      <point x="74" y="907"/>
      <point x="178" y="862"/>
      <point x="272" y="826" type="curve" smooth="yes"/>
      <point x="349" y="798"/>
      <point x="425" y="771"/>
      <point x="425" y="705" type="curve" smooth="yes"/>
      <point x="425" y="647"/>
      <point x="378" y="601"/>
      <point x="296" y="601" type="curve" smooth="yes"/>
      <point x="217" y="601"/>
      <point x="154" y="633"/>
      <point x="94" y="679" type="curve"/>
    </contour>
  </outline>
</glyph>
<glyph name="uni0303" format="1">
  <advance width="0"/>
  <unicode hex="0303"/>
  <outline>
    <contour>
      <point x="-272" y="1188" type="curve"/>
      <point x="-191" y="1188" type="line"/>
      <point x="-180" y="1258"/>
      <point x="-157" y="1295"/>
      <point x="-115" y="1295" type="curve" smooth="yes"/>
      <point x="-43" y="1295"/>
      <point x="13" y="1188"/>
      <point x="117" y="1188" type="curve" smooth="yes"/>
      <point x="216" y="1188"/>
      <point x="263" y="1282"/>
      <point x="272" y="1390" type="curve"/>
      <point x="191" y="1390" type="line"/>
      <point x="180" y="1321"/>
      <point x="157" y="1282"/>
      <point x="115" y="1282" type="curve" smooth="yes"/>
      <point x="47" y="1282"/>
      <point x="-13" y="1390"/>
      <point x="-117" y="1390" type="curve" smooth="yes"/>
      <point x="-216" y="1390"/>
      <point x="-263" y="1296"/>
    </contour>
  </outline>
</glyph>
<glyph name="uni0307" format="1">
  <advance width="600"/>
  <unicode hex="0307"/>
  <outline>
    <contour>
      <point x="0" y="1209" type="curve" smooth="yes"/>
      <point x="56" y="1209"/>
      <point x="97" y="1248"/>
      <point x="97" y="1309" type="curve" smooth="yes"/>
      <point x="97" y="1365"/>
      <point x="56" y="1406"/>
      <point x="0" y="1406" type="curve" smooth="yes"/>
      <point x="-56" y="1406"/>
      <point x="-97" y="1365"/>
      <point x="-97" y="1309" type="curve" smooth="yes"/>
      <point x="-97" y="1248"/>
      <point x="-56" y="1209"/>
    </contour>
    <contour>
      <point x="0" y="1035" type="move" name="_mark0"/>
    </contour>
  </outline>
</glyph>
<glyph name="uni0308" format="1">
  <advance width="600"/>
  <unicode hex="0308"/>
  <outline>
    <contour>
      <point x="-170" y="1213" type="curve" smooth="yes"/>
      <point x="-119" y="1213"/>
      <point x="-80" y="1251"/>
      <point x="-80" y="1303" type="curve" smooth="yes"/>
      <point x="-80" y="1353"/>
      <point x="-119" y="1392"/>
      <point x="-170" y="1392" type="curve" smooth="yes"/>
      <point x="-223" y="1392"/>
      <point x="-260" y="1353"/>
      <point x="-260" y="1303" type="curve" smooth="yes"/>
      <point x="-260" y="1251"/>
      <point x="-223" y="1213"/>
    </contour>
    <contour>
      <point x="170" y="1213" type="curve" smooth="yes"/>
      <point x="223" y="1213"/>
      <point x="260" y="1251"/>
      <point x="260" y="1303" type="curve" smooth="yes"/>
      <point x="260" y="1353"/>
      <point x="223" y="1392"/>
      <point x="170" y="1392" type="curve" smooth="yes"/>
      <point x="119" y="1392"/>
      <point x="80" y="1353"/>
      <point x="80" y="1303" type="curve" smooth="yes"/>
      <point x="80" y="1251"/>
      <point x="119" y="1213"/>
    </contour>
    <contour>
      <point x="0" y="1035" type="move" name="_mark0"/>
    </contour>
  </outline>
</glyph>
<glyph name="uni030B" format="1">
  <advance width="600"/>
  <unicode hex="030B"/>
  <outline>
    <contour>
      <point x="-187" y="1168" type="line"/>
      <point x="-92" y="1168" type="line"/>
      <point x="84" y="1457" type="line"/>
      <point x="-42" y="1457" type="line"/>
    </contour>
    <contour>
      <point x="102" y="1168" type="line"/>
      <point x="197" y="1168" type="line"/>
      <point x="374" y="1457" type="line"/>
      <point x="248" y="1457" type="line"/>
    </contour>
    <contour>
      <point x="0" y="1035" type="move" name="_mark0"/>
    </contour>
  </outline>
</glyph>
<glyph name="uni030C" format="1">
  <advance width="600"/>
  <unicode hex="030C"/>
  <outline>
    <contour>
      <point x="-57" y="1173" type="line"/>
      <point x="57" y="1173" type="line"/>
      <point x="251" y="1457" type="line"/>
      <point x="148" y="1457" type="line"/>
      <point x="4" y="1263" type="line"/>
      <point x="-4" y="1263" type="line"/>
      <point x="-148" y="1457" type="line"/>
      <point x="-251" y="1457" type="line"/>
    </contour>
    <contour>
      <point x="0" y="1035" type="move" name="_mark0"/>
    </contour>
  </outline>
</glyph>
<glyph name="uni030F" format="1">
  <advance width="0"/>
  <unicode hex="030F"/>
  <outline>
    <contour>
      <point x="42" y="1457" type="line"/>
      <point x="-84" y="1457" type="line"/>
      <point x="92" y="1168" type="line"/>
      <point x="187" y="1168" type="line"/>
    </contour>
    <contour>
      <point x="-248" y="1457" type="line"/>
      <point x="-374" y="1457" type="line"/>
      <point x="-197" y="1168" type="line"/>
      <point x="-102" y="1168" type="line"/>
    </contour>
  </outline>
</glyph>
<glyph name="uni0323" format="1">
  <advance width="0"/>
  <unicode hex="0323"/>
  <outline>
    <contour>
      <point x="0" y="-412" type="curve" smooth="yes"/>
      <point x="56" y="-412"/>
      <point x="97" y="-372"/>
      <point x="97" y="-312" type="curve" smooth="yes"/>
      <point x="97" y="-255"/>
      <point x="56" y="-215"/>
      <point x="0" y="-215" type="curve" smooth="yes"/>
      <point x="-56" y="-215"/>
      <point x="-97" y="-255"/>
      <point x="-97" y="-312" type="curve" smooth="yes"/>
      <point x="-97" y="-372"/>
      <point x="-56" y="-412"/>
    </contour>
  </outline>
</glyph>
<glyph name="uni0327" format="1">
  <advance width="0"/>
  <unicode hex="0327"/>
  <outline>
    <contour>
      <point x="-112" y="-153" type="line"/>
      <point x="-30" y="-173"/>
      <point x="21" y="-200"/>
      <point x="21" y="-256" type="curve" smooth="yes"/>
      <point x="21" y="-312"/>
      <point x="-55" y="-342"/>
      <point x="-165" y="-357" type="curve"/>
      <point x="-149" y="-432" type="line"/>
      <point x="-4" y="-417"/>
      <point x="131" y="-363"/>
      <point x="131" y="-250" type="curve" smooth="yes"/>
      <point x="131" y="-166"/>
      <point x="75" y="-128"/>
      <point x="9" y="-106" type="curve"/>
      <point x="64" y="5" type="line"/>
      <point x="-30" y="5" type="line"/>
    </contour>
  </outline>
</glyph>
<glyph name="uni032E" format="1">
  <advance width="0"/>
  <unicode hex="032E"/>
  <outline>
    <contour>
      <point x="0" y="-420" type="curve" smooth="yes"/>
      <point x="173" y="-420"/>
      <point x="242" y="-280"/>
      <point x="252" y="-166" type="curve"/>
      <point x="163" y="-166" type="line"/>
      <point x="152" y="-249"/>
      <point x="101" y="-330"/>
      <point x="0" y="-330" type="curve" smooth="yes"/>
      <point x="-101" y="-330"/>
      <point x="-152" y="-249"/>
      <point x="-163" y="-166" type="curve"/>
      <point x="-252" y="-166" type="line"/>
      <point x="-242" y="-280"/>
      <point x="-173" y="-420"/>
    </contour>
  </outline>
</glyph>
<glyph name="uni0331" format="1">
  <advance width="0"/>
  <unicode hex="0331"/>
  <outline>
    <contour>
      <point x="243" y="-240" type="line"/>
      <point x="-247" y="-240" type="line"/>
      <point x="-247" y="-341" type="line"/>
      <point x="243" y="-341" type="line"/>
    </contour>
  </outline>
</glyph>
<glyph name="anusvara-deva" format="1">
  <advance width="540"/>
  <unicode hex="0902"/>
  <outline>
    <contour>
      <point x="213" y="1609"/>
      <point x="188" y="1585"/>
      <point x="188" y="1528" type="curve" smooth="yes"/>
      <point x="188" y="1471"/>
      <point x="213" y="1447"/>
      <point x="270" y="1447" type="curve" smooth="yes"/>
      <point x="328" y="1447"/>
      <point x="352" y="1471"/>
      <point x="352" y="1528" type="curve" smooth="yes"/>
      <point x="352" y="1585"/>
      <point x="328" y="1609"/>
      <point x="270" y="1609" type="curve" smooth="yes"/>
    </contour>
    <contour>
      <point x="271" y="1168" type="move" name="_top"/>
    </contour>
  </outline>
</glyph>
<glyph name="i-deva" format="1">
  <advance width="980"/>
  <unicode hex="0907"/>
  <outline>
    <contour>
      <point x="-12" y="1247" type="line"/>
      <point x="-12" y="1143" type="line"/>
      <point x="993" y="1143" type="line"/>
      <point x="993" y="1247" type="line"/>
    </contour>
    <contour>
      <point x="669" y="1195" type="line"/>
      <point x="669" y="809" type="line"/>
      <point x="794" y="809" type="line"/>
      <point x="794" y="1195" type="line"/>
    </contour>
    <contour>
      <point x="346" y="921" type="line" smooth="yes"/>
      <point x="187" y="919"/>
      <point x="101" y="850"/>
      <point x="101" y="720" type="curve" smooth="yes"/>
      <point x="101" y="615"/>
      <point x="149" y="490"/>
      <point x="206" y="436" type="curve" smooth="yes"/>
      <point x="225" y="419"/>
      <point x="251" y="401"/>
      <point x="289" y="407" type="curve" smooth="yes"/>
      <point x="343" y="415"/>
      <point x="525" y="437"/>
      <point x="618" y="437" type="curve" smooth="yes"/>
      <point x="755" y="437"/>
      <point x="804" y="382"/>
      <point x="800" y="282" type="curve" smooth="yes"/>
      <point x="796" y="168"/>
      <point x="707" y="92"/>
      <point x="508" y="92" type="curve" smooth="yes"/>
      <point x="407" y="92"/>
      <point x="317" y="108"/>
      <point x="231" y="154" type="curve"/>
      <point x="298" y="97" type="line"/>
      <point x="208" y="280" type="line"/>
      <point x="88" y="247" type="line"/>
      <point x="85" y="228"/>
      <point x="83" y="208"/>
      <point x="83" y="193" type="curve" smooth="yes"/>
      <point x="83" y="83"/>
      <point x="177" y="36"/>
      <point x="285" y="2" type="curve"/>
      <point x="284" y="29" type="line"/>
      <point x="351" y="-5"/>
      <point x="433" y="-19"/>
      <point x="516" y="-19" type="curve"/>
      <point x="736" y="-19"/>
      <point x="919" y="80"/>
      <point x="919" y="301" type="curve" smooth="yes"/>
      <point x="919" y="510"/>
      <point x="777" y="553"/>
      <point x="628" y="552" type="curve" smooth="yes"/>
      <point x="510" y="552"/>
      <point x="314" y="531"/>
      <point x="251" y="514" type="curve"/>
      <point x="282" y="498" type="line"/>
      <point x="239" y="548"/>
      <point x="218" y="627"/>
      <point x="218" y="686" type="curve" smooth="yes"/>
      <point x="218" y="762"/>
      <point x="246" y="809"/>
      <point x="379" y="809" type="curve" smooth="yes"/>
      <point x="747" y="809" type="line"/>
      <point x="733" y="921" type="line"/>
    </contour>
    <contour>
      <point x="205" y="86" type="line"/>
      <point x="432" y="-319" type="line"/>
      <point x="536" y="-257" type="line"/>
      <point x="279" y="102" type="line"/>
    </contour>
    <contour>
      <point x="739" y="1168" type="move" name="top"/>
    </contour>
    <contour>
      <point x="680" y="20" type="move" name="bottom"/>
    </contour>
    <contour>
      <point x="528" y="1167" type="move" name="topcandra"/>
    </contour>
  </outline>
</glyph>
<glyph name="eShort-deva" format="1">
  <advance width="1020"/>
  <unicode hex="090E"/>
  <outline>
    <component base="e-deva"/>
    <component base="eShortMatra-deva" xOffset="545" yOffset="6"/>
    <contour>
      <point x="827" y="1379" type="move" name="topcandra"/>
    </contour>
  </outline>
</glyph>
<glyph name="kha-deva" format="1">
  <advance width="1589"/>
  <unicode hex="0916"/>
  <outline>
    <contour>
      <point x="377" y="1190" type="line"/>
      <point x="377" y="831" type="line" smooth="yes"/>
      <point x="377" y="720"/>
      <point x="350" y="667"/>
      <point x="263" y="665" type="curve" smooth="yes"/>
      <point x="230" y="664"/>
      <point x="193" y="671"/>
      <point x="150" y="706" type="curve"/>
      <point x="65" y="649" type="line"/>
      <point x="237" y="123"/>
      <point x="502" y="-56"/>
      <point x="806" y="-56" type="curve" smooth="yes"/>
      <point x="875" y="-56"/>
      <point x="979" y="-51"/>
      <point x="1067" y="-8" type="curve"/>
      <point x="1037" y="96" type="line"/>
      <point x="981" y="73"/>
      <point x="902" y="55"/>
      <point x="802" y="55" type="curve" smooth="yes"/>
      <point x="544" y="55"/>
      <point x="322" y="236"/>
      <point x="198" y="614" type="curve"/>
      <point x="175" y="585" type="line"/>
      <point x="215" y="571"/>
      <point x="256" y="561"/>
      <point x="298" y="561" type="curve" smooth="yes"/>
      <point x="409" y="561"/>
      <point x="504" y="630"/>
      <point x="504" y="839" type="curve" smooth="yes"/>
      <point x="504" y="1191" type="line"/>
    </contour>
    <contour>
      <point x="-12" y="1247" type="line"/>
      <point x="-12" y="1143" type="line"/>
      <point x="1602" y="1143" type="line"/>
      <point x="1602" y="1247" type="line"/>
    </contour>
    <contour>
      <point x="1250" y="1193" type="line"/>
      <point x="1250" y="0" type="line"/>
      <point x="1376" y="0" type="line"/>
      <point x="1376" y="1193" type="line"/>
    </contour>
    <contour>
      <point x="778" y="892"/>
      <point x="642" y="801"/>
      <point x="642" y="573" type="curve" smooth="yes"/>
      <point x="642" y="405"/>
      <point x="734" y="263"/>
      <point x="947" y="263" type="curve" smooth="yes"/>
      <point x="1099" y="263"/>
      <point x="1215" y="324"/>
      <point x="1290" y="413" type="curve"/>
      <point x="1285" y="550" type="line"/>
      <point x="1213" y="443"/>
      <point x="1105" y="372"/>
      <point x="964" y="372" type="curve" smooth="yes"/>
      <point x="831" y="372"/>
      <point x="772" y="436"/>
      <point x="772" y="574" type="curve" smooth="yes"/>
      <point x="772" y="701"/>
      <point x="820" y="784"/>
      <point x="1004" y="785" type="curve" smooth="yes"/>
      <point x="1088" y="786"/>
      <point x="1183" y="770"/>
      <point x="1290" y="736" type="curve"/>
      <point x="1289" y="829" type="line"/>
      <point x="1228" y="858"/>
      <point x="1116" y="892"/>
      <point x="988" y="892" type="curve" smooth="yes"/>
    </contour>
    <contour>
      <point x="177" y="44" type="move" name="nukta"/>
    </contour>
    <contour>
      <point x="1310" y="1168" type="move" name="top"/>
    </contour>
    <contour>
      <point x="848" y="1168" type="move" name="topcandra"/>
    </contour>
    <contour>
      <point x="1313" y="28" type="move" name="bottom"/>
    </contour>
  </outline>
</glyph>
<glyph name="ga-deva" format="1">
  <advance width="1137"/>
  <unicode hex="0917"/>
  <outline>
    <contour>
      <point x="797" y="1202" type="line"/>
      <point x="797" y="0" type="line"/>
      <point x="923" y="0" type="line"/>
      <point x="923" y="1202" type="line"/>
    </contour>
    <contour>
      <point x="273" y="685" type="line"/>
      <point x="99" y="665" type="line"/>
      <point x="99" y="576" type="line"/>
      <point x="269" y="386" type="line"/>
      <point x="358" y="389"/>
      <point x="377" y="437"/>
      <point x="377" y="495" type="curve" smooth="yes"/>
      <point x="377" y="685" type="line"/>
    </contour>
    <contour>
      <point x="252" y="1191" type="line"/>
      <point x="252" y="520" type="line"/>
      <point x="378" y="622" type="line"/>
      <point x="378" y="1191" type="line"/>
    </contour>
    <contour>
      <point x="-12" y="1247" type="line"/>
      <point x="-12" y="1143" type="line"/>
      <point x="1150" y="1143" type="line"/>
      <point x="1150" y="1247" type="line"/>
    </contour>
    <contour>
      <point x="320" y="127" type="move" name="nukta"/>
    </contour>
    <contour>
      <point x="861" y="1168" type="move" name="top"/>
    </contour>
    <contour>
      <point x="608" y="1168" type="move" name="topcandra"/>
    </contour>
    <contour>
      <point x="860" y="28" type="move" name="bottom"/>
    </contour>
  </outline>
</glyph>
<glyph name="gha-deva" format="1">
  <advance width="1188"/>
  <unicode hex="0918"/>
  <outline>
    <contour>
      <point x="209" y="802"/>
      <point x="129" y="651"/>
      <point x="129" y="509" type="curve" smooth="yes"/>
      <point x="129" y="331"/>
      <point x="245" y="215"/>
      <point x="460" y="215" type="curve" smooth="yes"/>
      <point x="647" y="215"/>
      <point x="827" y="288"/>
      <point x="926" y="411" type="curve"/>
      <point x="905" y="543" type="line"/>
      <point x="801" y="405"/>
      <point x="630" y="329"/>
      <point x="471" y="329" type="curve" smooth="yes"/>
      <point x="328" y="329"/>
      <point x="260" y="388"/>
      <point x="260" y="511" type="curve" smooth="yes"/>
      <point x="260" y="642"/>
      <point x="339" y="696"/>
      <point x="517" y="715" type="curve"/>
      <point x="510" y="817" type="line"/>
    </contour>
    <contour>
      <point x="249" y="1228"/>
      <point x="72" y="1157"/>
      <point x="72" y="973" type="curve" smooth="yes"/>
      <point x="72" y="879"/>
      <point x="122" y="771"/>
      <point x="323" y="683" type="curve"/>
      <point x="384" y="742" type="line"/>
      <point x="274" y="796"/>
      <point x="200" y="863"/>
      <point x="200" y="975" type="curve" smooth="yes"/>
      <point x="200" y="1081"/>
      <point x="290" y="1141"/>
      <point x="435" y="1155" type="curve"/>
      <point x="449" y="1225" type="line"/>
    </contour>
    <contour>
      <point x="847" y="1191" type="line"/>
      <point x="847" y="0" type="line"/>
      <point x="974" y="0" type="line"/>
      <point x="974" y="1191" type="line"/>
    </contour>
    <contour>
      <point x="-12" y="1247" type="line"/>
      <point x="-12" y="1143" type="line"/>
      <point x="1201" y="1143" type="line"/>
      <point x="1201" y="1247" type="line"/>
    </contour>
    <contour>
      <point x="297" y="44" type="move" name="nukta"/>
    </contour>
    <contour>
      <point x="913" y="1168" type="move" name="top"/>
    </contour>
    <contour>
      <point x="641" y="1168" type="move" name="topcandra"/>
    </contour>
    <contour>
      <point x="910" y="28" type="move" name="bottom"/>
    </contour>
  </outline>
</glyph>
<glyph name="jha-deva" format="1">
  <advance width="1483"/>
  <unicode hex="091D"/>
  <outline>
    <contour>
      <point x="1072" y="502"/>
      <point x="914" y="468"/>
      <point x="796" y="478" type="curve"/>
      <point x="842" y="384" type="line"/>
      <point x="948" y="371"/>
      <point x="1138" y="412"/>
      <point x="1202" y="472" type="curve"/>
      <point x="1189" y="592" type="line"/>
    </contour>
    <component base="i-deva"/>
    <component base="aaMatra-deva" xOffset="929"/>
    <contour>
      <point x="165" y="-195" type="move" name="nukta"/>
    </contour>
    <contour>
      <point x="1207" y="1168" type="move" name="top"/>
    </contour>
    <contour>
      <point x="962" y="1173" type="move" name="topcandra"/>
    </contour>
    <contour>
      <point x="1207" y="28" type="move" name="bottom"/>
    </contour>
  </outline>
</glyph>
<glyph name="ta-deva" format="1">
  <advance width="1107"/>
  <unicode hex="0924"/>
  <outline>
    <contour>
      <point x="402" y="828" type="line" smooth="yes"/>
      <point x="160" y="829"/>
      <point x="83" y="713"/>
      <point x="83" y="570" type="curve" smooth="yes"/>
      <point x="83" y="366"/>
      <point x="230" y="130"/>
      <point x="354" y="-30" type="curve"/>
      <point x="455" y="39" type="line"/>
      <point x="302" y="250"/>
      <point x="213" y="412"/>
      <point x="213" y="552" type="curve" smooth="yes"/>
      <point x="213" y="693"/>
      <point x="290" y="713"/>
      <point x="442" y="713" type="curve" smooth="yes"/>
      <point x="837" y="713" type="line"/>
      <point x="804" y="828" type="line"/>
    </contour>
    <contour>
      <point x="767" y="1191" type="line"/>
      <point x="767" y="0" type="line"/>
      <point x="893" y="0" type="line"/>
      <point x="893" y="1191" type="line"/>
    </contour>
    <contour>
      <point x="-12" y="1247" type="line"/>
      <point x="-12" y="1143" type="line"/>
      <point x="1120" y="1143" type="line"/>
      <point x="1120" y="1247" type="line"/>
    </contour>
    <contour>
      <point x="97" y="44" type="move" name="nukta"/>
    </contour>
    <contour>
      <point x="834" y="1168" type="move" name="top"/>
    </contour>
    <contour>
      <point x="564" y="1168" type="move" name="topcandra"/>
    </contour>
    <contour>
      <point x="830" y="28" type="move" name="bottom"/>
    </contour>
  </outline>
</glyph>
<glyph name="da-deva" format="1">
  <advance width="1025"/>
  <unicode hex="0926"/>
  <outline>
    <contour>
      <point x="657" y="1178" type="line"/>
      <point x="657" y="865" type="line"/>
      <point x="716" y="885" type="line"/>
      <point x="658" y="896"/>
      <point x="602" y="901"/>
      <point x="552" y="901" type="curve" smooth="yes"/>
      <point x="209" y="901"/>
      <point x="88" y="749"/>
      <point x="88" y="506" type="curve" smooth="yes"/>
      <point x="88" y="260"/>
      <point x="243" y="96"/>
      <point x="532" y="96" type="curve" smooth="yes"/>
      <point x="649" y="96"/>
      <point x="751" y="121"/>
      <point x="826" y="172" type="curve" smooth="yes"/>
      <point x="892" y="215"/>
      <point x="921" y="272"/>
      <point x="921" y="324" type="curve" smooth="yes"/>
      <point x="921" y="399"/>
      <point x="861" y="459"/>
      <point x="756" y="491" type="curve"/>
      <point x="673" y="426" type="line"/>
      <point x="767" y="239" type="line"/>
      <point x="787" y="281" type="line"/>
      <point x="692" y="222"/>
      <point x="612" y="206"/>
      <point x="528" y="206" type="curve" smooth="yes"/>
      <point x="346" y="206"/>
      <point x="221" y="281"/>
      <point x="221" y="497" type="curve" smooth="yes"/>
      <point x="221" y="706"/>
      <point x="320" y="788"/>
      <point x="560" y="788" type="curve" smooth="yes"/>
      <point x="661" y="788"/>
      <point x="757" y="781"/>
      <point x="784" y="780" type="curve"/>
      <point x="784" y="1178" type="line"/>
    </contour>
    <contour>
      <point x="778" y="212" type="line"/>
      <point x="946" y="-107" type="line"/>
      <point x="1048" y="-44" type="line"/>
      <point x="854" y="247" type="line"/>
    </contour>
    <contour>
      <point x="-12" y="1247" type="line"/>
      <point x="-12" y="1143" type="line"/>
      <point x="1038" y="1143" type="line"/>
      <point x="1038" y="1247" type="line"/>
    </contour>
    <contour>
      <point x="85" y="44" type="move" name="nukta"/>
    </contour>
    <contour>
      <point x="720" y="1168" type="move" name="top"/>
    </contour>
    <contour>
      <point x="514" y="1168" type="move" name="topcandra"/>
    </contour>
    <contour>
      <point x="572" y="103" type="move" name="bottom"/>
    </contour>
  </outline>
</glyph>
<glyph name="ba-deva" format="1">
  <advance width="1103"/>
  <unicode hex="092C"/>
  <outline>
    <contour>
      <point x="588" y="209"/>
      <point x="717" y="262"/>
      <point x="816" y="374" type="curve"/>
      <point x="803" y="482" type="line"/>
      <point x="698" y="371"/>
      <point x="596" y="312"/>
      <point x="435" y="312" type="curve" smooth="yes"/>
      <point x="283" y="312"/>
      <point x="212" y="390"/>
      <point x="212" y="574" type="curve" smooth="yes"/>
      <point x="212" y="764"/>
      <point x="277" y="824"/>
      <point x="448" y="830" type="curve" smooth="yes"/>
      <point x="567" y="834"/>
      <point x="674" y="815"/>
      <point x="811" y="754" type="curve"/>
      <point x="805" y="855" type="line"/>
      <point x="676" y="912"/>
      <point x="570" y="933"/>
      <point x="460" y="933" type="curve" smooth="yes"/>
      <point x="217" y="933"/>
      <point x="87" y="813"/>
      <point x="87" y="576" type="curve" smooth="yes"/>
      <point x="87" y="320"/>
      <point x="235" y="209"/>
      <point x="436" y="209" type="curve" smooth="yes"/>
    </contour>
    <contour>
      <point x="758" y="384" type="line"/>
      <point x="284" y="867" type="line"/>
      <point x="220" y="798" type="line"/>
      <point x="695" y="316" type="line"/>
    </contour>
    <contour>
      <point x="889" y="0" type="line"/>
      <point x="889" y="1193" type="line"/>
      <point x="763" y="1193" type="line"/>
      <point x="763" y="0" type="line"/>
    </contour>
    <contour>
      <point x="1116" y="1143" type="line"/>
      <point x="1116" y="1247" type="line"/>
      <point x="-12" y="1247" type="line"/>
      <point x="-12" y="1143" type="line"/>
    </contour>
    <contour>
      <point x="248" y="44" type="move" name="nukta"/>
    </contour>
    <contour>
      <point x="826" y="1168" type="move" name="top"/>
    </contour>
    <contour>
      <point x="580" y="1168" type="move" name="topcandra"/>
    </contour>
    <contour>
      <point x="826" y="28" type="move" name="bottom"/>
    </contour>
  </outline>
</glyph>
<glyph name="ma-deva" format="1">
  <advance width="1173"/>
  <unicode hex="092E"/>
  <outline>
    <contour>
      <point x="833" y="1177" type="line"/>
      <point x="833" y="0" type="line"/>
      <point x="959" y="0" type="line"/>
      <point x="959" y="1177" type="line"/>
    </contour>
    <contour>
      <point x="233" y="608" type="line"/>
      <point x="65" y="588" type="line"/>
      <point x="65" y="498" type="line"/>
      <point x="235" y="308" type="line"/>
      <point x="325" y="311"/>
      <point x="343" y="360"/>
      <point x="343" y="418" type="curve" smooth="yes"/>
      <point x="343" y="608" type="line"/>
    </contour>
    <contour>
      <point x="217" y="1163" type="line"/>
      <point x="217" y="447" type="line"/>
      <point x="343" y="558" type="line"/>
      <point x="343" y="1164" type="line"/>
    </contour>
    <contour>
      <point x="223" y="600" type="line"/>
      <point x="223" y="489" type="line"/>
      <point x="927" y="489" type="line"/>
      <point x="927" y="600" type="line"/>
    </contour>
    <contour>
      <point x="-12" y="1247" type="line"/>
      <point x="-12" y="1143" type="line"/>
      <point x="1186" y="1143" type="line"/>
      <point x="1186" y="1247" type="line"/>
    </contour>
    <contour>
      <point x="344" y="44" type="move" name="nukta"/>
    </contour>
    <contour>
      <point x="896" y="1168" type="move" name="top"/>
    </contour>
    <contour>
      <point x="617" y="1168" type="move" name="topcandra"/>
    </contour>
    <contour>
      <point x="896" y="28" type="move" name="bottom"/>
    </contour>
  </outline>
</glyph>
<glyph name="ra-deva" format="1">
  <advance width="650"/>
  <unicode hex="0930"/>
  <outline>
    <contour>
      <point x="351" y="1191" type="line"/>
      <point x="351" y="818" type="line" smooth="yes"/>
      <point x="351" y="718"/>
      <point x="324" y="667"/>
      <point x="237" y="667" type="curve" smooth="yes"/>
      <point x="202" y="667"/>
      <point x="156" y="678"/>
      <point x="117" y="707" type="curve"/>
      <point x="39" y="643" type="line"/>
      <point x="478" y="-26" type="line"/>
      <point x="578" y="47" type="line"/>
      <point x="178" y="623" type="line"/>
      <point x="141" y="617" type="line"/>
      <point x="163" y="588"/>
      <point x="223" y="568"/>
      <point x="275" y="568" type="curve" smooth="yes"/>
      <point x="400" y="568"/>
      <point x="477" y="644"/>
      <point x="477" y="824" type="curve" smooth="yes"/>
      <point x="477" y="1192" type="line"/>
    </contour>
    <contour>
      <point x="-12" y="1247" type="line"/>
      <point x="-12" y="1143" type="line"/>
      <point x="663" y="1143" type="line"/>
      <point x="663" y="1247" type="line"/>
    </contour>
    <contour>
      <point x="121" y="163" type="move" name="nukta"/>
    </contour>
    <contour>
      <point x="411" y="1168" type="move" name="top"/>
    </contour>
    <contour>
      <point x="410" y="1168" type="move" name="topcandra"/>
    </contour>
    <contour>
      <point x="479" y="31" type="move" name="bottom"/>
    </contour>
  </outline>
</glyph>
<glyph name="ssa-deva" format="1">
  <advance width="1158"/>
  <unicode hex="0937"/>
  <outline>
    <contour>
      <point x="165" y="1172" type="line"/>
      <point x="165" y="665" type="line" smooth="yes"/>
      <point x="165" y="421"/>
      <point x="276" y="297"/>
      <point x="503" y="297" type="curve" smooth="yes"/>
      <point x="623" y="297"/>
      <point x="770" y="355"/>
      <point x="860" y="470" type="curve"/>
      <point x="855" y="606" type="line"/>
      <point x="757" y="473"/>
      <point x="622" y="412"/>
      <point x="510" y="411" type="curve" smooth="yes"/>
      <point x="340" y="410"/>
      <point x="288" y="498"/>
      <point x="288" y="662" type="curve" smooth="yes"/>
      <point x="288" y="1172" type="line"/>
    </contour>
    <contour>
      <point x="202" y="1128" type="line"/>
      <point x="843" y="476" type="line"/>
      <point x="913" y="545" type="line"/>
      <point x="272" y="1197" type="line"/>
    </contour>
    <contour>
      <point x="818" y="1191" type="line"/>
      <point x="818" y="0" type="line"/>
      <point x="944" y="0" type="line"/>
      <point x="944" y="1191" type="line"/>
    </contour>
    <contour>
      <point x="-12" y="1247" type="line"/>
      <point x="-12" y="1143" type="line"/>
      <point x="1171" y="1143" type="line"/>
      <point x="1171" y="1247" type="line"/>
    </contour>
    <contour>
      <point x="324" y="44" type="move" name="nukta"/>
    </contour>
    <contour>
      <point x="882" y="1168" type="move" name="top"/>
    </contour>
    <contour>
      <point x="580" y="1168" type="move" name="topcandra"/>
    </contour>
    <contour>
      <point x="882" y="28" type="move" name="bottom"/>
    </contour>
  </outline>
</glyph>
<glyph name="sa-deva" format="1">
  <advance width="1302"/>
  <unicode hex="0938"/>
  <outline>
    <contour>
      <point x="361" y="1190" type="line"/>
      <point x="361" y="795" type="line" smooth="yes"/>
      <point x="361" y="694"/>
      <point x="334" y="644"/>
      <point x="246" y="644" type="curve" smooth="yes"/>
      <point x="198" y="644"/>
      <point x="160" y="666"/>
      <point x="123" y="695" type="curve"/>
      <point x="45" y="630" type="line"/>
      <point x="487" y="-23" type="line"/>
      <point x="586" y="51" type="line"/>
      <point x="173" y="622" type="line"/>
      <point x="153" y="603" type="line"/>
      <point x="175" y="575"/>
      <point x="219" y="545"/>
      <point x="278" y="545" type="curve" smooth="yes"/>
      <point x="410" y="545"/>
      <point x="487" y="621"/>
      <point x="487" y="801" type="curve" smooth="yes"/>
      <point x="487" y="1191" type="line"/>
    </contour>
    <contour>
      <point x="922" y="658"/>
      <point x="827" y="642"/>
      <point x="732" y="642" type="curve" smooth="yes"/>
      <point x="619" y="642"/>
      <point x="506" y="660"/>
      <point x="428" y="690" type="curve"/>
      <point x="384" y="600" type="line"/>
      <point x="490" y="553"/>
      <point x="610" y="530"/>
      <point x="737" y="530" type="curve" smooth="yes"/>
      <point x="830" y="530"/>
      <point x="921" y="542"/>
      <point x="997" y="568" type="curve"/>
      <point x="997" y="688" type="line"/>
    </contour>
    <contour>
      <point x="962" y="1172" type="line"/>
      <point x="962" y="0" type="line"/>
      <point x="1088" y="0" type="line"/>
      <point x="1088" y="1172" type="line"/>
    </contour>
    <contour>
      <point x="-12" y="1247" type="line"/>
      <point x="-12" y="1143" type="line"/>
      <point x="1315" y="1143" type="line"/>
      <point x="1315" y="1247" type="line"/>
    </contour>
    <contour>
      <point x="188" y="44" type="move" name="nukta"/>
    </contour>
    <contour>
      <point x="1025" y="1168" type="move" name="top"/>
    </contour>
    <contour>
      <point x="735" y="1168" type="move" name="topcandra"/>
    </contour>
    <contour>
      <point x="1025" y="28" type="move" name="bottom"/>
    </contour>
  </outline>
</glyph>
<glyph name="aaMatra-deva" format="1">
  <advance width="554"/>
  <unicode hex="093E"/>
  <outline>
    <contour>
      <point x="214" y="1193" type="line"/>
      <point x="214" y="0" type="line"/>
      <point x="341" y="0" type="line"/>
      <point x="341" y="1193" type="line"/>
    </contour>
    <contour>
      <point x="-12" y="1247" type="line"/>
      <point x="-12" y="1143" type="line"/>
      <point x="567" y="1143" type="line"/>
      <point x="567" y="1247" type="line"/>
    </contour>
    <contour>
      <point x="277" y="1168" type="move" name="top"/>
    </contour>
    <contour>
      <point x="277" y="28" type="move" name="bottom"/>
    </contour>
    <contour>
      <point x="276" y="1167" type="move" name="topcandra"/>
    </contour>
  </outline>
</glyph>
<glyph name="uMatra-deva" format="1">
  <advance width="540"/>
  <unicode hex="0941"/>
  <outline>
    <contour>
      <point x="48" y="-104" type="line"/>
      <point x="112" y="-78"/>
      <point x="164" y="-70"/>
      <point x="206" y="-70" type="curve" smooth="yes"/>
      <point x="296" y="-70"/>
      <point x="361" y="-103"/>
      <point x="361" y="-214" type="curve" smooth="yes"/>
      <point x="361" y="-307"/>
      <point x="299" y="-369"/>
      <point x="178" y="-369" type="curve" smooth="yes"/>
      <point x="50" y="-369"/>
      <point x="-65" y="-328"/>
      <point x="-235" y="-130" type="curve"/>
      <point x="-298" y="-193" type="line"/>
      <point x="-112" y="-427"/>
      <point x="35" y="-479"/>
      <point x="178" y="-479" type="curve" smooth="yes"/>
      <point x="370" y="-479"/>
      <point x="481" y="-366"/>
      <point x="481" y="-214" type="curve" smooth="yes"/>
      <point x="481" y="-78"/>
      <point x="386" y="38"/>
      <point x="206" y="38" type="curve" smooth="yes"/>
      <point x="156" y="38"/>
      <point x="87" y="28"/>
      <point x="15" y="-7" type="curve"/>
    </contour>
    <contour>
      <point x="228" y="27" type="move" name="_bottom"/>
    </contour>
  </outline>
</glyph>
<glyph name="eCandraMatra-deva" format="1">
  <advance width="540"/>
  <unicode hex="0945"/>
  <outline>
    <contour>
      <point x="-26" y="1528" type="line"/>
      <point x="21" y="1431"/>
      <point x="116" y="1340"/>
      <point x="275" y="1340" type="curve" smooth="yes"/>
      <point x="410" y="1340"/>
      <point x="513" y="1409"/>
      <point x="575" y="1533" type="curve"/>
      <point x="498" y="1580" type="line"/>
      <point x="456" y="1515"/>
      <point x="393" y="1450"/>
      <point x="276" y="1450" type="curve" smooth="yes"/>
      <point x="163" y="1450"/>
      <point x="99" y="1507"/>
      <point x="54" y="1578" type="curve"/>
    </contour>
    <contour>
      <point x="271" y="1253" type="move" name="top"/>
    </contour>
    <contour>
      <point x="273" y="1166" type="move" name="_topcandra"/>
    </contour>
  </outline>
</glyph>
<glyph name="eShortMatra-deva" format="1">
  <advance width="540"/>
  <unicode hex="0946"/>
  <outline>
    <contour>
      <point x="288" y="1159" type="line"/>
      <point x="317" y="1217"/>
      <point x="326" y="1263"/>
      <point x="326" y="1306" type="curve" smooth="yes"/>
      <point x="326" y="1441"/>
      <point x="243" y="1522"/>
      <point x="57" y="1548" type="curve" smooth="yes"/>
      <point x="-115" y="1574" type="line" smooth="yes"/>
      <point x="-256" y="1595"/>
      <point x="-294" y="1652"/>
      <point x="-294" y="1719" type="curve" smooth="yes"/>
      <point x="-294" y="1734"/>
      <point x="-293" y="1750"/>
      <point x="-291" y="1766" type="curve"/>
      <point x="-369" y="1776" type="line"/>
      <point x="-383" y="1741"/>
      <point x="-388" y="1709"/>
      <point x="-388" y="1680" type="curve" smooth="yes"/>
      <point x="-388" y="1586"/>
      <point x="-327" y="1497"/>
      <point x="-163" y="1471" type="curve" smooth="yes"/>
      <point x="32" y="1440" type="line" smooth="yes"/>
      <point x="186" y="1416"/>
      <point x="225" y="1366"/>
      <point x="225" y="1277" type="curve" smooth="yes"/>
      <point x="225" y="1242"/>
      <point x="219" y="1208"/>
      <point x="213" y="1181" type="curve"/>
    </contour>
    <contour>
      <point x="309" y="1294" type="move" name="top"/>
    </contour>
    <contour>
      <point x="263" y="1162" type="move" name="_top"/>
    </contour>
  </outline>
</glyph>
<glyph name="eMatra-deva" format="1">
  <advance width="540"/>
  <unicode hex="0947"/>
  <outline>
    <contour>
      <point x="324" y="1221" type="line"/>
      <point x="139" y="1681"/>
      <point x="54" y="1767"/>
      <point x="-221" y="1767" type="curve" smooth="yes"/>
      <point x="-272" y="1767"/>
      <point x="-311" y="1763"/>
      <point x="-367" y="1752" type="curve"/>
      <point x="-347" y="1644" type="line"/>
      <point x="-310" y="1651"/>
      <point x="-267" y="1655"/>
      <point x="-201" y="1655" type="curve" smooth="yes"/>
      <point x="3" y="1655"/>
      <point x="70" y="1537"/>
      <point x="214" y="1224" type="curve" smooth="yes"/>
      <point x="233" y="1183" type="line"/>
    </contour>
    <contour>
      <point x="554" y="1252" type="move" name="topcandra"/>
    </contour>
    <contour>
      <point x="270" y="1168" type="move" name="_top"/>
    </contour>
  </outline>
</glyph>
<glyph name="aiMatra-deva" format="1">
  <advance width="540"/>
  <unicode hex="0948"/>
  <outline>
    <contour>
      <point x="308" y="1206" type="line"/>
      <point x="204" y="1668"/>
      <point x="61" y="1779"/>
      <point x="-228" y="1779" type="curve" smooth="yes"/>
      <point x="-296" y="1779"/>
      <point x="-343" y="1771"/>
      <point x="-394" y="1762" type="curve"/>
      <point x="-373" y="1661" type="line"/>
      <point x="-320" y="1671"/>
      <point x="-274" y="1677"/>
      <point x="-219" y="1677" type="curve" smooth="yes"/>
      <point x="-30" y="1677"/>
      <point x="94" y="1626"/>
      <point x="211" y="1301" type="curve"/>
      <point x="239" y="1305" type="line"/>
      <point x="93" y="1474"/>
      <point x="35" y="1525"/>
      <point x="-147" y="1527" type="curve" smooth="yes"/>
      <point x="-226" y="1528"/>
      <point x="-286" y="1519"/>
      <point x="-345" y="1508" type="curve"/>
      <point x="-323" y="1414" type="line"/>
      <point x="-258" y="1425"/>
      <point x="-199" y="1431"/>
      <point x="-135" y="1431" type="curve" smooth="yes"/>
      <point x="48" y="1431"/>
      <point x="121" y="1350"/>
      <point x="244" y="1183" type="curve"/>
    </contour>
    <contour>
      <point x="498" y="1314" type="move" name="topcandra"/>
    </contour>
    <contour>
      <point x="256" y="1168" type="move" name="_top"/>
    </contour>
  </outline>
</glyph>
<glyph name="oMatra-deva" format="1">
  <advance width="554"/>
  <unicode hex="094B"/>
  <outline>
    <component base="aaMatra-deva"/>
    <component base="eMatra-deva" xOffset="7"/>
    <contour>
      <point x="420" y="1168" type="move" name="top"/>
    </contour>
    <contour>
      <point x="528" y="1195" type="move" name="topcandra"/>
    </contour>
  </outline>
</glyph>
<glyph name="auMatra-deva" format="1">
  <advance width="554"/>
  <unicode hex="094C"/>
  <outline>
    <component base="aaMatra-deva"/>
    <component base="aiMatra-deva" xOffset="21"/>
    <contour>
      <point x="413" y="1168" type="move" name="top"/>
    </contour>
    <contour>
      <point x="556" y="1195" type="move" name="topcandra"/>
    </contour>
  </outline>
</glyph>
<glyph name="halant-deva" format="1">
  <advance width="540"/>
  <unicode hex="094D"/>
  <outline>
    <contour>
      <point x="32" y="-89"/>
      <point x="-9" y="-94"/>
      <point x="-69" y="-105" type="curve"/>
      <point x="-49" y="-220" type="line"/>
      <point x="12" y="-210"/>
      <point x="51" y="-208"/>
      <point x="105" y="-208" type="curve" smooth="yes"/>
      <point x="236" y="-208"/>
      <point x="310" y="-230"/>
      <point x="543" y="-456" type="curve"/>
      <point x="605" y="-396" type="line"/>
      <point x="353" y="-135"/>
      <point x="250" y="-89"/>
      <point x="88" y="-89" type="curve" smooth="yes"/>
    </contour>
    <contour>
      <point x="135" y="68" type="move" name="_bottom"/>
    </contour>
  </outline>
</glyph>
<glyph name="prishthaMatraE-deva" format="1">
  <advance width="569"/>
  <unicode hex="094E"/>
  <outline>
    <contour>
      <point x="221" y="1193" type="line"/>
      <point x="221" y="0" type="line"/>
      <point x="348" y="0" type="line"/>
      <point x="348" y="1193" type="line"/>
    </contour>
    <contour>
      <point x="221" y="1247" type="line"/>
      <point x="221" y="1143" type="line"/>
      <point x="581" y="1143" type="line"/>
      <point x="581" y="1247" type="line"/>
    </contour>
    <contour>
      <point x="285" y="1168" type="move" name="top"/>
    </contour>
    <contour>
      <point x="285" y="28" type="move" name="bottom"/>
    </contour>
  </outline>
</glyph>
<glyph name="grave-deva" format="1">
  <advance width="600"/>
  <unicode hex="0953"/>
  <outline>
    <contour>
      <point x="-315" y="1320" type="line"/>
      <point x="-252" y="1388" type="line"/>
      <point x="-633" y="1765" type="line"/>
      <point x="-715" y="1692" type="line"/>
    </contour>
  </outline>
</glyph>
<glyph name="uueMatra-deva" format="1">
  <advance width="540"/>
  <unicode hex="0957"/>
  <outline>
    <contour>
      <point x="-29" y="18" type="line"/>
      <point x="18" y="-79"/>
      <point x="116" y="-173"/>
      <point x="274" y="-173" type="curve" smooth="yes"/>
      <point x="409" y="-173"/>
      <point x="513" y="-103"/>
      <point x="574" y="21" type="curve"/>
      <point x="497" y="68" type="line"/>
      <point x="455" y="2"/>
      <point x="387" y="-62"/>
      <point x="269" y="-62" type="curve" smooth="yes"/>
      <point x="147" y="-62"/>
      <point x="82" y="-6"/>
      <point x="38" y="66" type="curve"/>
    </contour>
    <contour>
      <point x="-24" y="-242" type="line"/>
      <point x="23" y="-339"/>
      <point x="121" y="-433"/>
      <point x="279" y="-433" type="curve" smooth="yes"/>
      <point x="414" y="-433"/>
      <point x="518" y="-363"/>
      <point x="579" y="-239" type="curve"/>
      <point x="502" y="-192" type="line"/>
      <point x="460" y="-258"/>
      <point x="392" y="-322"/>
      <point x="274" y="-322" type="curve" smooth="yes"/>
      <point x="151" y="-322"/>
      <point x="87" y="-266"/>
      <point x="42" y="-194" type="curve"/>
    </contour>
  </outline>
</glyph>
<glyph name="lVocalicMatra-deva" format="1">
  <advance width="540"/>
  <unicode hex="0962"/>
  <outline>
    <contour>
      <point x="699" y="-683"/>
      <point x="625" y="-718"/>
      <point x="554" y="-719" type="curve" smooth="yes"/>
      <point x="479" y="-719"/>
      <point x="424" y="-682"/>
      <point x="424" y="-610" type="curve" smooth="yes"/>
      <point x="424" y="-527"/>
      <point x="498" y="-479"/>
      <point x="619" y="-447" type="curve"/>
      <point x="561" y="-376" type="line"/>
      <point x="396" y="-414"/>
      <point x="313" y="-508"/>
      <point x="313" y="-610" type="curve" smooth="yes"/>
      <point x="313" y="-748"/>
      <point x="434" y="-815"/>
      <point x="547" y="-815" type="curve" smooth="yes"/>
      <point x="645" y="-815"/>
      <point x="733" y="-776"/>
      <point x="799" y="-726" type="curve"/>
      <point x="755" y="-644" type="line"/>
    </contour>
    <contour>
      <point x="28" y="-398" type="line"/>
      <point x="-36" y="-316"/>
      <point x="-91" y="-233"/>
      <point x="-91" y="-127" type="curve" smooth="yes"/>
      <point x="-91" y="-9"/>
      <point x="-24" y="36"/>
      <point x="56" y="36" type="curve" smooth="yes"/>
      <point x="150" y="36"/>
      <point x="214" y="-33"/>
      <point x="269" y="-143" type="curve"/>
      <point x="297" y="-58" type="line"/>
      <point x="233" y="85"/>
      <point x="147" y="140"/>
      <point x="38" y="140" type="curve" smooth="yes"/>
      <point x="-111" y="140"/>
      <point x="-203" y="47"/>
      <point x="-203" y="-116" type="curve" smooth="yes"/>
      <point x="-203" y="-252"/>
      <point x="-133" y="-367"/>
      <point x="-58" y="-459" type="curve"/>
      <point x="-54" y="-459" type="line"/>
    </contour>
    <contour>
      <point x="619" y="-447" type="line"/>
      <point x="707" y="-353"/>
      <point x="754" y="-243"/>
      <point x="754" y="-134" type="curve" smooth="yes"/>
      <point x="754" y="30"/>
      <point x="662" y="138"/>
      <point x="499" y="138" type="curve" smooth="yes"/>
      <point x="362" y="138"/>
      <point x="234" y="39"/>
      <point x="234" y="-142" type="curve" smooth="yes"/>
      <point x="234" y="-171"/>
      <point x="237" y="-198"/>
      <point x="244" y="-228" type="curve"/>
      <point x="347" y="-215" type="line"/>
      <point x="345" y="-195"/>
      <point x="343" y="-177"/>
      <point x="343" y="-158" type="curve" smooth="yes"/>
      <point x="343" y="-35"/>
      <point x="410" y="34"/>
      <point x="503" y="34" type="curve" smooth="yes"/>
      <point x="593" y="34"/>
      <point x="645" y="-33"/>
      <point x="645" y="-138" type="curve" smooth="yes"/>
      <point x="645" y="-221"/>
      <point x="607" y="-310"/>
      <point x="538" y="-385" type="curve"/>
      <point x="539" y="-390" type="line"/>
    </contour>
    <contour>
      <point x="277" y="28" type="move" name="_bottom"/>
    </contour>
  </outline>
</glyph>
<glyph name="zero-deva" format="1">
  <advance width="965"/>
  <unicode hex="0966"/>
  <outline>
    <contour>
      <point x="234" y="1053"/>
      <point x="105" y="914"/>
      <point x="105" y="647" type="curve" smooth="yes"/>
      <point x="105" y="379"/>
      <point x="234" y="239"/>
      <point x="482" y="239" type="curve" smooth="yes"/>
      <point x="730" y="239"/>
      <point x="859" y="378"/>
      <point x="859" y="646" type="curve" smooth="yes"/>
      <point x="859" y="913"/>
      <point x="730" y="1053"/>
      <point x="482" y="1053" type="curve" smooth="yes"/>
    </contour>
    <contour>
      <point x="648" y="945"/>
      <point x="735" y="840"/>
      <point x="735" y="643" type="curve" smooth="yes"/>
      <point x="735" y="446"/>
      <point x="648" y="347"/>
      <point x="481" y="347" type="curve" smooth="yes"/>
      <point x="315" y="347"/>
      <point x="230" y="446"/>
      <point x="230" y="643" type="curve" smooth="yes"/>
      <point x="230" y="841"/>
      <point x="315" y="945"/>
      <point x="481" y="945" type="curve" smooth="yes"/>
    </contour>
  </outline>
</glyph>
<glyph name="six-deva" format="1">
  <advance width="903"/>
  <unicode hex="096C"/>
  <outline>
    <contour>
      <point x="265" y="790"/>
      <point x="105" y="665"/>
      <point x="105" y="448" type="curve" smooth="yes"/>
      <point x="105" y="248"/>
      <point x="231" y="123"/>
      <point x="473" y="120" type="curve" smooth="yes"/>
      <point x="638" y="119"/>
      <point x="863" y="204"/>
      <point x="859" y="328" type="curve" smooth="yes"/>
      <point x="856" y="405"/>
      <point x="771" y="460"/>
      <point x="702" y="484" type="curve"/>
      <point x="605" y="428" type="line"/>
      <point x="722" y="238" type="line"/>
      <point x="742" y="316" type="line"/>
      <point x="686" y="283"/>
      <point x="619" y="231"/>
      <point x="477" y="231" type="curve" smooth="yes"/>
      <point x="316" y="231"/>
      <point x="236" y="306"/>
      <point x="236" y="447" type="curve" smooth="yes"/>
      <point x="236" y="581"/>
      <point x="309" y="673"/>
      <point x="517" y="673" type="curve" smooth="yes"/>
      <point x="550" y="673"/>
      <point x="576" y="671"/>
      <point x="611" y="667" type="curve"/>
      <point x="613" y="775" type="line"/>
      <point x="583" y="779"/>
      <point x="540" y="784"/>
      <point x="497" y="785" type="curve" smooth="yes"/>
    </contour>
    <contour>
      <point x="711" y="256" type="line"/>
      <point x="940" y="-53" type="line"/>
      <point x="1036" y="32" type="line"/>
      <point x="776" y="294" type="line"/>
    </contour>
    <contour>
      <point x="257" y="1268"/>
      <point x="124" y="1164"/>
      <point x="124" y="1002" type="curve" smooth="yes"/>
      <point x="124" y="888"/>
      <point x="195" y="782"/>
      <point x="391" y="707" type="curve"/>
      <point x="459" y="761" type="line"/>
      <point x="447" y="765" type="line"/>
      <point x="310" y="824"/>
      <point x="258" y="903"/>
      <point x="258" y="978" type="curve" smooth="yes"/>
      <point x="258" y="1081"/>
      <point x="318" y="1153"/>
      <point x="474" y="1153" type="curve" smooth="yes"/>
      <point x="529" y="1153"/>
      <point x="631" y="1145"/>
      <point x="708" y="1115" type="curve"/>
      <point x="737" y="1225" type="line"/>
      <point x="651" y="1259"/>
      <point x="542" y="1268"/>
      <point x="480" y="1268" type="curve" smooth="yes"/>
    </contour>
  </outline>
</glyph>
<glyph name="oe-deva" format="1">
  <advance width="1386"/>
  <unicode hex="0973"/>
  <outline>
    <contour>
      <point x="1040" y="1113" type="line"/>
      <point x="1165" y="1113" type="line"/>
      <point x="1165" y="1469" type="line"/>
      <point x="1040" y="1469" type="line"/>
    </contour>
    <component base="a-deva"/>
  </outline>
</glyph>
<glyph name="aw-deva" format="1">
  <advance width="1932"/>
  <unicode hex="0975"/>
  <outline>
    <contour>
      <point x="1055" y="1758"/>
      <point x="1046" y="1730"/>
      <point x="1046" y="1703" type="curve" smooth="yes"/>
      <point x="1046" y="1629"/>
      <point x="1109" y="1560"/>
      <point x="1229" y="1539" type="curve" smooth="yes"/>
      <point x="1447" y="1500" type="line" smooth="yes"/>
      <point x="1602" y="1472"/>
      <point x="1668" y="1430"/>
      <point x="1668" y="1337" type="curve" smooth="yes"/>
      <point x="1668" y="1312"/>
      <point x="1665" y="1271"/>
      <point x="1647" y="1216" type="curve"/>
      <point x="1703" y="1193" type="line"/>
      <point x="1741" y="1265"/>
      <point x="1756" y="1326"/>
      <point x="1756" y="1375" type="curve" smooth="yes"/>
      <point x="1756" y="1497"/>
      <point x="1665" y="1565"/>
      <point x="1484" y="1596" type="curve" smooth="yes"/>
      <point x="1301" y="1627" type="line" smooth="yes"/>
      <point x="1173" y="1650"/>
      <point x="1134" y="1689"/>
      <point x="1132" y="1741" type="curve" smooth="yes"/>
      <point x="1132" y="1751"/>
      <point x="1133" y="1761"/>
      <point x="1135" y="1772" type="curve"/>
      <point x="1074" y="1784" type="line"/>
    </contour>
    <contour>
      <point x="929" y="1624"/>
      <point x="923" y="1593"/>
      <point x="923" y="1563" type="curve" smooth="yes"/>
      <point x="923" y="1463"/>
      <point x="994" y="1375"/>
      <point x="1155" y="1353" type="curve" smooth="yes"/>
      <point x="1412" y="1318" type="line" smooth="yes"/>
      <point x="1576" y="1293"/>
      <point x="1614" y="1277"/>
      <point x="1614" y="1171" type="curve" smooth="yes"/>
      <point x="1614" y="1151"/>
      <point x="1613" y="1126"/>
      <point x="1611" y="1100" type="curve"/>
      <point x="1661" y="1085" type="line"/>
      <point x="1673" y="1131"/>
      <point x="1681" y="1173"/>
      <point x="1681" y="1210" type="curve" smooth="yes"/>
      <point x="1681" y="1347"/>
      <point x="1601" y="1388"/>
      <point x="1418" y="1416" type="curve" smooth="yes"/>
      <point x="1199" y="1450" type="line" smooth="yes"/>
      <point x="1046" y="1472"/>
      <point x="1007" y="1534"/>
      <point x="1007" y="1602" type="curve" smooth="yes"/>
      <point x="1006" y="1615"/>
      <point x="1008" y="1628"/>
      <point x="1011" y="1641" type="curve"/>
      <point x="943" y="1655" type="line"/>
    </contour>
    <component base="aa-deva"/>
  </outline>
</glyph>
<glyph name="uue-deva" format="1">
  <advance width="1386"/>
  <unicode hex="0977"/>
  <outline>
    <contour>
      <point x="295" y="18" type="line"/>
      <point x="342" y="-79"/>
      <point x="440" y="-173"/>
      <point x="598" y="-173" type="curve" smooth="yes"/>
      <point x="733" y="-173"/>
      <point x="837" y="-103"/>
      <point x="898" y="21" type="curve"/>
      <point x="821" y="68" type="line"/>
      <point x="779" y="2"/>
      <point x="711" y="-62"/>
      <point x="593" y="-62" type="curve" smooth="yes"/>
      <point x="470" y="-62"/>
      <point x="406" y="-6"/>
      <point x="361" y="66" type="curve"/>
    </contour>
    <contour>
      <point x="300" y="-242" type="line"/>
      <point x="347" y="-339"/>
      <point x="445" y="-433"/>
      <point x="603" y="-433" type="curve" smooth="yes"/>
      <point x="738" y="-433"/>
      <point x="842" y="-363"/>
      <point x="903" y="-239" type="curve"/>
      <point x="826" y="-192" type="line"/>
      <point x="784" y="-258"/>
      <point x="716" y="-322"/>
      <point x="598" y="-322" type="curve" smooth="yes"/>
      <point x="475" y="-322"/>
      <point x="411" y="-266"/>
      <point x="366" y="-194" type="curve"/>
    </contour>
    <component base="a-deva"/>
  </outline>
</glyph>
<glyph name="glottalstop-deva" format="1">
  <advance width="902"/>
  <unicode hex="097D"/>
  <outline>
    <contour>
      <point x="332" y="1266"/>
      <point x="243" y="1246"/>
      <point x="162" y="1212" type="curve"/>
      <point x="194" y="1107" type="line"/>
      <point x="262" y="1130"/>
      <point x="343" y="1154"/>
      <point x="449" y="1154" type="curve" smooth="yes"/>
      <point x="629" y="1154"/>
      <point x="718" y="1089"/>
      <point x="718" y="926" type="curve" smooth="yes"/>
      <point x="718" y="810"/>
      <point x="669" y="736"/>
      <point x="534" y="620" type="curve" smooth="yes"/>
      <point x="383" y="490"/>
      <point x="340" y="438"/>
      <point x="339" y="260" type="curve" smooth="yes"/>
      <point x="337" y="0" type="line"/>
      <point x="461" y="0" type="line"/>
      <point x="462" y="235" type="line" smooth="yes"/>
      <point x="464" y="393"/>
      <point x="497" y="426"/>
      <point x="632" y="546" type="curve" smooth="yes"/>
      <point x="785" y="680"/>
      <point x="841" y="778"/>
      <point x="841" y="931" type="curve" smooth="yes"/>
      <point x="841" y="1195"/>
      <point x="651" y="1266"/>
      <point x="444" y="1266" type="curve" smooth="yes"/>
    </contour>
  </outline>
</glyph>
<glyph name="v.sups" format="1">
  <advance width="640"/>
  <unicode hex="1D5B"/>
  <outline>
    <contour>
      <point x="256" y="532" type="line"/>
      <point x="383" y="532" type="line"/>
      <point x="624" y="1189" type="line"/>
      <point x="518" y="1189" type="line"/>
      <point x="391" y="815" type="line"/>
      <point x="325" y="620" type="line"/>
      <point x="317" y="620" type="line"/>
      <point x="251" y="815" type="line"/>
      <point x="124" y="1189" type="line"/>
      <point x="16" y="1189" type="line"/>
    </contour>
  </outline>
</glyph>
<glyph name="c.sups" format="1">
  <advance width="623"/>
  <unicode hex="1D9C"/>
  <outline>
    <contour>
      <point x="376" y="516" type="curve" smooth="yes"/>
      <point x="477" y="516"/>
      <point x="541" y="554"/>
      <point x="589" y="594" type="curve"/>
      <point x="543" y="665" type="line"/>
      <point x="503" y="632"/>
      <point x="457" y="606"/>
      <point x="384" y="606" type="curve" smooth="yes"/>
      <point x="260" y="606"/>
      <point x="172" y="710"/>
      <point x="172" y="860" type="curve" smooth="yes"/>
      <point x="172" y="1010"/>
      <point x="264" y="1116"/>
      <point x="383" y="1116" type="curve" smooth="yes"/>
      <point x="448" y="1116"/>
      <point x="482" y="1096"/>
      <point x="525" y="1061" type="curve"/>
      <point x="578" y="1132" type="line"/>
      <point x="536" y="1168"/>
      <point x="473" y="1205"/>
      <point x="379" y="1205" type="curve" smooth="yes"/>
      <point x="212" y="1205"/>
      <point x="64" y="1079"/>
      <point x="64" y="860" type="curve" smooth="yes"/>
      <point x="64" y="640"/>
      <point x="196" y="516"/>
    </contour>
  </outline>
</glyph>
<glyph name="uni1E38" format="1">
  <advance width="967"/>
  <unicode hex="1E38"/>
  <outline>
    <contour>
      <point x="14" y="1497" type="line"/>
      <point x="505" y="1497" type="line"/>
      <point x="505" y="1596" type="line"/>
      <point x="14" y="1596" type="line"/>
    </contour>
    <component base="L"/>
    <component base="dotaccent" xOffset="28" yOffset="-1621"/>
  </outline>
</glyph>
<glyph name="endash" format="1">
  <advance width="983"/>
  <unicode hex="2013"/>
  <outline>
    <contour>
      <point x="83" y="464" type="line" name="hr00"/>
      <point x="900" y="464" type="line"/>
      <point x="900" y="563" type="line"/>
      <point x="83" y="563" type="line"/>
    </contour>
  </outline>
</glyph>
<glyph name="uni2015" format="1">
  <advance width="1638"/>
  <unicode hex="2015"/>
  <outline>
    <contour>
      <point x="83" y="464" type="line"/>
      <point x="1555" y="464" type="line"/>
      <point x="1555" y="563" type="line"/>
      <point x="83" y="563" type="line"/>
    </contour>
  </outline>
</glyph>
<glyph name="quoteleft" format="1">
  <advance width="485"/>
  <unicode hex="2018"/>
  <outline>
    <contour>
      <point x="317" y="1431" type="line"/>
      <point x="189" y="1353"/>
      <point x="106" y="1224"/>
      <point x="106" y="1068" type="curve" smooth="yes"/>
      <point x="106" y="961"/>
      <point x="161" y="903"/>
      <point x="231" y="903" type="curve" smooth="yes"/>
      <point x="287" y="903"/>
      <point x="328" y="941"/>
      <point x="328" y="1002" type="curve" smooth="yes"/>
      <point x="328" y="1064"/>
      <point x="280" y="1096"/>
      <point x="231" y="1096" type="curve" smooth="yes"/>
      <point x="225" y="1096"/>
      <point x="218" y="1096"/>
      <point x="213" y="1094" type="curve"/>
      <point x="213" y="1210"/>
      <point x="263" y="1295"/>
      <point x="361" y="1365" type="curve"/>
    </contour>
  </outline>
</glyph>
<glyph name="dagger" format="1">
  <advance width="901"/>
  <unicode hex="2020"/>
  <outline>
    <contour>
      <point x="391" y="-164" type="line" name="hr00"/>
      <point x="511" y="-164" type="line"/>
      <point x="503" y="1032" type="line"/>
      <point x="786" y="1024" type="line"/>
      <point x="786" y="1145" type="line"/>
      <point x="503" y="1136" type="line"/>
      <point x="511" y="1458" type="line"/>
      <point x="391" y="1458" type="line"/>
      <point x="399" y="1136" type="line"/>
      <point x="116" y="1145" type="line"/>
      <point x="116" y="1024" type="line"/>
      <point x="399" y="1032" type="line"/>
    </contour>
  </outline>
</glyph>
<glyph name="zero.sups" format="1">
  <advance width="747"/>
  <unicode hex="2070"/>
  <outline>
    <contour>
      <point x="375" y="877" type="curve" smooth="yes"/>
      <point x="555" y="877"/>
      <point x="673" y="1029"/>
      <point x="673" y="1303" type="curve" smooth="yes"/>
      <point x="673" y="1572"/>
      <point x="555" y="1724"/>
      <point x="375" y="1724" type="curve" smooth="yes"/>
      <point x="193" y="1724"/>
      <point x="76" y="1572"/>
      <point x="76" y="1303" type="curve" smooth="yes"/>
      <point x="76" y="1029"/>
      <point x="193" y="877"/>
    </contour>
    <contour>
      <point x="375" y="966" type="curve" smooth="yes"/>
      <point x="259" y="966"/>
      <point x="184" y="1084"/>
      <point x="184" y="1303" type="curve" smooth="yes"/>
      <point x="184" y="1522"/>
      <point x="259" y="1635"/>
      <point x="375" y="1635" type="curve" smooth="yes"/>
      <point x="488" y="1635"/>
      <point x="564" y="1522"/>
      <point x="564" y="1303" type="curve" smooth="yes"/>
      <point x="564" y="1084"/>
      <point x="488" y="966"/>
    </contour>
  </outline>
</glyph>
<glyph name="i.sups" format="1">
  <advance width="329"/>
  <unicode hex="2071"/>
  <outline>
    <contour>
      <point x="167" y="1324" type="curve" smooth="yes"/>
      <point x="211" y="1324"/>
      <point x="244" y="1354"/>
      <point x="244" y="1397" type="curve" smooth="yes"/>
      <point x="244" y="1440"/>
      <point x="211" y="1470"/>
      <point x="167" y="1470" type="curve" smooth="yes"/>
      <point x="123" y="1470"/>
      <point x="89" y="1440"/>
      <point x="89" y="1397" type="curve" smooth="yes"/>
      <point x="89" y="1354"/>
      <point x="123" y="1324"/>
    </contour>
    <contour>
      <point x="111" y="532" type="line"/>
      <point x="217" y="532" type="line"/>
      <point x="217" y="1189" type="line"/>
      <point x="111" y="1189" type="line"/>
    </contour>
  </outline>
</glyph>
<glyph name="seven.sups" format="1">
  <advance width="747"/>
  <unicode hex="2077"/>
  <outline>
    <contour>
      <point x="275" y="901" type="curve"/>
      <point x="390" y="901" type="line"/>
      <point x="406" y="1182"/>
      <point x="453" y="1385"/>
      <point x="652" y="1637" type="curve"/>
      <point x="652" y="1700" type="line"/>
      <point x="102" y="1700" type="line"/>
      <point x="102" y="1605" type="line"/>
      <point x="527" y="1605" type="line"/>
      <point x="359" y="1379"/>
      <point x="293" y="1185"/>
    </contour>
  </outline>
</glyph>
<glyph name="eight.sups" format="1">
  <advance width="747"/>
  <unicode hex="2078"/>
  <outline>
    <contour>
      <point x="200" y="1109" type="curve" smooth="yes"/>
      <point x="200" y="1180"/>
      <point x="241" y="1241"/>
      <point x="320" y="1286" type="curve"/>
      <point x="435" y="1240"/>
      <point x="542" y="1214"/>
      <point x="542" y="1108" type="curve" smooth="yes"/>
      <point x="542" y="1027"/>
      <point x="465" y="960"/>
      <point x="371" y="960" type="curve" smooth="yes"/>
      <point x="268" y="960"/>
      <point x="200" y="1033"/>
    </contour>
    <contour>
      <point x="421" y="1349" type="curve"/>
      <point x="316" y="1383"/>
      <point x="232" y="1427"/>
      <point x="232" y="1514" type="curve" smooth="yes"/>
      <point x="232" y="1585"/>
      <point x="295" y="1637"/>
      <point x="371" y="1637" type="curve" smooth="yes"/>
      <point x="450" y="1637"/>
      <point x="515" y="1588"/>
      <point x="515" y="1514" type="curve" smooth="yes"/>
      <point x="515" y="1455"/>
      <point x="485" y="1399"/>
    </contour>
    <contour>
      <point x="95" y="1099" type="curve" smooth="yes"/>
      <point x="95" y="979"/>
      <point x="205" y="877"/>
      <point x="371" y="877" type="curve" smooth="yes"/>
      <point x="528" y="877"/>
      <point x="647" y="976"/>
      <point x="647" y="1106" type="curve" smooth="yes"/>
      <point x="647" y="1201"/>
      <point x="591" y="1264"/>
      <point x="497" y="1311" type="curve"/>
      <point x="497" y="1319" type="line"/>
      <point x="548" y="1356"/>
      <point x="620" y="1419"/>
      <point x="620" y="1515" type="curve" smooth="yes"/>
      <point x="620" y="1642"/>
      <point x="510" y="1724"/>
      <point x="371" y="1724" type="curve" smooth="yes"/>
      <point x="237" y="1724"/>
      <point x="129" y="1639"/>
      <point x="129" y="1515" type="curve" smooth="yes"/>
      <point x="129" y="1431"/>
      <point x="178" y="1378"/>
      <point x="248" y="1333" type="curve"/>
      <point x="248" y="1325" type="line"/>
      <point x="169" y="1280"/>
      <point x="95" y="1201"/>
    </contour>
  </outline>
</glyph>
<glyph name="parenleft.sups" format="1">
  <advance width="470"/>
  <unicode hex="207D"/>
  <outline>
    <contour>
      <point x="312" y="745" type="curve" name="hr00"/>
      <point x="389" y="785" type="line"/>
      <point x="281" y="947"/>
      <point x="241" y="1118"/>
      <point x="241" y="1299" type="curve" smooth="yes"/>
      <point x="241" y="1480"/>
      <point x="281" y="1652"/>
      <point x="389" y="1810" type="curve"/>
      <point x="312" y="1851" type="line"/>
      <point x="197" y="1688"/>
      <point x="134" y="1526"/>
      <point x="134" y="1299" type="curve" smooth="yes"/>
      <point x="134" y="1071"/>
      <point x="197" y="907"/>
    </contour>
  </outline>
</glyph>
<glyph name="n.sups" format="1">
  <advance width="747"/>
  <unicode hex="207F"/>
  <outline>
    <contour>
      <point x="111" y="532" type="line"/>
      <point x="217" y="532" type="line"/>
      <point x="217" y="1009" type="line"/>
      <point x="289" y="1080"/>
      <point x="347" y="1112"/>
      <point x="406" y="1112" type="curve" smooth="yes"/>
      <point x="514" y="1112"/>
      <point x="538" y="1043"/>
      <point x="538" y="932" type="curve" smooth="yes"/>
      <point x="538" y="532" type="line"/>
      <point x="645" y="532" type="line"/>
      <point x="645" y="949" type="line"/>
      <point x="645" y="1100"/>
      <point x="591" y="1205"/>
      <point x="437" y="1205" type="curve" smooth="yes"/>
      <point x="349" y="1205"/>
      <point x="273" y="1156"/>
      <point x="215" y="1093" type="curve"/>
      <point x="206" y="1093" type="line"/>
      <point x="195" y="1189" type="line"/>
      <point x="111" y="1189" type="line"/>
    </contour>
  </outline>
</glyph>
<glyph name="zero.subs" format="1">
  <advance width="747"/>
  <unicode hex="2080"/>
  <outline>
    <contour>
      <point x="375" y="-427" type="curve" smooth="yes"/>
      <point x="555" y="-427"/>
      <point x="673" y="-273"/>
      <point x="673" y="-1" type="curve" smooth="yes"/>
      <point x="673" y="269"/>
      <point x="555" y="421"/>
      <point x="375" y="421" type="curve" smooth="yes"/>
      <point x="193" y="421"/>
      <point x="76" y="269"/>
      <point x="76" y="-1" type="curve" smooth="yes"/>
      <point x="76" y="-273"/>
      <point x="193" y="-427"/>
    </contour>
    <contour>
      <point x="375" y="-338" type="curve" smooth="yes"/>
      <point x="259" y="-338"/>
      <point x="184" y="-221"/>
      <point x="184" y="-1" type="curve" smooth="yes"/>
      <point x="184" y="219"/>
      <point x="259" y="332"/>
      <point x="375" y="332" type="curve" smooth="yes"/>
      <point x="488" y="332"/>
      <point x="564" y="219"/>
      <point x="564" y="-1" type="curve" smooth="yes"/>
      <point x="564" y="-221"/>
      <point x="488" y="-338"/>
    </contour>
  </outline>
</glyph>
<glyph name="seven.subs" format="1">
  <advance width="747"/>
  <unicode hex="2087"/>
  <outline>
    <contour>
      <point x="275" y="-403" type="curve"/>
      <point x="390" y="-403" type="line"/>
      <point x="406" y="-120"/>
      <point x="453" y="81"/>
      <point x="652" y="335" type="curve"/>
      <point x="652" y="396" type="line"/>
      <point x="102" y="396" type="line"/>
      <point x="102" y="302" type="line"/>
      <point x="527" y="302" type="line"/>
      <point x="359" y="76"/>
      <point x="293" y="-120"/>
    </contour>
  </outline>
</glyph>
<glyph name="eight.subs" format="1">
  <advance width="747"/>
  <unicode hex="2088"/>
  <outline>
    <contour>
      <point x="200" y="-194" type="curve" smooth="yes"/>
      <point x="200" y="-123"/>
      <point x="241" y="-63"/>
      <point x="320" y="-17" type="curve"/>
      <point x="435" y="-62"/>
      <point x="542" y="-88"/>
      <point x="542" y="-195" type="curve" smooth="yes"/>
      <point x="542" y="-277"/>
      <point x="465" y="-344"/>
      <point x="371" y="-344" type="curve" smooth="yes"/>
      <point x="268" y="-344"/>
      <point x="200" y="-271"/>
    </contour>
    <contour>
      <point x="421" y="46" type="curve"/>
      <point x="316" y="80"/>
      <point x="232" y="125"/>
      <point x="232" y="210" type="curve" smooth="yes"/>
      <point x="232" y="282"/>
      <point x="295" y="334"/>
      <point x="371" y="334" type="curve" smooth="yes"/>
      <point x="450" y="334"/>
      <point x="515" y="286"/>
      <point x="515" y="210" type="curve" smooth="yes"/>
      <point x="515" y="152"/>
      <point x="485" y="96"/>
    </contour>
    <contour>
      <point x="95" y="-203" type="curve" smooth="yes"/>
      <point x="95" y="-325"/>
      <point x="205" y="-427"/>
      <point x="371" y="-427" type="curve" smooth="yes"/>
      <point x="528" y="-427"/>
      <point x="647" y="-327"/>
      <point x="647" y="-198" type="curve" smooth="yes"/>
      <point x="647" y="-101"/>
      <point x="591" y="-39"/>
      <point x="497" y="8" type="curve"/>
      <point x="497" y="16" type="line"/>
      <point x="548" y="53"/>
      <point x="620" y="115"/>
      <point x="620" y="213" type="curve" smooth="yes"/>
      <point x="620" y="339"/>
      <point x="510" y="421"/>
      <point x="371" y="421" type="curve" smooth="yes"/>
      <point x="237" y="421"/>
      <point x="129" y="336"/>
      <point x="129" y="213" type="curve" smooth="yes"/>
      <point x="129" y="127"/>
      <point x="178" y="76"/>
      <point x="248" y="30" type="curve"/>
      <point x="248" y="22" type="line"/>
      <point x="169" y="-22"/>
      <point x="95" y="-102"/>
    </contour>
  </outline>
</glyph>
<glyph name="nine.subs" format="1">
  <advance width="747"/>
  <unicode hex="2089"/>
  <outline>
    <contour>
      <point x="350" y="-20" type="curve" smooth="yes"/>
      <point x="243" y="-20"/>
      <point x="185" y="54"/>
      <point x="185" y="155" type="curve" smooth="yes"/>
      <point x="185" y="257"/>
      <point x="250" y="332"/>
      <point x="342" y="332" type="curve" smooth="yes"/>
      <point x="453" y="332"/>
      <point x="528" y="242"/>
      <point x="539" y="73" type="curve"/>
      <point x="472" y="5"/>
      <point x="417" y="-20"/>
    </contour>
    <contour>
      <point x="117" y="-369" type="line"/>
      <point x="164" y="-403"/>
      <point x="217" y="-427"/>
      <point x="304" y="-427" type="curve" smooth="yes"/>
      <point x="490" y="-427"/>
      <point x="645" y="-290"/>
      <point x="645" y="23" type="curve" smooth="yes"/>
      <point x="645" y="274"/>
      <point x="526" y="421"/>
      <point x="342" y="421" type="curve" smooth="yes"/>
      <point x="194" y="421"/>
      <point x="82" y="304"/>
      <point x="82" y="153" type="curve" smooth="yes"/>
      <point x="82" y="3"/>
      <point x="171" y="-103"/>
      <point x="332" y="-103" type="curve" smooth="yes"/>
      <point x="410" y="-103"/>
      <point x="480" y="-72"/>
      <point x="539" y="-16" type="curve"/>
      <point x="526" y="-240"/>
      <point x="420" y="-338"/>
      <point x="302" y="-338" type="curve" smooth="yes"/>
      <point x="246" y="-338"/>
      <point x="203" y="-316"/>
      <point x="164" y="-290" type="curve"/>
    </contour>
  </outline>
</glyph>
<glyph name="parenleft.subs" format="1">
  <advance width="470"/>
  <unicode hex="208D"/>
  <outline>
    <contour>
      <point x="312" y="-558" type="curve" name="hr00"/>
      <point x="389" y="-517" type="line"/>
      <point x="281" y="-356"/>
      <point x="241" y="-186"/>
      <point x="241" y="-4" type="curve" smooth="yes"/>
      <point x="241" y="178"/>
      <point x="281" y="349"/>
      <point x="389" y="507" type="curve"/>
      <point x="312" y="548" type="line"/>
      <point x="197" y="384"/>
      <point x="134" y="222"/>
      <point x="134" y="-4" type="curve" smooth="yes"/>
      <point x="134" y="-232"/>
      <point x="197" y="-395"/>
    </contour>
  </outline>
</glyph>
<glyph name="parenright.subs" format="1">
  <advance width="470"/>
  <unicode hex="208E"/>
  <outline>
    <contour>
      <point x="82" y="-517" type="curve" name="hr00"/>
      <point x="161" y="-558" type="line"/>
      <point x="274" y="-395"/>
      <point x="336" y="-232"/>
      <point x="336" y="-4" type="curve" smooth="yes"/>
      <point x="336" y="222"/>
      <point x="274" y="384"/>
      <point x="161" y="548" type="curve"/>
      <point x="82" y="507" type="line"/>
      <point x="189" y="349"/>
      <point x="228" y="178"/>
      <point x="228" y="-4" type="curve" smooth="yes"/>
      <point x="228" y="-186"/>
      <point x="189" y="-356"/>
    </contour>
  </outline>
</glyph>
<glyph name="colonmonetary" format="1">
  <advance width="1003"/>
  <unicode hex="20A1"/>
  <outline>
    <contour>
      <point x="580" y="1215" type="line" name="hr01"/>
      <point x="600" y="1218"/>
      <point x="619" y="1220"/>
      <point x="640" y="1220" type="curve" smooth="yes"/>
      <point x="665" y="1220"/>
      <point x="685" y="1216"/>
      <point x="707" y="1211" type="curve"/>
      <point x="574" y="90" type="line"/>
      <point x="529" y="96"/>
      <point x="488" y="112"/>
      <point x="452" y="139" type="curve"/>
    </contour>
    <contour>
      <point x="388" y="203" type="line"/>
      <point x="313" y="303"/>
      <point x="270" y="459"/>
      <point x="270" y="658" type="curve" smooth="yes"/>
      <point x="270" y="931"/>
      <point x="354" y="1124"/>
      <point x="506" y="1193" type="curve"/>
    </contour>
    <contour>
      <point x="878" y="241" type="line"/>
      <point x="810" y="149"/>
      <point x="739" y="97"/>
      <point x="645" y="88" type="curve"/>
      <point x="775" y="1177" type="line"/>
      <point x="807" y="1154"/>
      <point x="837" y="1123"/>
      <point x="863" y="1088" type="curve"/>
      <point x="947" y="1166" type="line"/>
      <point x="907" y="1221"/>
      <point x="851" y="1269"/>
      <point x="788" y="1298" type="curve"/>
      <point x="816" y="1533" type="line"/>
      <point x="745" y="1533" type="line"/>
      <point x="721" y="1322" type="line" name="hr02"/>
      <point x="696" y="1329"/>
      <point x="669" y="1332"/>
      <point x="643" y="1332" type="curve" smooth="yes" name="hr03"/>
      <point x="627" y="1332"/>
      <point x="610" y="1332"/>
      <point x="593" y="1330" type="curve"/>
      <point x="618" y="1533" type="line"/>
      <point x="546" y="1533" type="line"/>
      <point x="521" y="1318" type="line"/>
      <point x="279" y="1257"/>
      <point x="128" y="1016"/>
      <point x="128" y="653" type="curve" smooth="yes"/>
      <point x="128" y="366"/>
      <point x="221" y="153"/>
      <point x="370" y="48" type="curve"/>
      <point x="337" y="-225" type="line"/>
      <point x="409" y="-225" type="line"/>
      <point x="437" y="11" type="line"/>
      <point x="475" y="-6"/>
      <point x="517" y="-17"/>
      <point x="561" y="-23" type="curve"/>
      <point x="536" y="-225" type="line"/>
      <point x="608" y="-225" type="line"/>
      <point x="632" y="-25" type="line" name="hr04"/>
      <point x="772" y="-17"/>
      <point x="876" y="54"/>
      <point x="961" y="167" type="curve"/>
    </contour>
  </outline>
</glyph>
<glyph name="uni20B1" format="1">
  <advance width="1003"/>
  <unicode hex="20B1"/>
  <outline>
    <contour>
      <point x="311" y="863" type="line"/>
      <point x="311" y="991" type="line"/>
      <point x="709" y="991" type="line"/>
      <point x="712" y="970"/>
      <point x="714" y="946"/>
      <point x="714" y="920" type="curve" smooth="yes"/>
      <point x="714" y="900"/>
      <point x="712" y="881"/>
      <point x="710" y="863" type="curve"/>
    </contour>
    <contour>
      <point x="311" y="614" type="line"/>
      <point x="311" y="787" type="line"/>
      <point x="692" y="787" type="line"/>
      <point x="649" y="672"/>
      <point x="542" y="614"/>
      <point x="380" y="614" type="curve" smooth="yes"/>
    </contour>
    <contour>
      <point x="380" y="1209" type="line"/>
      <point x="536" y="1209"/>
      <point x="641" y="1169"/>
      <point x="688" y="1067" type="curve"/>
      <point x="311" y="1067" type="line"/>
      <point x="311" y="1209" type="line"/>
    </contour>
    <contour>
      <point x="974" y="1067" type="line"/>
      <point x="826" y="1067" type="line"/>
      <point x="770" y="1241"/>
      <point x="609" y="1308"/>
      <point x="402" y="1308" type="curve" smooth="yes"/>
      <point x="179" y="1308" type="line"/>
      <point x="179" y="1067" type="line"/>
      <point x="24" y="1059" type="line"/>
      <point x="24" y="991" type="line"/>
      <point x="179" y="991" type="line"/>
      <point x="179" y="863" type="line"/>
      <point x="24" y="854" type="line"/>
      <point x="24" y="787" type="line"/>
      <point x="179" y="787" type="line"/>
      <point x="179" y="0" type="line"/>
      <point x="311" y="0" type="line"/>
      <point x="311" y="516" type="line"/>
      <point x="402" y="516" type="line"/>
      <point x="613" y="516"/>
      <point x="777" y="604"/>
      <point x="829" y="787" type="curve"/>
      <point x="974" y="787" type="line"/>
      <point x="974" y="863" type="line"/>
      <point x="843" y="863" type="line"/>
      <point x="845" y="881"/>
      <point x="846" y="901"/>
      <point x="846" y="920" type="curve" smooth="yes"/>
      <point x="846" y="946"/>
      <point x="844" y="969"/>
      <point x="841" y="991" type="curve"/>
      <point x="974" y="991" type="line"/>
    </contour>
  </outline>
</glyph>
<glyph name="uni20B5" format="1">
  <advance width="1003"/>
  <unicode hex="20B5"/>
  <outline>
    <contour>
      <point x="567" y="92" type="line"/>
      <point x="378" y="122"/>
      <point x="270" y="337"/>
      <point x="270" y="658" type="curve" smooth="yes"/>
      <point x="270" y="965"/>
      <point x="376" y="1172"/>
      <point x="567" y="1212" type="curve"/>
    </contour>
    <contour>
      <point x="878" y="241" type="line"/>
      <point x="814" y="155"/>
      <point x="747" y="103"/>
      <point x="660" y="90" type="curve"/>
      <point x="660" y="1219" type="line"/>
      <point x="742" y="1213"/>
      <point x="805" y="1164"/>
      <point x="858" y="1093" type="curve"/>
      <point x="941" y="1172" type="line"/>
      <point x="878" y="1256"/>
      <point x="777" y="1325"/>
      <point x="660" y="1332" type="curve"/>
      <point x="660" y="1530" type="line"/>
      <point x="567" y="1530" type="line"/>
      <point x="567" y="1327" type="line"/>
      <point x="298" y="1288"/>
      <point x="128" y="1037"/>
      <point x="128" y="653" type="curve" smooth="yes"/>
      <point x="128" y="254"/>
      <point x="303" y="1"/>
      <point x="567" y="-23" type="curve"/>
      <point x="567" y="-225" type="line"/>
      <point x="660" y="-225" type="line"/>
      <point x="660" y="-21" type="line"/>
      <point x="787" y="-6"/>
      <point x="881" y="62"/>
      <point x="961" y="167" type="curve"/>
    </contour>
  </outline>
</glyph>
<glyph name="uni2113" format="1">
  <advance width="808"/>
  <unicode hex="2113"/>
  <outline>
    <contour>
      <point x="353" y="1069" type="line"/>
      <point x="353" y="1273"/>
      <point x="421" y="1367"/>
      <point x="499" y="1367" type="curve" smooth="yes"/>
      <point x="573" y="1367"/>
      <point x="628" y="1310"/>
      <point x="628" y="1164" type="curve" smooth="yes"/>
      <point x="628" y="961"/>
      <point x="520" y="766"/>
      <point x="353" y="595" type="curve"/>
    </contour>
    <contour>
      <point x="730" y="183" type="line"/>
      <point x="681" y="136"/>
      <point x="627" y="93"/>
      <point x="542" y="93" type="curve" smooth="yes"/>
      <point x="439" y="93"/>
      <point x="353" y="169"/>
      <point x="353" y="372" type="curve" smooth="yes"/>
      <point x="353" y="447" type="line"/>
      <point x="590" y="656"/>
      <point x="748" y="908"/>
      <point x="748" y="1166" type="curve" smooth="yes"/>
      <point x="748" y="1366"/>
      <point x="643" y="1475"/>
      <point x="496" y="1475" type="curve" smooth="yes"/>
      <point x="340" y="1475"/>
      <point x="218" y="1354"/>
      <point x="218" y="1043" type="curve" smooth="yes"/>
      <point x="218" y="473" type="line"/>
      <point x="165" y="429"/>
      <point x="108" y="388"/>
      <point x="49" y="348" type="curve"/>
      <point x="106" y="259" type="line"/>
      <point x="144" y="285"/>
      <point x="182" y="312"/>
      <point x="218" y="339" type="curve"/>
      <point x="219" y="330"/>
      <point x="219" y="314"/>
      <point x="220" y="306" type="curve" smooth="yes"/>
      <point x="236" y="88"/>
      <point x="369" y="-25"/>
      <point x="526" y="-25" type="curve" smooth="yes"/>
      <point x="638" y="-25"/>
      <point x="724" y="39"/>
      <point x="786" y="97" type="curve"/>
    </contour>
  </outline>
</glyph>
<glyph name="trademark" format="1">
  <advance width="1282"/>
  <unicode hex="2122"/>
  <outline>
    <contour>
      <point x="656" y="752" type="line" name="hr01"/>
      <point x="758" y="752" type="line"/>
      <point x="758" y="1053" type="line"/>
      <point x="745" y="1262" type="line"/>
      <point x="754" y="1262" type="line"/>
      <point x="909" y="850" type="line"/>
      <point x="992" y="850" type="line"/>
      <point x="1147" y="1262" type="line" name="hr02"/>
      <point x="1155" y="1262" type="line"/>
      <point x="1143" y="1053" type="line"/>
      <point x="1143" y="752" type="line"/>
      <point x="1244" y="752" type="line"/>
      <point x="1244" y="1384" type="line"/>
      <point x="1111" y="1384" type="line"/>
      <point x="1015" y="1144" type="line"/>
      <point x="956" y="976" type="line"/>
      <point x="948" y="976" type="line"/>
      <point x="890" y="1144" type="line"/>
      <point x="790" y="1384" type="line" name="hr03"/>
      <point x="656" y="1384" type="line"/>
    </contour>
    <contour>
      <point x="215" y="752" type="line"/>
      <point x="319" y="752" type="line"/>
      <point x="319" y="1290" type="line"/>
      <point x="531" y="1290" type="line"/>
      <point x="531" y="1384" type="line"/>
      <point x="5" y="1384" type="line"/>
      <point x="5" y="1290" type="line"/>
      <point x="215" y="1290" type="line"/>
    </contour>
  </outline>
</glyph>
<glyph name="arrowleft" format="1">
  <advance width="1269"/>
  <unicode hex="2190"/>
  <outline>
    <contour>
      <point x="72" y="518" type="line" name="hr00"/>
      <point x="626" y="-25" type="line"/>
      <point x="699" y="54" type="line"/>
      <point x="262" y="464" type="line"/>
      <point x="1200" y="464" type="line"/>
      <point x="1200" y="579" type="line"/>
      <point x="262" y="579" type="line"/>
      <point x="699" y="989" type="line"/>
      <point x="626" y="1069" type="line"/>
      <point x="72" y="526" type="line"/>
    </contour>
  </outline>
</glyph>
<glyph name="arrowright" format="1">
  <advance width="1269"/>
  <unicode hex="2192"/>
  <outline>
    <contour>
      <point x="1200" y="526" type="line" name="hr00"/>
      <point x="646" y="1069" type="line"/>
      <point x="573" y="989" type="line"/>
      <point x="1010" y="579" type="line"/>
      <point x="72" y="579" type="line"/>
      <point x="72" y="464" type="line"/>
      <point x="1010" y="464" type="line"/>
      <point x="573" y="54" type="line"/>
      <point x="646" y="-25" type="line"/>
      <point x="1200" y="518" type="line"/>
    </contour>
  </outline>
</glyph>
<glyph name="uni2206" format="1">
  <advance width="1185"/>
  <unicode hex="2206"/>
  <outline>
    <contour>
      <point x="59" y="0" type="line"/>
      <point x="1127" y="0" type="line"/>
      <point x="1127" y="83" type="line"/>
      <point x="671" y="1352" type="line"/>
      <point x="514" y="1352" type="line"/>
      <point x="59" y="83" type="line"/>
    </contour>
    <contour>
      <point x="216" y="119" type="line"/>
      <point x="448" y="777" type="line"/>
      <point x="590" y="1202" type="line"/>
      <point x="598" y="1202" type="line"/>
      <point x="737" y="777" type="line"/>
      <point x="970" y="119" type="line"/>
    </contour>
  </outline>
</glyph>
<glyph name="product" format="1">
  <advance width="1360"/>
  <unicode hex="220F"/>
  <outline>
    <contour>
      <point x="187" y="-246" type="line"/>
      <point x="325" y="-246" type="line"/>
      <point x="325" y="1186" type="line"/>
      <point x="1032" y="1186" type="line"/>
      <point x="1032" y="-246" type="line"/>
      <point x="1175" y="-246" type="line"/>
      <point x="1175" y="1308" type="line"/>
      <point x="187" y="1308" type="line"/>
    </contour>
  </outline>
</glyph>
<glyph name="summation" format="1">
  <advance width="1018"/>
  <unicode hex="2211"/>
  <outline>
    <contour>
      <point x="43" y="-154" type="line" name="hr01"/>
      <point x="43" y="-246" type="line"/>
      <point x="1014" y="-246" type="line"/>
      <point x="1014" y="-126" type="line"/>
      <point x="218" y="-126" type="line"/>
      <point x="218" y="-118" type="line"/>
      <point x="696" y="533" type="line"/>
      <point x="239" y="1181" type="line" name="hr02"/>
      <point x="239" y="1189" type="line"/>
      <point x="955" y="1189" type="line"/>
      <point x="955" y="1308" type="line"/>
      <point x="66" y="1308" type="line"/>
      <point x="66" y="1216" type="line"/>
      <point x="546" y="531" type="line"/>
    </contour>
  </outline>
</glyph>
<glyph name="uni2215" format="1">
  <advance width="171"/>
  <unicode hex="2215"/>
  <outline>
    <contour>
      <point x="-240" y="-25" type="line"/>
      <point x="506" y="1370" type="line"/>
      <point x="406" y="1370" type="line"/>
      <point x="-340" y="-25" type="line"/>
    </contour>
  </outline>
</glyph>
<glyph name="uni2219" format="1">
  <advance width="1014"/>
  <unicode hex="2219"/>
  <outline>
    <contour>
      <point x="391" y="664" type="curve" smooth="yes"/>
      <point x="391" y="596"/>
      <point x="441" y="551"/>
      <point x="498" y="551" type="curve" smooth="yes"/>
      <point x="556" y="551"/>
      <point x="606" y="596"/>
      <point x="606" y="664" type="curve" smooth="yes"/>
      <point x="606" y="734"/>
      <point x="556" y="779"/>
      <point x="498" y="779" type="curve" smooth="yes"/>
      <point x="441" y="779"/>
      <point x="391" y="734"/>
    </contour>
  </outline>
</glyph>
<glyph name="approxequal" format="1">
  <advance width="1003"/>
  <unicode hex="2248"/>
  <outline>
    <contour>
      <point x="157" y="801" type="line" name="hr00"/>
      <point x="205" y="892"/>
      <point x="256" y="927"/>
      <point x="317" y="927" type="curve" smooth="yes"/>
      <point x="433" y="927"/>
      <point x="522" y="749"/>
      <point x="682" y="749" type="curve" smooth="yes"/>
      <point x="767" y="749"/>
      <point x="858" y="804"/>
      <point x="925" y="925" type="curve"/>
      <point x="846" y="982" type="line"/>
      <point x="798" y="891"/>
      <point x="747" y="855"/>
      <point x="686" y="855" type="curve" smooth="yes"/>
      <point x="570" y="855"/>
      <point x="481" y="1034"/>
      <point x="321" y="1034" type="curve" smooth="yes"/>
      <point x="236" y="1034"/>
      <point x="145" y="979"/>
      <point x="77" y="854" type="curve"/>
    </contour>
    <contour>
      <point x="157" y="369" type="line"/>
      <point x="205" y="460"/>
      <point x="256" y="496"/>
      <point x="317" y="496" type="curve" smooth="yes"/>
      <point x="433" y="496"/>
      <point x="522" y="318"/>
      <point x="682" y="318" type="curve" smooth="yes"/>
      <point x="767" y="318"/>
      <point x="858" y="373"/>
      <point x="925" y="493" type="curve"/>
      <point x="846" y="551" type="line"/>
      <point x="798" y="460"/>
      <point x="747" y="425"/>
      <point x="686" y="425" type="curve" smooth="yes"/>
      <point x="570" y="425"/>
      <point x="481" y="603"/>
      <point x="321" y="603" type="curve" smooth="yes"/>
      <point x="236" y="603"/>
      <point x="145" y="548"/>
      <point x="77" y="424" type="curve"/>
    </contour>
  </outline>
</glyph>
<glyph name="notequal" format="1">
  <advance width="1003"/>
  <unicode hex="2260"/>
  <outline>
    <contour>
      <point x="129" y="146" type="line" name="hr00"/>
      <point x="236" y="146" type="line"/>
      <point x="394" y="407" type="line"/>
      <point x="933" y="407" type="line"/>
      <point x="933" y="514" type="line"/>
      <point x="457" y="514" type="line"/>
      <point x="653" y="837" type="line"/>
      <point x="933" y="837" type="line"/>
      <point x="933" y="944" type="line"/>
      <point x="715" y="944" type="line"/>
      <point x="874" y="1206" type="line"/>
      <point x="767" y="1206" type="line"/>
      <point x="608" y="944" type="line"/>
      <point x="70" y="944" type="line"/>
      <point x="70" y="837" type="line"/>
      <point x="546" y="837" type="line"/>
      <point x="350" y="514" type="line"/>
      <point x="70" y="514" type="line"/>
      <point x="70" y="407" type="line"/>
      <point x="288" y="407" type="line"/>
    </contour>
  </outline>
</glyph>
<glyph name="lessequal" format="1">
  <advance width="1003"/>
  <unicode hex="2264"/>
  <outline>
    <contour>
      <point x="70" y="0" type="line" name="hr00"/>
      <point x="933" y="0" type="line"/>
      <point x="933" y="106" type="line"/>
      <point x="70" y="106" type="line"/>
    </contour>
    <contour>
      <point x="70" y="632" type="line"/>
      <point x="933" y="312" type="line"/>
      <point x="933" y="434" type="line"/>
      <point x="484" y="597" type="line"/>
      <point x="210" y="691" type="line"/>
      <point x="210" y="700" type="line"/>
      <point x="484" y="795" type="line"/>
      <point x="933" y="957" type="line"/>
      <point x="933" y="1079" type="line"/>
      <point x="70" y="760" type="line"/>
    </contour>
  </outline>
</glyph>
<glyph name="greaterequal" format="1">
  <advance width="1003"/>
  <unicode hex="2265"/>
  <outline>
    <contour>
      <point x="70" y="0" type="line" name="hr00"/>
      <point x="933" y="0" type="line"/>
      <point x="933" y="106" type="line"/>
      <point x="70" y="106" type="line"/>
    </contour>
    <contour>
      <point x="933" y="760" type="line"/>
      <point x="70" y="1079" type="line"/>
      <point x="70" y="957" type="line"/>
      <point x="518" y="795" type="line"/>
      <point x="793" y="700" type="line"/>
      <point x="793" y="691" type="line"/>
      <point x="518" y="597" type="line"/>
      <point x="70" y="434" type="line"/>
      <point x="70" y="312" type="line"/>
      <point x="933" y="632" type="line"/>
    </contour>
  </outline>
</glyph>
<glyph name="blackrightpointingtriangle" format="1">
  <advance width="1159"/>
  <unicode hex="25B6"/>
  <outline>
    <contour>
      <point x="119" y="1107" type="line"/>
      <point x="119" y="46" type="line"/>
      <point x="123" y="46" type="line"/>
      <point x="1120" y="573" type="line"/>
      <point x="1120" y="582" type="line"/>
      <point x="123" y="1107" type="line"/>
    </contour>
  </outline>
</glyph>
<glyph name="triagdn" format="1">
  <advance width="1159"/>
  <unicode hex="25BC"/>
  <outline>
    <contour>
      <point x="577" y="67" type="line"/>
      <point x="585" y="67" type="line"/>
      <point x="1110" y="1062" type="line"/>
      <point x="1110" y="1066" type="line"/>
      <point x="49" y="1066" type="line"/>
      <point x="49" y="1062" type="line"/>
    </contour>
  </outline>
</glyph>
<glyph name="whitedownpointingtriangle" format="1">
  <advance width="1159"/>
  <unicode hex="25BD"/>
  <outline>
    <contour>
      <point x="231" y="965" type="line"/>
      <point x="931" y="965" type="line"/>
      <point x="581" y="279" type="line"/>
    </contour>
    <contour>
      <point x="49" y="1066" type="line"/>
      <point x="49" y="1062" type="line"/>
      <point x="577" y="65" type="line"/>
      <point x="585" y="65" type="line"/>
      <point x="1110" y="1062" type="line"/>
      <point x="1110" y="1066" type="line"/>
    </contour>
  </outline>
</glyph>
<glyph name="blackleftpointingtriangle" format="1">
  <advance width="1159"/>
  <unicode hex="25C0"/>
  <outline>
    <contour>
      <point x="39" y="582" type="line"/>
      <point x="39" y="573" type="line"/>
      <point x="1036" y="46" type="line"/>
      <point x="1040" y="46" type="line"/>
      <point x="1040" y="1107" type="line"/>
      <point x="1036" y="1107" type="line"/>
    </contour>
  </outline>
</glyph>
<glyph name="whiteleftpointingtriangle" format="1">
  <advance width="1159"/>
  <unicode hex="25C1"/>
  <outline>
    <contour>
      <point x="936" y="227" type="line"/>
      <point x="260" y="578" type="line"/>
      <point x="936" y="927" type="line"/>
    </contour>
    <contour>
      <point x="1040" y="46" type="line"/>
      <point x="1040" y="1107" type="line"/>
      <point x="1036" y="1107" type="line"/>
      <point x="39" y="582" type="line"/>
      <point x="39" y="573" type="line"/>
      <point x="1036" y="46" type="line"/>
    </contour>
  </outline>
</glyph>
<glyph name="dottedCircle" format="1">
  <advance width="1203"/>
  <unicode hex="25CC"/>
  <outline>
    <contour>
      <point x="311" y="852"/>
      <point x="338" y="879"/>
      <point x="338" y="914" type="curve" smooth="yes"/>
      <point x="338" y="947"/>
      <point x="311" y="975"/>
      <point x="276" y="975" type="curve" smooth="yes"/>
      <point x="243" y="975"/>
      <point x="215" y="947"/>
      <point x="215" y="914" type="curve" smooth="yes"/>
      <point x="215" y="879"/>
      <point x="243" y="852"/>
      <point x="276" y="852" type="curve" smooth="yes"/>
    </contour>
    <contour>
      <point x="459" y="953"/>
      <point x="487" y="980"/>
      <point x="487" y="1015" type="curve" smooth="yes"/>
      <point x="487" y="1048"/>
      <point x="459" y="1076"/>
      <point x="425" y="1076" type="curve" smooth="yes"/>
      <point x="391" y="1076"/>
      <point x="364" y="1048"/>
      <point x="364" y="1015" type="curve" smooth="yes"/>
      <point x="364" y="980"/>
      <point x="391" y="953"/>
      <point x="425" y="953" type="curve" smooth="yes"/>
    </contour>
    <contour>
      <point x="211" y="704"/>
      <point x="238" y="732"/>
      <point x="238" y="766" type="curve" smooth="yes"/>
      <point x="238" y="800"/>
      <point x="211" y="827"/>
      <point x="176" y="827" type="curve" smooth="yes"/>
      <point x="143" y="827"/>
      <point x="115" y="800"/>
      <point x="115" y="766" type="curve" smooth="yes"/>
      <point x="115" y="732"/>
      <point x="143" y="704"/>
      <point x="176" y="704" type="curve" smooth="yes"/>
    </contour>
    <contour>
      <point x="176" y="528"/>
      <point x="204" y="556"/>
      <point x="204" y="590" type="curve" smooth="yes"/>
      <point x="204" y="623"/>
      <point x="176" y="651"/>
      <point x="142" y="651" type="curve" smooth="yes"/>
      <point x="109" y="651"/>
      <point x="81" y="623"/>
      <point x="81" y="590" type="curve" smooth="yes"/>
      <point x="81" y="556"/>
      <point x="109" y="528"/>
      <point x="142" y="528" type="curve" smooth="yes"/>
    </contour>
    <contour>
      <point x="212" y="352"/>
      <point x="239" y="379"/>
      <point x="239" y="414" type="curve" smooth="yes"/>
      <point x="239" y="447"/>
      <point x="212" y="475"/>
      <point x="177" y="475" type="curve" smooth="yes"/>
      <point x="144" y="475"/>
      <point x="116" y="447"/>
      <point x="116" y="414" type="curve" smooth="yes"/>
      <point x="116" y="379"/>
      <point x="144" y="352"/>
      <point x="177" y="352" type="curve" smooth="yes"/>
    </contour>
    <contour>
      <point x="311" y="203"/>
      <point x="338" y="231"/>
      <point x="338" y="265" type="curve" smooth="yes"/>
      <point x="338" y="299"/>
      <point x="311" y="326"/>
      <point x="276" y="326" type="curve" smooth="yes"/>
      <point x="243" y="326"/>
      <point x="215" y="299"/>
      <point x="215" y="265" type="curve" smooth="yes"/>
      <point x="215" y="231"/>
      <point x="243" y="203"/>
      <point x="276" y="203" type="curve" smooth="yes"/>
    </contour>
    <contour>
      <point x="460" y="102"/>
      <point x="488" y="130"/>
      <point x="488" y="164" type="curve" smooth="yes"/>
      <point x="488" y="198"/>
      <point x="460" y="225"/>
      <point x="426" y="225" type="curve" smooth="yes"/>
      <point x="392" y="225"/>
      <point x="365" y="198"/>
      <point x="365" y="164" type="curve" smooth="yes"/>
      <point x="365" y="130"/>
      <point x="392" y="102"/>
      <point x="426" y="102" type="curve" smooth="yes"/>
    </contour>
    <contour>
      <point x="636" y="68"/>
      <point x="664" y="96"/>
      <point x="664" y="130" type="curve" smooth="yes"/>
      <point x="664" y="163"/>
      <point x="636" y="191"/>
      <point x="602" y="191" type="curve" smooth="yes"/>
      <point x="569" y="191"/>
      <point x="541" y="163"/>
      <point x="541" y="130" type="curve" smooth="yes"/>
      <point x="541" y="96"/>
      <point x="569" y="68"/>
      <point x="602" y="68" type="curve" smooth="yes"/>
    </contour>
    <contour>
      <point x="812" y="104"/>
      <point x="839" y="132"/>
      <point x="839" y="166" type="curve" smooth="yes"/>
      <point x="839" y="200"/>
      <point x="812" y="227"/>
      <point x="777" y="227" type="curve" smooth="yes"/>
      <point x="744" y="227"/>
      <point x="716" y="200"/>
      <point x="716" y="166" type="curve" smooth="yes"/>
      <point x="716" y="132"/>
      <point x="744" y="104"/>
      <point x="777" y="104" type="curve" smooth="yes"/>
    </contour>
    <contour>
      <point x="960" y="203"/>
      <point x="988" y="231"/>
      <point x="988" y="265" type="curve" smooth="yes"/>
      <point x="988" y="299"/>
      <point x="960" y="326"/>
      <point x="926" y="326" type="curve" smooth="yes"/>
      <point x="892" y="326"/>
      <point x="865" y="299"/>
      <point x="865" y="265" type="curve" smooth="yes"/>
      <point x="865" y="231"/>
      <point x="892" y="203"/>
      <point x="926" y="203" type="curve" smooth="yes"/>
    </contour>
    <contour>
      <point x="1059" y="352"/>
      <point x="1087" y="379"/>
      <point x="1087" y="414" type="curve" smooth="yes"/>
      <point x="1087" y="447"/>
      <point x="1059" y="475"/>
      <point x="1025" y="475" type="curve" smooth="yes"/>
      <point x="991" y="475"/>
      <point x="964" y="447"/>
      <point x="964" y="414" type="curve" smooth="yes"/>
      <point x="964" y="379"/>
      <point x="991" y="352"/>
      <point x="1025" y="352" type="curve" smooth="yes"/>
    </contour>
    <contour>
      <point x="1095" y="528"/>
      <point x="1123" y="556"/>
      <point x="1123" y="590" type="curve" smooth="yes"/>
      <point x="1123" y="623"/>
      <point x="1095" y="651"/>
      <point x="1061" y="651" type="curve" smooth="yes"/>
      <point x="1028" y="651"/>
      <point x="1000" y="623"/>
      <point x="1000" y="590" type="curve" smooth="yes"/>
      <point x="1000" y="556"/>
      <point x="1028" y="528"/>
      <point x="1061" y="528" type="curve" smooth="yes"/>
    </contour>
    <contour>
      <point x="1060" y="703"/>
      <point x="1088" y="731"/>
      <point x="1088" y="765" type="curve" smooth="yes"/>
      <point x="1088" y="799"/>
      <point x="1060" y="826"/>
      <point x="1026" y="826" type="curve" smooth="yes"/>
      <point x="992" y="826"/>
      <point x="965" y="799"/>
      <point x="965" y="765" type="curve" smooth="yes"/>
      <point x="965" y="731"/>
      <point x="992" y="703"/>
      <point x="1026" y="703" type="curve" smooth="yes"/>
    </contour>
    <contour>
      <point x="960" y="853"/>
      <point x="988" y="880"/>
      <point x="988" y="915" type="curve" smooth="yes"/>
      <point x="988" y="948"/>
      <point x="960" y="976"/>
      <point x="926" y="976" type="curve" smooth="yes"/>
      <point x="892" y="976"/>
      <point x="865" y="948"/>
      <point x="865" y="915" type="curve" smooth="yes"/>
      <point x="865" y="880"/>
      <point x="892" y="853"/>
      <point x="926" y="853" type="curve" smooth="yes"/>
    </contour>
    <contour>
      <point x="812" y="953"/>
      <point x="839" y="980"/>
      <point x="839" y="1015" type="curve" smooth="yes"/>
      <point x="839" y="1048"/>
      <point x="812" y="1076"/>
      <point x="777" y="1076" type="curve" smooth="yes"/>
      <point x="744" y="1076"/>
      <point x="716" y="1048"/>
      <point x="716" y="1015" type="curve" smooth="yes"/>
      <point x="716" y="980"/>
      <point x="744" y="953"/>
      <point x="777" y="953" type="curve" smooth="yes"/>
    </contour>
    <contour>
      <point x="636" y="987"/>
      <point x="664" y="1015"/>
      <point x="664" y="1049" type="curve" smooth="yes"/>
      <point x="664" y="1082"/>
      <point x="636" y="1110"/>
      <point x="602" y="1110" type="curve" smooth="yes"/>
      <point x="569" y="1110"/>
      <point x="541" y="1082"/>
      <point x="541" y="1049" type="curve" smooth="yes"/>
      <point x="541" y="1015"/>
      <point x="569" y="987"/>
      <point x="602" y="987" type="curve" smooth="yes"/>
    </contour>
  </outline>
</glyph>
<glyph name="musicalnote" format="1">
  <advance width="1010"/>
  <unicode hex="266A"/>
  <outline>
    <contour>
      <point x="379" y="336" type="curve" smooth="yes"/>
      <point x="189" y="336"/>
      <point x="61" y="224"/>
      <point x="61" y="104" type="curve" smooth="yes"/>
      <point x="61" y="6"/>
      <point x="154" y="-47"/>
      <point x="263" y="-47" type="curve" smooth="yes"/>
      <point x="438" y="-47"/>
      <point x="602" y="63"/>
      <point x="602" y="279" type="curve" smooth="yes"/>
      <point x="602" y="1135" type="line"/>
      <point x="771" y="1083"/>
      <point x="865" y="955"/>
      <point x="865" y="824" type="curve" smooth="yes"/>
      <point x="865" y="750"/>
      <point x="860" y="702"/>
      <point x="839" y="636" type="curve"/>
      <point x="905" y="612" type="line"/>
      <point x="931" y="674"/>
      <point x="962" y="768"/>
      <point x="962" y="872" type="curve" smooth="yes"/>
      <point x="962" y="1026"/>
      <point x="916" y="1141"/>
      <point x="734" y="1272" type="curve" smooth="yes"/>
      <point x="631" y="1345"/>
      <point x="611" y="1364"/>
      <point x="590" y="1421" type="curve"/>
      <point x="503" y="1421" type="line"/>
      <point x="503" y="312" type="line"/>
      <point x="484" y="324"/>
      <point x="432" y="336"/>
    </contour>
  </outline>
</glyph>
<glyph name="fi" format="1">
  <advance width="1099"/>
  <unicode hex="FB01"/>
  <outline>
    <contour>
      <point x="199" y="990" type="line"/>
      <point x="64" y="981" type="line"/>
      <point x="64" y="877" type="line"/>
      <point x="199" y="877" type="line"/>
      <point x="199" y="0" type="line"/>
      <point x="335" y="0" type="line"/>
      <point x="335" y="877" type="line"/>
      <point x="552" y="877" type="line"/>
      <point x="552" y="990" type="line"/>
      <point x="335" y="990" type="line"/>
      <point x="335" y="1171" type="line"/>
      <point x="335" y="1303"/>
      <point x="382" y="1376"/>
      <point x="480" y="1376" type="curve" smooth="yes"/>
      <point x="517" y="1376"/>
      <point x="557" y="1367"/>
      <point x="595" y="1350" type="curve"/>
      <point x="627" y="1456" type="line"/>
      <point x="582" y="1475"/>
      <point x="526" y="1489"/>
      <point x="470" y="1489" type="curve" smooth="yes"/>
      <point x="290" y="1489"/>
      <point x="199" y="1373"/>
      <point x="199" y="1173" type="curve" smooth="yes"/>
    </contour>
    <contour>
      <point x="787" y="0" type="line"/>
      <point x="923" y="0" type="line"/>
      <point x="923" y="990" type="line"/>
      <point x="787" y="990" type="line"/>
    </contour>
    <contour>
      <point x="857" y="1403" type="curve" smooth="yes"/>
      <point x="800" y="1403"/>
      <point x="754" y="1365"/>
      <point x="754" y="1305" type="curve" smooth="yes"/>
      <point x="754" y="1248"/>
      <point x="800" y="1209"/>
      <point x="857" y="1209" type="curve" smooth="yes"/>
      <point x="914" y="1209"/>
      <point x="958" y="1248"/>
      <point x="958" y="1305" type="curve" smooth="yes"/>
      <point x="958" y="1365"/>
      <point x="914" y="1403"/>
    </contour>
  </outline>
</glyph>
<glyph name="G_tildecomb" format="1">
  <advance width="1241"/>
  <outline>
    <contour>
      <point x="713" y="1370" type="curve" smooth="yes"/>
      <point x="354" y="1370"/>
      <point x="102" y="1105"/>
      <point x="102" y="674" type="curve" smooth="yes"/>
      <point x="102" y="239"/>
      <point x="346" y="-25"/>
      <point x="696" y="-25" type="curve" smooth="yes"/>
      <point x="875" y="-25"/>
      <point x="1020" y="43"/>
      <point x="1106" y="130" type="curve"/>
      <point x="1106" y="683" type="line"/>
      <point x="678" y="683" type="line"/>
      <point x="678" y="567" type="line"/>
      <point x="978" y="567" type="line"/>
      <point x="978" y="188" type="line"/>
      <point x="919" y="132"/>
      <point x="817" y="99"/>
      <point x="710" y="99" type="curve" smooth="yes"/>
      <point x="415" y="99"/>
      <point x="246" y="324"/>
      <point x="246" y="677" type="curve" smooth="yes"/>
      <point x="246" y="1028"/>
      <point x="427" y="1247"/>
      <point x="714" y="1247" type="curve" smooth="yes"/>
      <point x="854" y="1247"/>
      <point x="942" y="1190"/>
      <point x="1010" y="1117" type="curve"/>
      <point x="1091" y="1206" type="line"/>
      <point x="1014" y="1286"/>
      <point x="896" y="1370"/>
    </contour>
    <contour>
      <point x="592" y="1571" type="curve" smooth="yes"/>
      <point x="669" y="1571"/>
      <point x="727" y="1460"/>
      <point x="833" y="1460" type="curve" smooth="yes"/>
      <point x="929" y="1460"/>
      <point x="986" y="1557"/>
      <point x="996" y="1668" type="curve"/>
      <point x="917" y="1668" type="line"/>
      <point x="906" y="1600"/>
      <point x="874" y="1558"/>
      <point x="833" y="1558" type="curve" smooth="yes"/>
      <point x="754" y="1558"/>
      <point x="698" y="1668"/>
      <point x="590" y="1668" type="curve" smooth="yes"/>
      <point x="494" y="1668"/>
      <point x="437" y="1573"/>
      <point x="429" y="1460" type="curve"/>
      <point x="507" y="1460" type="line"/>
      <point x="518" y="1530"/>
      <point x="549" y="1571"/>
    </contour>
  </outline>
</glyph>
<glyph name="Icircumflex.a" format="1">
  <advance width="679"/>
  <outline>
    <contour>
      <point x="92" y="0" type="line"/>
      <point x="583" y="0" type="line"/>
      <point x="583" y="119" type="line"/>
      <point x="408" y="119" type="line"/>
      <point x="408" y="1228" type="line"/>
      <point x="583" y="1228" type="line"/>
      <point x="583" y="1346" type="line"/>
      <point x="92" y="1346" type="line"/>
      <point x="92" y="1228" type="line"/>
      <point x="268" y="1228" type="line"/>
      <point x="268" y="119" type="line"/>
      <point x="92" y="119" type="line"/>
    </contour>
    <contour>
      <point x="192" y="1448" type="line"/>
      <point x="335" y="1591" type="line"/>
      <point x="344" y="1591" type="line"/>
      <point x="488" y="1448" type="line"/>
      <point x="602" y="1448" type="line"/>
      <point x="406" y="1673" type="line"/>
      <point x="274" y="1673" type="line"/>
      <point x="77" y="1448" type="line"/>
    </contour>
  </outline>
</glyph>
<glyph name="Idieresis.a" format="1">
  <advance width="679"/>
  <outline>
    <contour>
      <point x="92" y="0" type="line"/>
      <point x="583" y="0" type="line"/>
      <point x="583" y="119" type="line"/>
      <point x="408" y="119" type="line"/>
      <point x="408" y="1228" type="line"/>
      <point x="583" y="1228" type="line"/>
      <point x="583" y="1346" type="line"/>
      <point x="92" y="1346" type="line"/>
      <point x="92" y="1228" type="line"/>
      <point x="268" y="1228" type="line"/>
      <point x="268" y="119" type="line"/>
      <point x="92" y="119" type="line"/>
    </contour>
    <contour>
      <point x="169" y="1473" type="curve" smooth="yes"/>
      <point x="221" y="1473"/>
      <point x="260" y="1509"/>
      <point x="260" y="1563" type="curve" smooth="yes"/>
      <point x="260" y="1617"/>
      <point x="221" y="1652"/>
      <point x="169" y="1652" type="curve" smooth="yes"/>
      <point x="117" y="1652"/>
      <point x="79" y="1617"/>
      <point x="79" y="1563" type="curve" smooth="yes"/>
      <point x="79" y="1509"/>
      <point x="117" y="1473"/>
    </contour>
    <contour>
      <point x="510" y="1473" type="curve" smooth="yes"/>
      <point x="562" y="1473"/>
      <point x="599" y="1509"/>
      <point x="599" y="1563" type="curve" smooth="yes"/>
      <point x="599" y="1617"/>
      <point x="562" y="1652"/>
      <point x="510" y="1652" type="curve" smooth="yes"/>
      <point x="458" y="1652"/>
      <point x="420" y="1617"/>
      <point x="420" y="1563" type="curve" smooth="yes"/>
      <point x="420" y="1509"/>
      <point x="458" y="1473"/>
    </contour>
  </outline>
</glyph>
<glyph name="Idotaccent.a" format="1">
  <advance width="679"/>
  <outline>
    <contour>
      <point x="92" y="0" type="line"/>
      <point x="583" y="0" type="line"/>
      <point x="583" y="119" type="line"/>
      <point x="408" y="119" type="line"/>
      <point x="408" y="1228" type="line"/>
      <point x="583" y="1228" type="line"/>
      <point x="583" y="1346" type="line"/>
      <point x="92" y="1346" type="line"/>
      <point x="92" y="1228" type="line"/>
      <point x="268" y="1228" type="line"/>
      <point x="268" y="119" type="line"/>
      <point x="92" y="119" type="line"/>
    </contour>
    <contour>
      <point x="340" y="1468" type="curve" smooth="yes"/>
      <point x="397" y="1468"/>
      <point x="442" y="1508"/>
      <point x="442" y="1568" type="curve" smooth="yes"/>
      <point x="442" y="1625"/>
      <point x="397" y="1664"/>
      <point x="340" y="1664" type="curve" smooth="yes"/>
      <point x="282" y="1664"/>
      <point x="237" y="1625"/>
      <point x="237" y="1568" type="curve" smooth="yes"/>
      <point x="237" y="1508"/>
      <point x="282" y="1468"/>
    </contour>
  </outline>
</glyph>
<glyph name="Igrave.a" format="1">
  <advance width="679"/>
  <outline>
    <contour>
      <point x="92" y="0" type="line"/>
      <point x="583" y="0" type="line"/>
      <point x="583" y="119" type="line"/>
      <point x="408" y="119" type="line"/>
      <point x="408" y="1228" type="line"/>
      <point x="583" y="1228" type="line"/>
      <point x="583" y="1346" type="line"/>
      <point x="92" y="1346" type="line"/>
      <point x="92" y="1228" type="line"/>
      <point x="268" y="1228" type="line"/>
      <point x="268" y="119" type="line"/>
      <point x="92" y="119" type="line"/>
    </contour>
    <contour>
      <point x="314" y="1448" type="line"/>
      <point x="432" y="1448" type="line"/>
      <point x="249" y="1673" type="line"/>
      <point x="86" y="1673" type="line"/>
    </contour>
  </outline>
</glyph>
<glyph name="Imacron.a" format="1">
  <advance width="679"/>
  <outline>
    <contour>
      <point x="92" y="0" type="line"/>
      <point x="583" y="0" type="line"/>
      <point x="583" y="119" type="line"/>
      <point x="408" y="119" type="line"/>
      <point x="408" y="1228" type="line"/>
      <point x="583" y="1228" type="line"/>
      <point x="583" y="1346" type="line"/>
      <point x="92" y="1346" type="line"/>
      <point x="92" y="1228" type="line"/>
      <point x="268" y="1228" type="line"/>
      <point x="268" y="119" type="line"/>
      <point x="92" y="119" type="line"/>
    </contour>
    <contour>
      <point x="94" y="1497" type="line"/>
      <point x="585" y="1497" type="line"/>
      <point x="585" y="1596" type="line"/>
      <point x="94" y="1596" type="line"/>
    </contour>
  </outline>
</glyph>
<glyph name="Iogonek.a" format="1">
  <advance width="679"/>
  <outline>
    <contour>
      <point x="92" y="0" type="line"/>
      <point x="301" y="0" type="line"/>
      <point x="234" y="-55"/>
      <point x="165" y="-147"/>
      <point x="165" y="-254" type="curve" smooth="yes"/>
      <point x="165" y="-370"/>
      <point x="248" y="-428"/>
      <point x="350" y="-428" type="curve" smooth="yes"/>
      <point x="401" y="-428"/>
      <point x="465" y="-403"/>
      <point x="501" y="-375" type="curve"/>
      <point x="460" y="-297" type="line"/>
      <point x="434" y="-317"/>
      <point x="409" y="-326"/>
      <point x="375" y="-326" type="curve" smooth="yes"/>
      <point x="325" y="-326"/>
      <point x="275" y="-294"/>
      <point x="275" y="-227" type="curve" smooth="yes"/>
      <point x="275" y="-146"/>
      <point x="325" y="-64"/>
      <point x="408" y="0" type="curve"/>
      <point x="583" y="0" type="line"/>
      <point x="583" y="119" type="line"/>
      <point x="408" y="119" type="line"/>
      <point x="408" y="1228" type="line"/>
      <point x="583" y="1228" type="line"/>
      <point x="583" y="1346" type="line"/>
      <point x="92" y="1346" type="line"/>
      <point x="92" y="1228" type="line"/>
      <point x="268" y="1228" type="line"/>
      <point x="268" y="119" type="line"/>
      <point x="92" y="119" type="line"/>
    </contour>
    <contour>
      <point x="337" y="1391" type="move" name="mark0"/>
    </contour>
  </outline>
</glyph>
<glyph name="Itilde.a" format="1">
  <advance width="679"/>
  <outline>
    <contour>
      <point x="92" y="0" type="line"/>
      <point x="583" y="0" type="line"/>
      <point x="583" y="119" type="line"/>
      <point x="408" y="119" type="line"/>
      <point x="408" y="1228" type="line"/>
      <point x="583" y="1228" type="line"/>
      <point x="583" y="1346" type="line"/>
      <point x="92" y="1346" type="line"/>
      <point x="92" y="1228" type="line"/>
      <point x="268" y="1228" type="line"/>
      <point x="268" y="119" type="line"/>
      <point x="92" y="119" type="line"/>
    </contour>
    <contour>
      <point x="461" y="1460" type="curve" smooth="yes"/>
      <point x="556" y="1460"/>
      <point x="614" y="1557"/>
      <point x="623" y="1668" type="curve"/>
      <point x="544" y="1668" type="line"/>
      <point x="535" y="1600"/>
      <point x="502" y="1558"/>
      <point x="460" y="1558" type="curve" smooth="yes"/>
      <point x="382" y="1558"/>
      <point x="325" y="1668"/>
      <point x="218" y="1668" type="curve" smooth="yes"/>
      <point x="122" y="1668"/>
      <point x="65" y="1573"/>
      <point x="55" y="1460" type="curve"/>
      <point x="136" y="1460" type="line"/>
      <point x="145" y="1530"/>
      <point x="178" y="1571"/>
      <point x="218" y="1571" type="curve" smooth="yes"/>
      <point x="297" y="1571"/>
      <point x="353" y="1460"/>
    </contour>
  </outline>
</glyph>
<glyph name=".notdef" format="1">
  <advance width="1770"/>
  <outline>
    <contour>
      <point x="177" y="0" type="line" name="hr01"/>
      <point x="1593" y="0" type="line"/>
      <point x="1593" y="1416" type="line"/>
      <point x="177" y="1416" type="line"/>
    </contour>
    <contour>
      <point x="440" y="387" type="line"/>
      <point x="783" y="705" type="line"/>
      <point x="439" y="1043" type="line"/>
      <point x="553" y="1159" type="line"/>
      <point x="886" y="807" type="line"/>
      <point x="1214" y="1158" type="line"/>
      <point x="1333" y="1042" type="line"/>
      <point x="985" y="708" type="line"/>
      <point x="1333" y="365" type="line"/>
      <point x="1220" y="252" type="line" name="hr02"/>
      <point x="883" y="605" type="line"/>
      <point x="559" y="252" type="line"/>
    </contour>
  </outline>
</glyph>
<glyph name="a.supa" format="1">
  <advance width="760"/>
  <outline>
    <contour>
      <point x="181" y="872" type="curve" smooth="yes"/>
      <point x="181" y="1015"/>
      <point x="268" y="1116"/>
      <point x="372" y="1116" type="curve" smooth="yes"/>
      <point x="425" y="1116"/>
      <point x="483" y="1095"/>
      <point x="542" y="1042" type="curve"/>
      <point x="542" y="698" type="line"/>
      <point x="481" y="639"/>
      <point x="430" y="609"/>
      <point x="374" y="609" type="curve" smooth="yes"/>
      <point x="242" y="609"/>
      <point x="181" y="705"/>
    </contour>
    <contour>
      <point x="71" y="868" type="curve" smooth="yes"/>
      <point x="71" y="644"/>
      <point x="177" y="516"/>
      <point x="351" y="516" type="curve" smooth="yes"/>
      <point x="430" y="516"/>
      <point x="488" y="558"/>
      <point x="543" y="606" type="curve"/>
      <point x="551" y="606" type="line"/>
      <point x="561" y="532" type="line"/>
      <point x="648" y="532" type="line"/>
      <point x="648" y="1189" type="line"/>
      <point x="566" y="1189" type="line"/>
      <point x="555" y="1124" type="line"/>
      <point x="547" y="1124" type="line"/>
      <point x="491" y="1176"/>
      <point x="431" y="1205"/>
      <point x="360" y="1205" type="curve" smooth="yes"/>
      <point x="209" y="1205"/>
      <point x="71" y="1076"/>
    </contour>
  </outline>
</glyph>
<glyph name="aiMatra_reph-deva" format="1">
  <advance width="540"/>
  <outline>
    <component base="aiMatra-deva"/>
    <component base="reph-deva" xOffset="33" yOffset="-3"/>
    <contour>
      <point x="422" y="1570" type="move" name="topcandra"/>
    </contour>
    <contour>
      <point x="264" y="1168" type="move" name="_top"/>
    </contour>
  </outline>
</glyph>
<glyph name="anusvara-deva_eMatra-deva" format="1">
  <advance width="540"/>
  <outline>
    <contour>
      <point x="262" y="1660"/>
      <point x="238" y="1637"/>
      <point x="238" y="1582" type="curve" smooth="yes"/>
      <point x="238" y="1528"/>
      <point x="262" y="1505"/>
      <point x="317" y="1505" type="curve" smooth="yes"/>
      <point x="372" y="1505"/>
      <point x="396" y="1528"/>
      <point x="396" y="1582" type="curve" smooth="yes"/>
      <point x="396" y="1637"/>
      <point x="372" y="1660"/>
      <point x="317" y="1660" type="curve" smooth="yes"/>
    </contour>
    <contour>
      <point x="155" y="1140" type="move" name="_top"/>
    </contour>
  </outline>
</glyph>
<glyph name="aogonek.a" format="1">
  <advance width="1128"/>
  <outline>
    <contour>
      <point x="243" y="494" type="curve" smooth="yes"/>
      <point x="243" y="730"/>
      <point x="379" y="899"/>
      <point x="554" y="899" type="curve" smooth="yes"/>
      <point x="641" y="899"/>
      <point x="722" y="868"/>
      <point x="814" y="785" type="curve"/>
      <point x="814" y="239" type="line"/>
      <point x="723" y="142"/>
      <point x="636" y="92"/>
      <point x="537" y="92" type="curve" smooth="yes"/>
      <point x="349" y="92"/>
      <point x="243" y="247"/>
    </contour>
    <contour>
      <point x="100" y="493" type="curve" smooth="yes"/>
      <point x="100" y="162"/>
      <point x="261" y="-25"/>
      <point x="510" y="-25" type="curve" smooth="yes"/>
      <point x="633" y="-25"/>
      <point x="740" y="43"/>
      <point x="819" y="121" type="curve"/>
      <point x="825" y="121" type="line"/>
      <point x="838" y="10" type="line"/>
      <point x="742" y="-58"/>
      <point x="668" y="-140"/>
      <point x="668" y="-249" type="curve" smooth="yes"/>
      <point x="668" y="-361"/>
      <point x="746" y="-420"/>
      <point x="846" y="-420" type="curve" smooth="yes"/>
      <point x="894" y="-420"/>
      <point x="959" y="-396"/>
      <point x="995" y="-368" type="curve"/>
      <point x="956" y="-296" type="line"/>
      <point x="930" y="-314"/>
      <point x="904" y="-323"/>
      <point x="871" y="-323" type="curve" smooth="yes"/>
      <point x="820" y="-323"/>
      <point x="774" y="-290"/>
      <point x="774" y="-224" type="curve" smooth="yes"/>
      <point x="774" y="-141"/>
      <point x="833" y="-64"/>
      <point x="951" y="0" type="curve"/>
      <point x="951" y="990" type="line"/>
      <point x="837" y="990" type="line"/>
      <point x="826" y="895" type="line"/>
      <point x="822" y="895" type="line"/>
      <point x="731" y="973"/>
      <point x="650" y="1015"/>
      <point x="536" y="1015" type="curve" smooth="yes"/>
      <point x="305" y="1015"/>
      <point x="100" y="814"/>
    </contour>
    <contour>
      <point x="569" y="1035" type="move" name="mark0"/>
    </contour>
  </outline>
</glyph>
<glyph name="auMatra_reph_anusvara-deva" format="1">
  <advance width="554"/>
  <outline>
    <component base="aaMatra-deva"/>
    <component base="aiMatra_reph_anusvara-deva" xOffset="13"/>
    <contour>
      <point x="440" y="1555" type="move" name="topcandra"/>
    </contour>
  </outline>
</glyph>
<glyph name="b_ra-deva" format="1">
  <advance width="1102"/>
  <outline>
    <contour>
      <point x="806" y="354" type="line"/>
      <point x="774" y="419" type="line"/>
      <point x="196" y="52" type="line"/>
      <point x="268" y="-43" type="line"/>
    </contour>
    <component base="ba-deva"/>
    <contour>
      <point x="830" y="1168" type="move" name="top"/>
    </contour>
    <contour>
      <point x="830" y="28" type="move" name="bottom"/>
    </contour>
    <contour>
      <point x="562" y="1168" type="move" name="topcandra"/>
    </contour>
  </outline>
</glyph>
